<ttFont>
    <TTGlyph name="A" xMin="10" yMin="0" xMax="810" yMax="700">
      <contour>
        <pt x="255" y="245" on="1"/>
        <pt x="565" y="245" on="1"/>
        <pt x="415" y="615" on="1"/>
        <pt x="405" y="615" on="1"/>
      </contour>
      <contour>
        <pt x="525" y="700" on="1"/>
        <pt x="810" y="0" on="1"/>
        <pt x="666" y="0" on="1"/>
        <pt x="600" y="170" on="1"/>
        <pt x="220" y="170" on="1"/>
        <pt x="154" y="0" on="1"/>
        <pt x="10" y="0" on="1"/>
        <pt x="295" y="700" on="1"/>
      </contour>
    </TTGlyph>
    <TTGlyph name="AE" xMin="0" yMin="0" xMax="1155" yMax="700">
      <contour>
        <pt x="710" y="625" on="1"/>
        <pt x="710" y="395" on="1"/>
        <pt x="1055" y="395" on="1"/>
        <pt x="1055" y="320" on="1"/>
        <pt x="710" y="320" on="1"/>
        <pt x="710" y="75" on="1"/>
        <pt x="1155" y="75" on="1"/>
        <pt x="1155" y="0" on="1"/>
        <pt x="565" y="0" on="1"/>
        <pt x="565" y="170" on="1"/>
        <pt x="219" y="170" on="1"/>
        <pt x="145" y="0" on="1"/>
        <pt x="0" y="0" on="1"/>
        <pt x="305" y="700" on="1"/>
        <pt x="1155" y="700" on="1"/>
        <pt x="1155" y="625" on="1"/>
      </contour>
      <contour>
        <pt x="250" y="245" on="1"/>
        <pt x="565" y="245" on="1"/>
        <pt x="565" y="625" on="1"/>
        <pt x="415" y="625" on="1"/>
      </contour>
    </TTGlyph>
    <TTGlyph name="Aacute" xMin="10" yMin="0" xMax="810" yMax="910">
      <component glyphName="A" x="0" y="0" flags="0x204"/>
      <component glyphName="acute" x="319" y="180" flags="0x4"/>
    </TTGlyph>
    <TTGlyph name="Abreve" xMin="10" yMin="0" xMax="810" yMax="935">
      <component glyphName="A" x="0" y="0" flags="0x204"/>
      <component glyphName="breve" x="175" y="180" flags="0x4"/>
    </TTGlyph>
    <TTGlyph name="Acircumflex" xMin="10" yMin="0" xMax="810" yMax="920">
      <component glyphName="A" x="0" y="0" flags="0x204"/>
      <component glyphName="circumflex" x="189" y="180" flags="0x4"/>
    </TTGlyph>
    <TTGlyph name="Adieresis" xMin="10" yMin="0" xMax="810" yMax="910">
      <component glyphName="A" x="0" y="0" flags="0x204"/>
      <component glyphName="dieresis" x="180" y="180" flags="0x4"/>
    </TTGlyph>
    <TTGlyph name="Agrave" xMin="10" yMin="0" xMax="810" yMax="910">
      <component glyphName="A" x="0" y="0" flags="0x204"/>
      <component glyphName="acute" x="500" y="180" scalex="-0.999938964844" scaley="1.0" flags="0x4"/>
    </TTGlyph>
    <TTGlyph name="Amacron" xMin="10" yMin="0" xMax="810" yMax="860">
      <component glyphName="A" x="0" y="0" flags="0x204"/>
      <component glyphName="macron" x="211" y="180" flags="0x4"/>
    </TTGlyph>
    <TTGlyph name="Aogonek" xMin="10" yMin="-225" xMax="830" yMax="700">
      <component glyphName="A" x="0" y="0" flags="0x204"/>
      <component glyphName="ogonek" x="560" y="0" flags="0x4"/>
    </TTGlyph>
    <TTGlyph name="Aring" xMin="10" yMin="0" xMax="810" yMax="940">
      <component glyphName="A" x="0" y="0" flags="0x204"/>
      <component glyphName="ring" x="250" y="140" flags="0x4"/>
    </TTGlyph>
    <TTGlyph name="Atilde" xMin="10" yMin="0" xMax="810" yMax="911">
      <component glyphName="A" x="0" y="0" flags="0x204"/>
      <component glyphName="tilde" x="205" y="180" flags="0x4"/>
    </TTGlyph>
    <TTGlyph name="B" xMin="70" yMin="0" xMax="750" yMax="700">
      <contour>
        <pt x="70" y="700" on="1"/>
        <pt x="410" y="700" on="1"/>
        <pt x="487" y="700" on="0"/>
        <pt x="600" y="673" on="0"/>
        <pt x="674" y="624" on="0"/>
        <pt x="710" y="556" on="0"/>
        <pt x="710" y="515" on="1"/>
        <pt x="710" y="462" on="0"/>
        <pt x="650" y="384" on="0"/>
        <pt x="590" y="365" on="1"/>
        <pt x="665" y="350" on="0"/>
        <pt x="750" y="263" on="0"/>
        <pt x="750" y="195" on="1"/>
        <pt x="750" y="105" on="0"/>
        <pt x="601" y="0" on="0"/>
        <pt x="440" y="0" on="1"/>
        <pt x="70" y="0" on="1"/>
      </contour>
      <contour>
        <pt x="215" y="320" on="1"/>
        <pt x="215" y="75" on="1"/>
        <pt x="440" y="75" on="1"/>
        <pt x="515" y="75" on="0"/>
        <pt x="595" y="135" on="0"/>
        <pt x="595" y="195" on="1"/>
        <pt x="595" y="259" on="0"/>
        <pt x="515" y="320" on="0"/>
        <pt x="440" y="320" on="1"/>
      </contour>
      <contour>
        <pt x="410" y="395" on="1"/>
        <pt x="555" y="395" on="0"/>
        <pt x="555" y="515" on="1"/>
        <pt x="555" y="568" on="0"/>
        <pt x="482" y="625" on="0"/>
        <pt x="410" y="625" on="1"/>
        <pt x="215" y="625" on="1"/>
        <pt x="215" y="395" on="1"/>
      </contour>
    </TTGlyph>
    <TTGlyph name="C" xMin="50" yMin="-20" xMax="770" yMax="720">
      <contour>
        <pt x="470" y="55" on="1"/>
        <pt x="538" y="55" on="0"/>
        <pt x="663" y="102" on="0"/>
        <pt x="720" y="155" on="1"/>
        <pt x="770" y="95" on="1"/>
        <pt x="713" y="42" on="0"/>
        <pt x="551" y="-20" on="0"/>
        <pt x="460" y="-20" on="1"/>
        <pt x="366" y="-20" on="0"/>
        <pt x="215" y="28" on="0"/>
        <pt x="108" y="122" on="0"/>
        <pt x="50" y="260" on="0"/>
        <pt x="50" y="350" on="1"/>
        <pt x="50" y="440" on="0"/>
        <pt x="107" y="578" on="0"/>
        <pt x="212" y="672" on="0"/>
        <pt x="360" y="720" on="0"/>
        <pt x="450" y="720" on="1"/>
        <pt x="541" y="720" on="0"/>
        <pt x="703" y="658" on="0"/>
        <pt x="760" y="605" on="1"/>
        <pt x="710" y="545" on="1"/>
        <pt x="653" y="598" on="0"/>
        <pt x="528" y="645" on="0"/>
        <pt x="460" y="645" on="1"/>
        <pt x="406" y="645" on="0"/>
        <pt x="312" y="610" on="0"/>
        <pt x="244" y="538" on="0"/>
        <pt x="205" y="427" on="0"/>
        <pt x="205" y="350" on="1"/>
        <pt x="205" y="273" on="0"/>
        <pt x="244" y="162" on="0"/>
        <pt x="315" y="90" on="0"/>
        <pt x="412" y="55" on="0"/>
      </contour>
    </TTGlyph>
    <TTGlyph name="Cacute" xMin="50" yMin="-20" xMax="770" yMax="910">
      <component glyphName="C" x="0" y="0" flags="0x204"/>
      <component glyphName="acute" x="344" y="180" flags="0x4"/>
    </TTGlyph>
    <TTGlyph name="Ccaron" xMin="50" yMin="-20" xMax="770" yMax="920">
      <component glyphName="C" x="0" y="0" flags="0x204"/>
      <component glyphName="caron" x="214" y="180" flags="0x4"/>
    </TTGlyph>
    <TTGlyph name="Ccedilla" xMin="50" yMin="-240" xMax="770" yMax="720">
      <component glyphName="C" x="0" y="0" flags="0x204"/>
      <component glyphName="cedilla" x="297" y="0" flags="0x4"/>
    </TTGlyph>
    <TTGlyph name="D" xMin="70" yMin="0" xMax="800" yMax="700">
      <contour>
        <pt x="400" y="700" on="1"/>
        <pt x="490" y="700" on="0"/>
        <pt x="637" y="655" on="0"/>
        <pt x="742" y="567" on="0"/>
        <pt x="800" y="436" on="0"/>
        <pt x="800" y="350" on="1"/>
        <pt x="800" y="264" on="0"/>
        <pt x="742" y="133" on="0"/>
        <pt x="637" y="45" on="0"/>
        <pt x="490" y="0" on="0"/>
        <pt x="400" y="0" on="1"/>
        <pt x="70" y="0" on="1"/>
        <pt x="70" y="700" on="1"/>
      </contour>
      <contour>
        <pt x="215" y="625" on="1"/>
        <pt x="215" y="75" on="1"/>
        <pt x="400" y="75" on="1"/>
        <pt x="451" y="75" on="0"/>
        <pt x="540" y="106" on="0"/>
        <pt x="606" y="173" on="0"/>
        <pt x="645" y="277" on="0"/>
        <pt x="645" y="350" on="1"/>
        <pt x="645" y="423" on="0"/>
        <pt x="606" y="527" on="0"/>
        <pt x="540" y="594" on="0"/>
        <pt x="451" y="625" on="0"/>
        <pt x="400" y="625" on="1"/>
      </contour>
    </TTGlyph>
    <TTGlyph name="Dcaron" xMin="70" yMin="0" xMax="800" yMax="920">
      <component glyphName="D" x="0" y="0" flags="0x204"/>
      <component glyphName="caron" x="139" y="180" flags="0x4"/>
    </TTGlyph>
    <TTGlyph name="Dcroat" xMin="20" yMin="0" xMax="830" yMax="700">
      <contour>
        <pt x="430" y="700" on="1"/>
        <pt x="520" y="700" on="0"/>
        <pt x="667" y="655" on="0"/>
        <pt x="772" y="567" on="0"/>
        <pt x="830" y="436" on="0"/>
        <pt x="830" y="350" on="1"/>
        <pt x="830" y="264" on="0"/>
        <pt x="772" y="133" on="0"/>
        <pt x="667" y="45" on="0"/>
        <pt x="520" y="0" on="0"/>
        <pt x="430" y="0" on="1"/>
        <pt x="100" y="0" on="1"/>
        <pt x="100" y="310" on="1"/>
        <pt x="20" y="310" on="1"/>
        <pt x="20" y="400" on="1"/>
        <pt x="100" y="400" on="1"/>
        <pt x="100" y="700" on="1"/>
      </contour>
      <contour>
        <pt x="410" y="310" on="1"/>
        <pt x="245" y="310" on="1"/>
        <pt x="245" y="75" on="1"/>
        <pt x="430" y="75" on="1"/>
        <pt x="481" y="75" on="0"/>
        <pt x="570" y="106" on="0"/>
        <pt x="636" y="173" on="0"/>
        <pt x="675" y="277" on="0"/>
        <pt x="675" y="350" on="1"/>
        <pt x="675" y="423" on="0"/>
        <pt x="636" y="527" on="0"/>
        <pt x="570" y="594" on="0"/>
        <pt x="481" y="625" on="0"/>
        <pt x="430" y="625" on="1"/>
        <pt x="245" y="625" on="1"/>
        <pt x="245" y="400" on="1"/>
        <pt x="410" y="400" on="1"/>
      </contour>
    </TTGlyph>
    <TTGlyph name="E" xMin="70" yMin="0" xMax="680" yMax="700">
      <contour>
        <pt x="215" y="625" on="1"/>
        <pt x="215" y="395" on="1"/>
        <pt x="580" y="395" on="1"/>
        <pt x="580" y="320" on="1"/>
        <pt x="215" y="320" on="1"/>
        <pt x="215" y="75" on="1"/>
        <pt x="680" y="75" on="1"/>
        <pt x="680" y="0" on="1"/>
        <pt x="70" y="0" on="1"/>
        <pt x="70" y="700" on="1"/>
        <pt x="680" y="700" on="1"/>
        <pt x="680" y="625" on="1"/>
      </contour>
    </TTGlyph>
    <TTGlyph name="Eacute" xMin="70" yMin="0" xMax="680" yMax="910">
      <component glyphName="E" x="0" y="0" flags="0x204"/>
      <component glyphName="acute" x="264" y="180" flags="0x4"/>
    </TTGlyph>
    <TTGlyph name="Ecaron" xMin="70" yMin="0" xMax="680" yMax="920">
      <component glyphName="E" x="0" y="0" flags="0x204"/>
      <component glyphName="caron" x="134" y="180" flags="0x4"/>
    </TTGlyph>
    <TTGlyph name="Ecircumflex" xMin="70" yMin="0" xMax="680" yMax="920">
      <component glyphName="E" x="0" y="0" flags="0x204"/>
      <component glyphName="circumflex" x="154" y="180" flags="0x4"/>
    </TTGlyph>
    <TTGlyph name="Edieresis" xMin="70" yMin="0" xMax="680" yMax="910">
      <component glyphName="E" x="0" y="0" flags="0x204"/>
      <component glyphName="dieresis" x="155" y="180" flags="0x4"/>
    </TTGlyph>
    <TTGlyph name="Edotaccent" xMin="70" yMin="0" xMax="680" yMax="910">
      <component glyphName="E" x="0" y="0" flags="0x204"/>
      <component glyphName="dotaccent" x="280" y="180" flags="0x4"/>
    </TTGlyph>
    <TTGlyph name="Egrave" xMin="70" yMin="0" xMax="680" yMax="910">
      <component glyphName="E" x="0" y="0" flags="0x204"/>
      <component glyphName="acute" x="475" y="180" scalex="-0.999938964844" scaley="1.0" flags="0x4"/>
    </TTGlyph>
    <TTGlyph name="Emacron" xMin="70" yMin="0" xMax="680" yMax="860">
      <component glyphName="E" x="0" y="0" flags="0x204"/>
      <component glyphName="macron" x="196" y="180" flags="0x4"/>
    </TTGlyph>
    <TTGlyph name="Eogonek" xMin="70" yMin="-225" xMax="680" yMax="700">
      <component glyphName="E" x="0" y="0" flags="0x204"/>
      <component glyphName="ogonek" x="230" y="0" flags="0x4"/>
    </TTGlyph>
    <TTGlyph name="Eth" xMin="20" yMin="0" xMax="830" yMax="700">
      <contour>
        <pt x="430" y="700" on="1"/>
        <pt x="520" y="700" on="0"/>
        <pt x="667" y="655" on="0"/>
        <pt x="772" y="567" on="0"/>
        <pt x="830" y="436" on="0"/>
        <pt x="830" y="350" on="1"/>
        <pt x="830" y="264" on="0"/>
        <pt x="772" y="133" on="0"/>
        <pt x="667" y="45" on="0"/>
        <pt x="520" y="0" on="0"/>
        <pt x="430" y="0" on="1"/>
        <pt x="100" y="0" on="1"/>
        <pt x="100" y="310" on="1"/>
        <pt x="20" y="310" on="1"/>
        <pt x="20" y="400" on="1"/>
        <pt x="100" y="400" on="1"/>
        <pt x="100" y="700" on="1"/>
      </contour>
      <contour>
        <pt x="410" y="310" on="1"/>
        <pt x="245" y="310" on="1"/>
        <pt x="245" y="75" on="1"/>
        <pt x="430" y="75" on="1"/>
        <pt x="481" y="75" on="0"/>
        <pt x="570" y="106" on="0"/>
        <pt x="636" y="173" on="0"/>
        <pt x="675" y="277" on="0"/>
        <pt x="675" y="350" on="1"/>
        <pt x="675" y="423" on="0"/>
        <pt x="636" y="527" on="0"/>
        <pt x="570" y="594" on="0"/>
        <pt x="481" y="625" on="0"/>
        <pt x="430" y="625" on="1"/>
        <pt x="245" y="625" on="1"/>
        <pt x="245" y="400" on="1"/>
        <pt x="410" y="400" on="1"/>
      </contour>
    </TTGlyph>
    <TTGlyph name="Euro" xMin="10" yMin="-20" xMax="820" yMax="720">
      <contour>
        <pt x="550" y="240" on="1"/>
        <pt x="267" y="240" on="1"/>
        <pt x="292" y="144" on="0"/>
        <pt x="427" y="55" on="0"/>
        <pt x="520" y="55" on="1"/>
        <pt x="588" y="55" on="0"/>
        <pt x="713" y="102" on="0"/>
        <pt x="770" y="155" on="1"/>
        <pt x="820" y="95" on="1"/>
        <pt x="763" y="42" on="0"/>
        <pt x="601" y="-20" on="0"/>
        <pt x="510" y="-20" on="1"/>
        <pt x="352" y="-20" on="0"/>
        <pt x="145" y="112" on="0"/>
        <pt x="113" y="240" on="1"/>
        <pt x="10" y="240" on="1"/>
        <pt x="20" y="310" on="1"/>
        <pt x="101" y="310" on="1"/>
        <pt x="100" y="320" on="0"/>
        <pt x="100" y="339" on="0"/>
        <pt x="100" y="350" on="1"/>
        <pt x="100" y="361" on="0"/>
        <pt x="100" y="380" on="0"/>
        <pt x="101" y="390" on="1"/>
        <pt x="20" y="390" on="1"/>
        <pt x="30" y="460" on="1"/>
        <pt x="113" y="460" on="1"/>
        <pt x="129" y="523" on="0"/>
        <pt x="197" y="620" on="0"/>
        <pt x="297" y="686" on="0"/>
        <pt x="425" y="720" on="0"/>
        <pt x="500" y="720" on="1"/>
        <pt x="591" y="720" on="0"/>
        <pt x="753" y="658" on="0"/>
        <pt x="810" y="605" on="1"/>
        <pt x="760" y="545" on="1"/>
        <pt x="703" y="598" on="0"/>
        <pt x="578" y="645" on="0"/>
        <pt x="510" y="645" on="1"/>
        <pt x="423" y="645" on="0"/>
        <pt x="292" y="555" on="0"/>
        <pt x="267" y="460" on="1"/>
        <pt x="580" y="460" on="1"/>
        <pt x="570" y="390" on="1"/>
        <pt x="256" y="390" on="1"/>
        <pt x="255" y="380" on="0"/>
        <pt x="255" y="361" on="0"/>
        <pt x="255" y="350" on="1"/>
        <pt x="255" y="339" on="0"/>
        <pt x="255" y="320" on="0"/>
        <pt x="256" y="310" on="1"/>
        <pt x="560" y="310" on="1"/>
      </contour>
    </TTGlyph>
    <TTGlyph name="F" xMin="70" yMin="0" xMax="700" yMax="700">
      <contour>
        <pt x="215" y="625" on="1"/>
        <pt x="215" y="385" on="1"/>
        <pt x="580" y="385" on="1"/>
        <pt x="580" y="310" on="1"/>
        <pt x="215" y="310" on="1"/>
        <pt x="215" y="0" on="1"/>
        <pt x="70" y="0" on="1"/>
        <pt x="70" y="700" on="1"/>
        <pt x="700" y="700" on="1"/>
        <pt x="700" y="625" on="1"/>
      </contour>
    </TTGlyph>
    <TTGlyph name="G" xMin="50" yMin="-20" xMax="770" yMax="720">
      <contour>
        <pt x="430" y="720" on="1"/>
        <pt x="521" y="720" on="0"/>
        <pt x="683" y="658" on="0"/>
        <pt x="740" y="605" on="1"/>
        <pt x="690" y="545" on="1"/>
        <pt x="633" y="598" on="0"/>
        <pt x="508" y="645" on="0"/>
        <pt x="440" y="645" on="1"/>
        <pt x="389" y="645" on="0"/>
        <pt x="303" y="610" on="0"/>
        <pt x="240" y="538" on="0"/>
        <pt x="205" y="427" on="0"/>
        <pt x="205" y="350" on="1"/>
        <pt x="205" y="271" on="0"/>
        <pt x="241" y="158" on="0"/>
        <pt x="305" y="85" on="0"/>
        <pt x="396" y="50" on="0"/>
        <pt x="450" y="50" on="1"/>
        <pt x="495" y="50" on="0"/>
        <pt x="560" y="66" on="0"/>
        <pt x="582" y="77" on="1"/>
        <pt x="608" y="89" on="0"/>
        <pt x="625" y="105" on="1"/>
        <pt x="625" y="295" on="1"/>
        <pt x="495" y="295" on="1"/>
        <pt x="495" y="360" on="1"/>
        <pt x="770" y="360" on="1"/>
        <pt x="770" y="85" on="1"/>
        <pt x="733" y="55" on="0"/>
        <pt x="684" y="32" on="1"/>
        <pt x="642" y="12" on="0"/>
        <pt x="519" y="-20" on="0"/>
        <pt x="440" y="-20" on="1"/>
        <pt x="350" y="-20" on="0"/>
        <pt x="206" y="28" on="0"/>
        <pt x="104" y="122" on="0"/>
        <pt x="50" y="260" on="0"/>
        <pt x="50" y="350" on="1"/>
        <pt x="50" y="440" on="0"/>
        <pt x="104" y="578" on="0"/>
        <pt x="203" y="672" on="0"/>
        <pt x="344" y="720" on="0"/>
      </contour>
    </TTGlyph>
    <TTGlyph name="Gbreve" xMin="50" yMin="-20" xMax="770" yMax="935">
      <component glyphName="G" x="0" y="0" flags="0x204"/>
      <component glyphName="breve" x="175" y="180" flags="0x4"/>
    </TTGlyph>
    <TTGlyph name="Gcommaaccent" xMin="50" yMin="-295" xMax="770" yMax="720">
      <component glyphName="G" x="0" y="0" flags="0x204"/>
      <component glyphName="commaaccent" x="312" y="0" flags="0x4"/>
    </TTGlyph>
    <TTGlyph name="H" xMin="70" yMin="0" xMax="770" yMax="700">
      <contour>
        <pt x="770" y="700" on="1"/>
        <pt x="770" y="0" on="1"/>
        <pt x="625" y="0" on="1"/>
        <pt x="625" y="305" on="1"/>
        <pt x="215" y="305" on="1"/>
        <pt x="215" y="0" on="1"/>
        <pt x="70" y="0" on="1"/>
        <pt x="70" y="700" on="1"/>
        <pt x="215" y="700" on="1"/>
        <pt x="215" y="380" on="1"/>
        <pt x="625" y="380" on="1"/>
        <pt x="625" y="700" on="1"/>
      </contour>
    </TTGlyph>
    <TTGlyph name="I" xMin="70" yMin="0" xMax="215" yMax="700">
      <contour>
        <pt x="215" y="0" on="1"/>
        <pt x="70" y="0" on="1"/>
        <pt x="70" y="700" on="1"/>
        <pt x="215" y="700" on="1"/>
      </contour>
    </TTGlyph>
    <TTGlyph name="Iacute" xMin="70" yMin="0" xMax="293" yMax="910">
      <component glyphName="I" x="0" y="0" flags="0x204"/>
      <component glyphName="acute" x="52" y="180" flags="0x4"/>
    </TTGlyph>
    <TTGlyph name="Icircumflex" xMin="-37" yMin="0" xMax="324" yMax="920">
      <component glyphName="I" x="0" y="0" flags="0x204"/>
      <component glyphName="circumflex" x="-77" y="180" flags="0x4"/>
    </TTGlyph>
    <TTGlyph name="Idieresis" xMin="-46" yMin="0" xMax="334" yMax="900">
      <component glyphName="I" x="0" y="0" flags="0x204"/>
      <component glyphName="dieresis" x="-86" y="170" flags="0x4"/>
    </TTGlyph>
    <TTGlyph name="Idotaccent" xMin="68" yMin="0" xMax="218" yMax="900">
      <contour>
        <pt x="218" y="825" on="1"/>
        <pt x="218" y="795" on="0"/>
        <pt x="177" y="750" on="0"/>
        <pt x="143" y="750" on="1"/>
        <pt x="109" y="750" on="0"/>
        <pt x="68" y="795" on="0"/>
        <pt x="68" y="825" on="1"/>
        <pt x="68" y="855" on="0"/>
        <pt x="109" y="900" on="0"/>
        <pt x="143" y="900" on="1"/>
        <pt x="176" y="900" on="0"/>
        <pt x="218" y="855" on="0"/>
      </contour>
      <contour>
        <pt x="215" y="0" on="1"/>
        <pt x="70" y="0" on="1"/>
        <pt x="70" y="700" on="1"/>
        <pt x="215" y="700" on="1"/>
      </contour>
    </TTGlyph>
    <TTGlyph name="Igrave" xMin="-8" yMin="0" xMax="215" yMax="910">
      <component glyphName="I" x="0" y="0" flags="0x204"/>
      <component glyphName="acute" x="233" y="180" scalex="-0.999938964844" scaley="1.0" flags="0x4"/>
    </TTGlyph>
    <TTGlyph name="Imacron" xMin="-16" yMin="0" xMax="304" yMax="860">
      <component glyphName="I" x="0" y="0" flags="0x204"/>
      <component glyphName="macron" x="-56" y="180" flags="0x4"/>
    </TTGlyph>
    <TTGlyph name="Iogonek" xMin="11" yMin="-225" xMax="241" yMax="700">
      <component glyphName="I" x="0" y="0" flags="0x204"/>
      <component glyphName="ogonek" x="-29" y="0" flags="0x4"/>
    </TTGlyph>
    <TTGlyph name="J" xMin="10" yMin="-20" xMax="590" yMax="700">
      <contour>
        <pt x="260" y="-20" on="1"/>
        <pt x="224" y="-20" on="0"/>
        <pt x="153" y="-8" on="0"/>
        <pt x="87" y="14" on="0"/>
        <pt x="31" y="43" on="0"/>
        <pt x="10" y="60" on="1"/>
        <pt x="55" y="120" on="1"/>
        <pt x="100" y="86" on="0"/>
        <pt x="193" y="55" on="0"/>
        <pt x="250" y="55" on="1"/>
        <pt x="291" y="55" on="0"/>
        <pt x="362" y="80" on="0"/>
        <pt x="415" y="136" on="0"/>
        <pt x="445" y="223" on="0"/>
        <pt x="445" y="285" on="1"/>
        <pt x="445" y="625" on="1"/>
        <pt x="210" y="625" on="1"/>
        <pt x="210" y="700" on="1"/>
        <pt x="590" y="700" on="1"/>
        <pt x="590" y="285" on="1"/>
        <pt x="590" y="208" on="0"/>
        <pt x="543" y="94" on="0"/>
        <pt x="457" y="18" on="0"/>
        <pt x="335" y="-20" on="0"/>
      </contour>
    </TTGlyph>
    <TTGlyph name="K" xMin="70" yMin="0" xMax="785" yMax="700">
      <contour>
        <pt x="520" y="355" on="1"/>
        <pt x="785" y="0" on="1"/>
        <pt x="620" y="0" on="1"/>
        <pt x="390" y="310" on="1"/>
        <pt x="215" y="310" on="1"/>
        <pt x="215" y="0" on="1"/>
        <pt x="70" y="0" on="1"/>
        <pt x="70" y="700" on="1"/>
        <pt x="215" y="700" on="1"/>
        <pt x="215" y="385" on="1"/>
        <pt x="380" y="385" on="1"/>
        <pt x="610" y="700" on="1"/>
        <pt x="770" y="700" on="1"/>
      </contour>
    </TTGlyph>
    <TTGlyph name="Kcommaaccent" xMin="70" yMin="-265" xMax="785" yMax="700">
      <component glyphName="K" x="0" y="0" flags="0x204"/>
      <component glyphName="commaaccent" x="280" y="30" flags="0x4"/>
    </TTGlyph>
    <TTGlyph name="L" xMin="70" yMin="0" xMax="645" yMax="700">
      <contour>
        <pt x="645" y="75" on="1"/>
        <pt x="645" y="0" on="1"/>
        <pt x="70" y="0" on="1"/>
        <pt x="70" y="700" on="1"/>
        <pt x="215" y="700" on="1"/>
        <pt x="215" y="75" on="1"/>
      </contour>
    </TTGlyph>
    <TTGlyph name="Lacute" xMin="70" yMin="0" xMax="645" yMax="910">
      <component glyphName="L" x="0" y="0" flags="0x204"/>
      <component glyphName="acute" x="52" y="180" flags="0x4"/>
    </TTGlyph>
    <TTGlyph name="Lcaron" xMin="70" yMin="0" xMax="645" yMax="710">
      <component glyphName="L" x="0" y="0" flags="0x204"/>
      <component glyphName="quoteright" x="235" y="0" flags="0x4"/>
    </TTGlyph>
    <TTGlyph name="Lcommaaccent" xMin="70" yMin="-295" xMax="645" yMax="700">
      <component glyphName="L" x="0" y="0" flags="0x204"/>
      <component glyphName="commaaccent" x="255" y="0" flags="0x4"/>
    </TTGlyph>
    <TTGlyph name="Lslash" xMin="20" yMin="0" xMax="680" yMax="700">
      <contour>
        <pt x="105" y="392" on="1"/>
        <pt x="105" y="700" on="1"/>
        <pt x="250" y="700" on="1"/>
        <pt x="250" y="446" on="1"/>
        <pt x="365" y="490" on="1"/>
        <pt x="365" y="390" on="1"/>
        <pt x="250" y="346" on="1"/>
        <pt x="250" y="75" on="1"/>
        <pt x="680" y="75" on="1"/>
        <pt x="680" y="0" on="1"/>
        <pt x="105" y="0" on="1"/>
        <pt x="105" y="292" on="1"/>
        <pt x="20" y="260" on="1"/>
        <pt x="20" y="360" on="1"/>
      </contour>
    </TTGlyph>
    <TTGlyph name="M" xMin="70" yMin="0" xMax="1030" yMax="700">
      <contour>
        <pt x="545" y="100" on="1"/>
        <pt x="555" y="100" on="1"/>
        <pt x="815" y="700" on="1"/>
        <pt x="1030" y="700" on="1"/>
        <pt x="1030" y="0" on="1"/>
        <pt x="885" y="0" on="1"/>
        <pt x="885" y="560" on="1"/>
        <pt x="875" y="560" on="1"/>
        <pt x="635" y="0" on="1"/>
        <pt x="465" y="0" on="1"/>
        <pt x="225" y="560" on="1"/>
        <pt x="215" y="560" on="1"/>
        <pt x="215" y="0" on="1"/>
        <pt x="70" y="0" on="1"/>
        <pt x="70" y="700" on="1"/>
        <pt x="285" y="700" on="1"/>
      </contour>
    </TTGlyph>
    <TTGlyph name="N" xMin="70" yMin="0" xMax="790" yMax="700">
      <contour>
        <pt x="790" y="700" on="1"/>
        <pt x="790" y="0" on="1"/>
        <pt x="600" y="0" on="1"/>
        <pt x="225" y="570" on="1"/>
        <pt x="215" y="570" on="1"/>
        <pt x="215" y="0" on="1"/>
        <pt x="70" y="0" on="1"/>
        <pt x="70" y="700" on="1"/>
        <pt x="260" y="700" on="1"/>
        <pt x="635" y="130" on="1"/>
        <pt x="645" y="130" on="1"/>
        <pt x="645" y="700" on="1"/>
      </contour>
    </TTGlyph>
    <TTGlyph name="Nacute" xMin="70" yMin="0" xMax="790" yMax="900">
      <component glyphName="N" x="0" y="0" flags="0x204"/>
      <component glyphName="acute" x="339" y="170" flags="0x4"/>
    </TTGlyph>
    <TTGlyph name="Ncaron" xMin="70" yMin="0" xMax="790" yMax="910">
      <component glyphName="N" x="0" y="0" flags="0x204"/>
      <component glyphName="caron" x="219" y="170" flags="0x4"/>
    </TTGlyph>
    <TTGlyph name="Ncommaaccent" xMin="70" yMin="-275" xMax="790" yMax="700">
      <component glyphName="N" x="0" y="0" flags="0x204"/>
      <component glyphName="commaaccent" x="302" y="20" flags="0x4"/>
    </TTGlyph>
    <TTGlyph name="Ntilde" xMin="70" yMin="0" xMax="790" yMax="901">
      <component glyphName="N" x="0" y="0" flags="0x204"/>
      <component glyphName="tilde" x="225" y="170" flags="0x4"/>
    </TTGlyph>
    <TTGlyph name="O" xMin="50" yMin="-20" xMax="850" yMax="720">
      <contour>
        <pt x="450" y="650" on="1"/>
        <pt x="399" y="650" on="0"/>
        <pt x="310" y="614" on="0"/>
        <pt x="244" y="540" on="0"/>
        <pt x="205" y="427" on="0"/>
        <pt x="205" y="350" on="1"/>
        <pt x="205" y="273" on="0"/>
        <pt x="244" y="160" on="0"/>
        <pt x="310" y="86" on="0"/>
        <pt x="399" y="50" on="0"/>
        <pt x="450" y="50" on="1"/>
        <pt x="501" y="50" on="0"/>
        <pt x="590" y="86" on="0"/>
        <pt x="656" y="160" on="0"/>
        <pt x="695" y="273" on="0"/>
        <pt x="695" y="350" on="1"/>
        <pt x="695" y="427" on="0"/>
        <pt x="656" y="540" on="0"/>
        <pt x="590" y="614" on="0"/>
        <pt x="501" y="650" on="0"/>
      </contour>
      <contour>
        <pt x="450" y="720" on="1"/>
        <pt x="540" y="720" on="0"/>
        <pt x="687" y="672" on="0"/>
        <pt x="792" y="578" on="0"/>
        <pt x="850" y="440" on="0"/>
        <pt x="850" y="350" on="1"/>
        <pt x="850" y="260" on="0"/>
        <pt x="792" y="122" on="0"/>
        <pt x="687" y="28" on="0"/>
        <pt x="540" y="-20" on="0"/>
        <pt x="450" y="-20" on="1"/>
        <pt x="360" y="-20" on="0"/>
        <pt x="212" y="28" on="0"/>
        <pt x="107" y="122" on="0"/>
        <pt x="50" y="260" on="0"/>
        <pt x="50" y="350" on="1"/>
        <pt x="50" y="440" on="0"/>
        <pt x="107" y="578" on="0"/>
        <pt x="212" y="672" on="0"/>
        <pt x="360" y="720" on="0"/>
      </contour>
    </TTGlyph>
    <TTGlyph name="OE" xMin="40" yMin="0" xMax="1185" yMax="700">
      <contour>
        <pt x="1185" y="700" on="1"/>
        <pt x="1185" y="625" on="1"/>
        <pt x="740" y="625" on="1"/>
        <pt x="740" y="395" on="1"/>
        <pt x="1085" y="395" on="1"/>
        <pt x="1085" y="320" on="1"/>
        <pt x="740" y="320" on="1"/>
        <pt x="740" y="75" on="1"/>
        <pt x="1185" y="75" on="1"/>
        <pt x="1185" y="0" on="1"/>
        <pt x="440" y="0" on="1"/>
        <pt x="350" y="0" on="0"/>
        <pt x="202" y="45" on="0"/>
        <pt x="97" y="133" on="0"/>
        <pt x="40" y="264" on="0"/>
        <pt x="40" y="350" on="1"/>
        <pt x="40" y="436" on="0"/>
        <pt x="97" y="567" on="0"/>
        <pt x="202" y="655" on="0"/>
        <pt x="350" y="700" on="0"/>
        <pt x="440" y="700" on="1"/>
      </contour>
      <contour>
        <pt x="440" y="625" on="1"/>
        <pt x="389" y="625" on="0"/>
        <pt x="300" y="594" on="0"/>
        <pt x="234" y="527" on="0"/>
        <pt x="195" y="423" on="0"/>
        <pt x="195" y="350" on="1"/>
        <pt x="195" y="277" on="0"/>
        <pt x="234" y="173" on="0"/>
        <pt x="300" y="106" on="0"/>
        <pt x="389" y="75" on="0"/>
        <pt x="440" y="75" on="1"/>
        <pt x="595" y="75" on="1"/>
        <pt x="595" y="625" on="1"/>
      </contour>
    </TTGlyph>
    <TTGlyph name="Oacute" xMin="50" yMin="-20" xMax="850" yMax="910">
      <component glyphName="O" x="0" y="0" flags="0x204"/>
      <component glyphName="acute" x="359" y="180" flags="0x4"/>
    </TTGlyph>
    <TTGlyph name="Ocircumflex" xMin="50" yMin="-20" xMax="850" yMax="930">
      <component glyphName="O" x="0" y="0" flags="0x204"/>
      <component glyphName="circumflex" x="229" y="190" flags="0x4"/>
    </TTGlyph>
    <TTGlyph name="Odieresis" xMin="50" yMin="-20" xMax="850" yMax="920">
      <component glyphName="O" x="0" y="0" flags="0x204"/>
      <component glyphName="dieresis" x="220" y="190" flags="0x4"/>
    </TTGlyph>
    <TTGlyph name="Ograve" xMin="50" yMin="-20" xMax="850" yMax="910">
      <component glyphName="O" x="0" y="0" flags="0x204"/>
      <component glyphName="acute" x="540" y="180" scalex="-0.999938964844" scaley="1.0" flags="0x4"/>
    </TTGlyph>
    <TTGlyph name="Ohungarumlaut" xMin="50" yMin="-20" xMax="850" yMax="910">
      <component glyphName="O" x="0" y="0" flags="0x204"/>
      <component glyphName="hungarumlaut" x="264" y="180" flags="0x4"/>
    </TTGlyph>
    <TTGlyph name="Omacron" xMin="50" yMin="-20" xMax="850" yMax="860">
      <component glyphName="O" x="0" y="0" flags="0x204"/>
      <component glyphName="macron" x="250" y="180" flags="0x4"/>
    </TTGlyph>
    <TTGlyph name="Oslash" xMin="50" yMin="-30" xMax="850" yMax="730">
      <contour>
        <pt x="760" y="680" on="1"/>
        <pt x="726" y="636" on="1"/>
        <pt x="786" y="589" on="0"/>
        <pt x="850" y="446" on="0"/>
        <pt x="850" y="350" on="1"/>
        <pt x="850" y="260" on="0"/>
        <pt x="792" y="122" on="0"/>
        <pt x="687" y="28" on="0"/>
        <pt x="540" y="-20" on="0"/>
        <pt x="450" y="-20" on="1"/>
        <pt x="392" y="-20" on="0"/>
        <pt x="291" y="0" on="0"/>
        <pt x="248" y="19" on="1"/>
        <pt x="210" y="-30" on="1"/>
        <pt x="140" y="20" on="1"/>
        <pt x="173" y="63" on="1"/>
        <pt x="114" y="111" on="0"/>
        <pt x="50" y="253" on="0"/>
        <pt x="50" y="350" on="1"/>
        <pt x="50" y="440" on="0"/>
        <pt x="107" y="578" on="0"/>
        <pt x="212" y="672" on="0"/>
        <pt x="360" y="720" on="0"/>
        <pt x="450" y="720" on="1"/>
        <pt x="507" y="720" on="0"/>
        <pt x="608" y="700" on="0"/>
        <pt x="652" y="681" on="1"/>
        <pt x="690" y="730" on="1"/>
      </contour>
      <contour>
        <pt x="695" y="350" on="1"/>
        <pt x="695" y="410" on="0"/>
        <pt x="671" y="504" on="0"/>
        <pt x="650" y="539" on="1"/>
        <pt x="307" y="95" on="1"/>
        <pt x="367" y="50" on="0"/>
        <pt x="450" y="50" on="1"/>
        <pt x="501" y="50" on="0"/>
        <pt x="590" y="86" on="0"/>
        <pt x="656" y="160" on="0"/>
        <pt x="695" y="273" on="0"/>
      </contour>
      <contour>
        <pt x="450" y="650" on="1"/>
        <pt x="399" y="650" on="0"/>
        <pt x="310" y="614" on="0"/>
        <pt x="244" y="540" on="0"/>
        <pt x="205" y="427" on="0"/>
        <pt x="205" y="350" on="1"/>
        <pt x="205" y="290" on="0"/>
        <pt x="228" y="196" on="0"/>
        <pt x="249" y="161" on="1"/>
        <pt x="593" y="604" on="1"/>
        <pt x="532" y="650" on="0"/>
      </contour>
    </TTGlyph>
    <TTGlyph name="Otilde" xMin="50" yMin="-20" xMax="850" yMax="911">
      <component glyphName="O" x="0" y="0" flags="0x204"/>
      <component glyphName="tilde" x="235" y="180" flags="0x4"/>
    </TTGlyph>
    <TTGlyph name="P" xMin="70" yMin="0" xMax="750" yMax="700">
      <contour>
        <pt x="430" y="700" on="1"/>
        <pt x="505" y="700" on="0"/>
        <pt x="624" y="667" on="0"/>
        <pt x="706" y="604" on="0"/>
        <pt x="750" y="513" on="0"/>
        <pt x="750" y="455" on="1"/>
        <pt x="750" y="397" on="0"/>
        <pt x="706" y="306" on="0"/>
        <pt x="624" y="243" on="0"/>
        <pt x="505" y="210" on="0"/>
        <pt x="430" y="210" on="1"/>
        <pt x="215" y="210" on="1"/>
        <pt x="215" y="0" on="1"/>
        <pt x="70" y="0" on="1"/>
        <pt x="70" y="700" on="1"/>
      </contour>
      <contour>
        <pt x="215" y="625" on="1"/>
        <pt x="215" y="285" on="1"/>
        <pt x="430" y="285" on="1"/>
        <pt x="509" y="285" on="0"/>
        <pt x="596" y="368" on="0"/>
        <pt x="596" y="455" on="1"/>
        <pt x="596" y="542" on="0"/>
        <pt x="509" y="625" on="0"/>
        <pt x="430" y="625" on="1"/>
      </contour>
    </TTGlyph>
    <TTGlyph name="Q" xMin="50" yMin="-105" xMax="850" yMax="720">
      <contour>
        <pt x="450" y="720" on="1"/>
        <pt x="540" y="720" on="0"/>
        <pt x="687" y="672" on="0"/>
        <pt x="792" y="578" on="0"/>
        <pt x="850" y="440" on="0"/>
        <pt x="850" y="350" on="1"/>
        <pt x="850" y="235" on="0"/>
        <pt x="758" y="75" on="0"/>
        <pt x="676" y="31" on="1"/>
        <pt x="740" y="-40" on="1"/>
        <pt x="670" y="-105" on="1"/>
        <pt x="581" y="-5" on="1"/>
        <pt x="521" y="-20" on="0"/>
        <pt x="450" y="-20" on="1"/>
        <pt x="360" y="-20" on="0"/>
        <pt x="212" y="28" on="0"/>
        <pt x="107" y="122" on="0"/>
        <pt x="50" y="260" on="0"/>
        <pt x="50" y="350" on="1"/>
        <pt x="50" y="440" on="0"/>
        <pt x="107" y="578" on="0"/>
        <pt x="212" y="672" on="0"/>
        <pt x="360" y="720" on="0"/>
      </contour>
      <contour>
        <pt x="450" y="650" on="1"/>
        <pt x="399" y="650" on="0"/>
        <pt x="310" y="614" on="0"/>
        <pt x="244" y="540" on="0"/>
        <pt x="205" y="427" on="0"/>
        <pt x="205" y="350" on="1"/>
        <pt x="205" y="273" on="0"/>
        <pt x="244" y="160" on="0"/>
        <pt x="310" y="86" on="0"/>
        <pt x="399" y="50" on="0"/>
        <pt x="450" y="50" on="1"/>
        <pt x="489" y="50" on="0"/>
        <pt x="522" y="60" on="1"/>
        <pt x="465" y="125" on="1"/>
        <pt x="535" y="190" on="1"/>
        <pt x="608" y="108" on="1"/>
        <pt x="648" y="144" on="0"/>
        <pt x="695" y="264" on="0"/>
        <pt x="695" y="350" on="1"/>
        <pt x="695" y="427" on="0"/>
        <pt x="656" y="540" on="0"/>
        <pt x="590" y="614" on="0"/>
        <pt x="501" y="650" on="0"/>
      </contour>
    </TTGlyph>
    <TTGlyph name="R" xMin="70" yMin="0" xMax="760" yMax="700">
      <contour>
        <pt x="430" y="700" on="1"/>
        <pt x="505" y="700" on="0"/>
        <pt x="624" y="667" on="0"/>
        <pt x="706" y="604" on="0"/>
        <pt x="750" y="513" on="0"/>
        <pt x="750" y="455" on="1"/>
        <pt x="750" y="375" on="0"/>
        <pt x="670" y="265" on="0"/>
        <pt x="595" y="236" on="1"/>
        <pt x="760" y="0" on="1"/>
        <pt x="595" y="0" on="1"/>
        <pt x="448" y="210" on="1"/>
        <pt x="430" y="210" on="1"/>
        <pt x="215" y="210" on="1"/>
        <pt x="215" y="0" on="1"/>
        <pt x="70" y="0" on="1"/>
        <pt x="70" y="700" on="1"/>
      </contour>
      <contour>
        <pt x="215" y="625" on="1"/>
        <pt x="215" y="285" on="1"/>
        <pt x="430" y="285" on="1"/>
        <pt x="509" y="285" on="0"/>
        <pt x="595" y="368" on="0"/>
        <pt x="595" y="455" on="1"/>
        <pt x="595" y="542" on="0"/>
        <pt x="509" y="625" on="0"/>
        <pt x="430" y="625" on="1"/>
      </contour>
    </TTGlyph>
    <TTGlyph name="Racute" xMin="70" yMin="0" xMax="760" yMax="910">
      <component glyphName="R" x="0" y="0" flags="0x204"/>
      <component glyphName="acute" x="269" y="180" flags="0x4"/>
    </TTGlyph>
    <TTGlyph name="Rcaron" xMin="70" yMin="0" xMax="760" yMax="920">
      <component glyphName="R" x="0" y="0" flags="0x204"/>
      <component glyphName="caron" x="159" y="180" flags="0x4"/>
    </TTGlyph>
    <TTGlyph name="Rcommaaccent" xMin="70" yMin="-265" xMax="760" yMax="700">
      <component glyphName="R" x="0" y="0" flags="0x204"/>
      <component glyphName="commaaccent" x="282" y="30" flags="0x4"/>
    </TTGlyph>
    <TTGlyph name="S" xMin="30" yMin="-20" xMax="720" yMax="720">
      <contour>
        <pt x="720" y="185" on="1"/>
        <pt x="720" y="142" on="0"/>
        <pt x="684" y="67" on="0"/>
        <pt x="603" y="12" on="0"/>
        <pt x="474" y="-20" on="0"/>
        <pt x="380" y="-20" on="1"/>
        <pt x="327" y="-20" on="0"/>
        <pt x="226" y="-4" on="0"/>
        <pt x="135" y="26" on="0"/>
        <pt x="58" y="69" on="0"/>
        <pt x="30" y="95" on="1"/>
        <pt x="80" y="155" on="1"/>
        <pt x="137" y="106" on="0"/>
        <pt x="289" y="55" on="0"/>
        <pt x="380" y="55" on="1"/>
        <pt x="481" y="55" on="0"/>
        <pt x="565" y="111" on="0"/>
        <pt x="565" y="160" on="1"/>
        <pt x="565" y="198" on="0"/>
        <pt x="499" y="250" on="0"/>
        <pt x="420" y="275" on="1"/>
        <pt x="230" y="335" on="1"/>
        <pt x="136" y="365" on="0"/>
        <pt x="40" y="458" on="0"/>
        <pt x="40" y="530" on="1"/>
        <pt x="40" y="567" on="0"/>
        <pt x="75" y="636" on="0"/>
        <pt x="149" y="689" on="0"/>
        <pt x="264" y="720" on="0"/>
        <pt x="345" y="720" on="1"/>
        <pt x="394" y="720" on="0"/>
        <pt x="491" y="704" on="0"/>
        <pt x="580" y="674" on="0"/>
        <pt x="657" y="631" on="0"/>
        <pt x="685" y="605" on="1"/>
        <pt x="635" y="545" on="1"/>
        <pt x="578" y="594" on="0"/>
        <pt x="436" y="645" on="0"/>
        <pt x="345" y="645" on="1"/>
        <pt x="270" y="645" on="0"/>
        <pt x="195" y="593" on="0"/>
        <pt x="195" y="555" on="1"/>
        <pt x="195" y="534" on="0"/>
        <pt x="209" y="503" on="0"/>
        <pt x="242" y="476" on="0"/>
        <pt x="296" y="453" on="0"/>
        <pt x="336" y="440" on="1"/>
        <pt x="525" y="380" on="1"/>
        <pt x="616" y="351" on="0"/>
        <pt x="720" y="257" on="0"/>
      </contour>
    </TTGlyph>
    <TTGlyph name="Sacute" xMin="30" yMin="-20" xMax="720" yMax="920">
      <component glyphName="S" x="0" y="0" flags="0x204"/>
      <component glyphName="acute" x="254" y="190" flags="0x4"/>
    </TTGlyph>
    <TTGlyph name="Scaron" xMin="30" yMin="-20" xMax="720" yMax="920">
      <component glyphName="S" x="0" y="0" flags="0x204"/>
      <component glyphName="caron" x="154" y="180" flags="0x4"/>
    </TTGlyph>
    <TTGlyph name="Scedilla" xMin="30" yMin="-240" xMax="720" yMax="720">
      <component glyphName="S" x="0" y="0" flags="0x204"/>
      <component glyphName="cedilla" x="237" y="0" flags="0x4"/>
    </TTGlyph>
    <TTGlyph name="Scommaaccent" xMin="30" yMin="-295" xMax="720" yMax="720">
      <component glyphName="S" x="0" y="0" flags="0x204"/>
      <component glyphName="commaaccent" x="270" y="0" flags="0x4"/>
    </TTGlyph>
    <TTGlyph name="T" xMin="10" yMin="0" xMax="695" yMax="700">
      <contour>
        <pt x="695" y="625" on="1"/>
        <pt x="425" y="625" on="1"/>
        <pt x="425" y="0" on="1"/>
        <pt x="280" y="0" on="1"/>
        <pt x="280" y="625" on="1"/>
        <pt x="10" y="625" on="1"/>
        <pt x="10" y="700" on="1"/>
        <pt x="695" y="700" on="1"/>
      </contour>
    </TTGlyph>
    <TTGlyph name="Tcaron" xMin="10" yMin="0" xMax="695" yMax="920">
      <component glyphName="T" x="0" y="0" flags="0x204"/>
      <component glyphName="caron" x="132" y="180" flags="0x4"/>
    </TTGlyph>
    <TTGlyph name="Tcommaaccent" xMin="10" yMin="-295" xMax="695" yMax="700">
      <component glyphName="T" x="0" y="0" flags="0x204"/>
      <component glyphName="commaaccent" x="235" y="0" flags="0x4"/>
    </TTGlyph>
    <TTGlyph name="Thorn" xMin="70" yMin="-10" xMax="770" yMax="710">
      <contour>
        <pt x="415" y="630" on="1"/>
        <pt x="496" y="630" on="0"/>
        <pt x="627" y="590" on="0"/>
        <pt x="720" y="517" on="0"/>
        <pt x="770" y="414" on="0"/>
        <pt x="770" y="350" on="1"/>
        <pt x="770" y="286" on="0"/>
        <pt x="720" y="183" on="0"/>
        <pt x="627" y="110" on="0"/>
        <pt x="496" y="70" on="0"/>
        <pt x="415" y="70" on="1"/>
        <pt x="215" y="70" on="1"/>
        <pt x="215" y="-10" on="1"/>
        <pt x="70" y="-10" on="1"/>
        <pt x="70" y="710" on="1"/>
        <pt x="215" y="710" on="1"/>
        <pt x="215" y="630" on="1"/>
      </contour>
      <contour>
        <pt x="215" y="555" on="1"/>
        <pt x="215" y="145" on="1"/>
        <pt x="415" y="145" on="1"/>
        <pt x="456" y="145" on="0"/>
        <pt x="529" y="170" on="0"/>
        <pt x="583" y="220" on="0"/>
        <pt x="615" y="297" on="0"/>
        <pt x="615" y="350" on="1"/>
        <pt x="615" y="402" on="0"/>
        <pt x="583" y="480" on="0"/>
        <pt x="529" y="530" on="0"/>
        <pt x="456" y="555" on="0"/>
        <pt x="415" y="555" on="1"/>
      </contour>
    </TTGlyph>
    <TTGlyph name="U" xMin="70" yMin="-20" xMax="790" yMax="700">
      <contour>
        <pt x="430" y="50" on="1"/>
        <pt x="479" y="50" on="0"/>
        <pt x="558" y="77" on="0"/>
        <pt x="614" y="134" on="0"/>
        <pt x="645" y="223" on="0"/>
        <pt x="645" y="285" on="1"/>
        <pt x="645" y="700" on="1"/>
        <pt x="790" y="700" on="1"/>
        <pt x="790" y="285" on="1"/>
        <pt x="790" y="131" on="0"/>
        <pt x="602" y="-20" on="0"/>
        <pt x="430" y="-20" on="1"/>
        <pt x="257" y="-20" on="0"/>
        <pt x="70" y="131" on="0"/>
        <pt x="70" y="285" on="1"/>
        <pt x="70" y="700" on="1"/>
        <pt x="215" y="700" on="1"/>
        <pt x="215" y="285" on="1"/>
        <pt x="215" y="223" on="0"/>
        <pt x="246" y="134" on="0"/>
        <pt x="302" y="77" on="0"/>
        <pt x="381" y="50" on="0"/>
      </contour>
    </TTGlyph>
    <TTGlyph name="Uacute" xMin="70" yMin="-20" xMax="790" yMax="890">
      <component glyphName="U" x="0" y="0" flags="0x204"/>
      <component glyphName="acute" x="329" y="160" flags="0x4"/>
    </TTGlyph>
    <TTGlyph name="Ucircumflex" xMin="70" yMin="-20" xMax="790" yMax="900">
      <component glyphName="U" x="0" y="0" flags="0x204"/>
      <component glyphName="circumflex" x="209" y="160" flags="0x4"/>
    </TTGlyph>
    <TTGlyph name="Udieresis" xMin="70" yMin="-20" xMax="790" yMax="890">
      <component glyphName="U" x="0" y="0" flags="0x204"/>
      <component glyphName="dieresis" x="200" y="160" flags="0x4"/>
    </TTGlyph>
    <TTGlyph name="Ugrave" xMin="70" yMin="-20" xMax="790" yMax="890">
      <component glyphName="U" x="0" y="0" flags="0x204"/>
      <component glyphName="acute" x="530" y="160" scalex="-0.999938964844" scaley="1.0" flags="0x4"/>
    </TTGlyph>
    <TTGlyph name="Uhungarumlaut" xMin="70" yMin="-20" xMax="790" yMax="890">
      <component glyphName="U" x="0" y="0" flags="0x204"/>
      <component glyphName="hungarumlaut" x="234" y="160" flags="0x4"/>
    </TTGlyph>
    <TTGlyph name="Umacron" xMin="70" yMin="-20" xMax="790" yMax="840">
      <component glyphName="U" x="0" y="0" flags="0x204"/>
      <component glyphName="macron" x="230" y="160" flags="0x4"/>
    </TTGlyph>
    <TTGlyph name="Uogonek" xMin="70" yMin="-225" xMax="790" yMax="700">
      <component glyphName="U" x="0" y="0" flags="0x204"/>
      <component glyphName="ogonek" x="290" y="0" flags="0x4"/>
    </TTGlyph>
    <TTGlyph name="Uring" xMin="70" yMin="-20" xMax="790" yMax="940">
      <component glyphName="U" x="0" y="0" flags="0x204"/>
      <component glyphName="ring" x="270" y="140" flags="0x4"/>
    </TTGlyph>
    <TTGlyph name="V" xMin="10" yMin="0" xMax="820" yMax="700">
      <contour>
        <pt x="410" y="85" on="1"/>
        <pt x="420" y="85" on="1"/>
        <pt x="671" y="700" on="1"/>
        <pt x="820" y="700" on="1"/>
        <pt x="535" y="0" on="1"/>
        <pt x="295" y="0" on="1"/>
        <pt x="10" y="700" on="1"/>
        <pt x="159" y="700" on="1"/>
      </contour>
    </TTGlyph>
    <TTGlyph name="W" xMin="20" yMin="0" xMax="1150" yMax="700">
      <contour>
        <pt x="670" y="650" on="1"/>
        <pt x="826" y="95" on="1"/>
        <pt x="836" y="95" on="1"/>
        <pt x="1005" y="700" on="1"/>
        <pt x="1150" y="700" on="1"/>
        <pt x="955" y="0" on="1"/>
        <pt x="740" y="0" on="1"/>
        <pt x="590" y="535" on="1"/>
        <pt x="580" y="535" on="1"/>
        <pt x="430" y="0" on="1"/>
        <pt x="215" y="0" on="1"/>
        <pt x="20" y="700" on="1"/>
        <pt x="165" y="700" on="1"/>
        <pt x="334" y="95" on="1"/>
        <pt x="344" y="95" on="1"/>
        <pt x="500" y="650" on="1"/>
      </contour>
    </TTGlyph>
    <TTGlyph name="X" xMin="0" yMin="0" xMax="765" yMax="700">
      <contour>
        <pt x="467" y="359" on="1"/>
        <pt x="765" y="0" on="1"/>
        <pt x="595" y="0" on="1"/>
        <pt x="382" y="256" on="1"/>
        <pt x="170" y="0" on="1"/>
        <pt x="0" y="0" on="1"/>
        <pt x="297" y="359" on="1"/>
        <pt x="15" y="700" on="1"/>
        <pt x="185" y="700" on="1"/>
        <pt x="382" y="461" on="1"/>
        <pt x="580" y="700" on="1"/>
        <pt x="750" y="700" on="1"/>
      </contour>
    </TTGlyph>
    <TTGlyph name="Y" xMin="0" yMin="0" xMax="795" yMax="700">
      <contour>
        <pt x="470" y="210" on="1"/>
        <pt x="470" y="0" on="1"/>
        <pt x="325" y="0" on="1"/>
        <pt x="325" y="210" on="1"/>
        <pt x="0" y="700" on="1"/>
        <pt x="160" y="700" on="1"/>
        <pt x="395" y="345" on="1"/>
        <pt x="400" y="345" on="1"/>
        <pt x="635" y="700" on="1"/>
        <pt x="795" y="700" on="1"/>
      </contour>
    </TTGlyph>
    <TTGlyph name="Yacute" xMin="0" yMin="0" xMax="795" yMax="890">
      <component glyphName="Y" x="0" y="0" flags="0x204"/>
      <component glyphName="acute" x="297" y="160" flags="0x4"/>
    </TTGlyph>
    <TTGlyph name="Ydieresis" xMin="0" yMin="0" xMax="795" yMax="890">
      <component glyphName="Y" x="0" y="0" flags="0x204"/>
      <component glyphName="dieresis" x="167" y="160" flags="0x4"/>
    </TTGlyph>
    <TTGlyph name="Z" xMin="35" yMin="0" xMax="685" yMax="700">
      <contour>
        <pt x="675" y="615" on="1"/>
        <pt x="210" y="75" on="1"/>
        <pt x="685" y="75" on="1"/>
        <pt x="685" y="0" on="1"/>
        <pt x="35" y="0" on="1"/>
        <pt x="35" y="85" on="1"/>
        <pt x="500" y="625" on="1"/>
        <pt x="45" y="625" on="1"/>
        <pt x="45" y="700" on="1"/>
        <pt x="675" y="700" on="1"/>
      </contour>
    </TTGlyph>
    <TTGlyph name="Zacute" xMin="35" yMin="0" xMax="685" yMax="910">
      <component glyphName="Z" x="0" y="0" flags="0x204"/>
      <component glyphName="acute" x="259" y="180" flags="0x4"/>
    </TTGlyph>
    <TTGlyph name="Zcaron" xMin="35" yMin="0" xMax="685" yMax="920">
      <component glyphName="Z" x="0" y="0" flags="0x204"/>
      <component glyphName="caron" x="139" y="180" flags="0x4"/>
    </TTGlyph>
    <TTGlyph name="Zdotaccent" xMin="35" yMin="0" xMax="685" yMax="910">
      <component glyphName="Z" x="0" y="0" flags="0x204"/>
      <component glyphName="dotaccent" x="245" y="180" flags="0x4"/>
    </TTGlyph>
    <TTGlyph name="a" xMin="35" yMin="0" xMax="580" yMax="540">
      <contour>
        <pt x="185" y="165" on="1"/>
        <pt x="185" y="70" on="0"/>
        <pt x="300" y="70" on="1"/>
        <pt x="440" y="70" on="1"/>
        <pt x="440" y="260" on="1"/>
        <pt x="300" y="260" on="1"/>
        <pt x="185" y="260" on="0"/>
      </contour>
      <contour>
        <pt x="440" y="330" on="1"/>
        <pt x="440" y="402" on="0"/>
        <pt x="365" y="470" on="0"/>
        <pt x="305" y="470" on="1"/>
        <pt x="260" y="470" on="0"/>
        <pt x="174" y="443" on="0"/>
        <pt x="140" y="420" on="1"/>
        <pt x="105" y="480" on="1"/>
        <pt x="127" y="495" on="0"/>
        <pt x="180" y="517" on="0"/>
        <pt x="236" y="532" on="0"/>
        <pt x="291" y="540" on="0"/>
        <pt x="315" y="540" on="1"/>
        <pt x="379" y="540" on="0"/>
        <pt x="477" y="510" on="0"/>
        <pt x="545" y="454" on="0"/>
        <pt x="580" y="377" on="0"/>
        <pt x="580" y="330" on="1"/>
        <pt x="580" y="0" on="1"/>
        <pt x="300" y="0" on="1"/>
        <pt x="164" y="0" on="0"/>
        <pt x="35" y="82" on="0"/>
        <pt x="35" y="165" on="1"/>
        <pt x="35" y="248" on="0"/>
        <pt x="164" y="330" on="0"/>
        <pt x="300" y="330" on="1"/>
      </contour>
    </TTGlyph>
    <TTGlyph name="aacute" xMin="35" yMin="0" xMax="580" yMax="730">
      <component glyphName="a" x="0" y="0" flags="0x204"/>
      <component glyphName="acute" x="222" y="0" flags="0x4"/>
    </TTGlyph>
    <TTGlyph name="abreve" xMin="35" yMin="0" xMax="580" yMax="745">
      <contour>
        <pt x="340" y="590" on="1"/>
        <pt x="246" y="590" on="0"/>
        <pt x="150" y="677" on="0"/>
        <pt x="150" y="745" on="1"/>
        <pt x="265" y="745" on="1"/>
        <pt x="265" y="707" on="0"/>
        <pt x="310" y="660" on="0"/>
        <pt x="340" y="660" on="1"/>
        <pt x="370" y="660" on="0"/>
        <pt x="415" y="707" on="0"/>
        <pt x="415" y="745" on="1"/>
        <pt x="530" y="745" on="1"/>
        <pt x="530" y="677" on="0"/>
        <pt x="434" y="590" on="0"/>
      </contour>
      <contour>
        <pt x="185" y="165" on="1"/>
        <pt x="185" y="70" on="0"/>
        <pt x="300" y="70" on="1"/>
        <pt x="440" y="70" on="1"/>
        <pt x="440" y="260" on="1"/>
        <pt x="300" y="260" on="1"/>
        <pt x="185" y="260" on="0"/>
      </contour>
      <contour>
        <pt x="440" y="330" on="1"/>
        <pt x="440" y="402" on="0"/>
        <pt x="365" y="470" on="0"/>
        <pt x="305" y="470" on="1"/>
        <pt x="260" y="470" on="0"/>
        <pt x="174" y="443" on="0"/>
        <pt x="140" y="420" on="1"/>
        <pt x="105" y="480" on="1"/>
        <pt x="127" y="495" on="0"/>
        <pt x="180" y="517" on="0"/>
        <pt x="236" y="532" on="0"/>
        <pt x="291" y="540" on="0"/>
        <pt x="315" y="540" on="1"/>
        <pt x="379" y="540" on="0"/>
        <pt x="477" y="510" on="0"/>
        <pt x="545" y="454" on="0"/>
        <pt x="580" y="377" on="0"/>
        <pt x="580" y="330" on="1"/>
        <pt x="580" y="0" on="1"/>
        <pt x="300" y="0" on="1"/>
        <pt x="164" y="0" on="0"/>
        <pt x="35" y="82" on="0"/>
        <pt x="35" y="165" on="1"/>
        <pt x="35" y="248" on="0"/>
        <pt x="164" y="330" on="0"/>
        <pt x="300" y="330" on="1"/>
      </contour>
    </TTGlyph>
    <TTGlyph name="acircumflex" xMin="35" yMin="0" xMax="580" yMax="750">
      <component glyphName="a" x="0" y="0" flags="0x204"/>
      <component glyphName="circumflex" x="112" y="10" flags="0x4"/>
    </TTGlyph>
    <TTGlyph name="acute" xMin="40" yMin="580" xMax="241" yMax="730">
      <contour>
        <pt x="241" y="730" on="1"/>
        <pt x="135" y="580" on="1"/>
        <pt x="40" y="580" on="1"/>
        <pt x="100" y="730" on="1"/>
      </contour>
    </TTGlyph>
    <TTGlyph name="adieresis" xMin="35" yMin="0" xMax="580" yMax="740">
      <component glyphName="a" x="0" y="0" flags="0x204"/>
      <component glyphName="dieresis" x="102" y="10" flags="0x4"/>
    </TTGlyph>
    <TTGlyph name="ae" xMin="35" yMin="-20" xMax="1020" yMax="540">
      <contour>
        <pt x="765" y="50" on="1"/>
        <pt x="814" y="50" on="0"/>
        <pt x="899" y="84" on="0"/>
        <pt x="940" y="115" on="1"/>
        <pt x="980" y="55" on="1"/>
        <pt x="961" y="38" on="0"/>
        <pt x="910" y="10" on="0"/>
        <pt x="851" y="-9" on="0"/>
        <pt x="787" y="-20" on="0"/>
        <pt x="755" y="-20" on="1"/>
        <pt x="672" y="-20" on="0"/>
        <pt x="558" y="28" on="0"/>
        <pt x="520" y="70" on="1"/>
        <pt x="486" y="28" on="0"/>
        <pt x="372" y="-20" on="0"/>
        <pt x="300" y="-20" on="1"/>
        <pt x="172" y="-20" on="0"/>
        <pt x="35" y="62" on="0"/>
        <pt x="35" y="145" on="1"/>
        <pt x="35" y="228" on="0"/>
        <pt x="172" y="310" on="0"/>
        <pt x="300" y="310" on="1"/>
        <pt x="440" y="310" on="1"/>
        <pt x="440" y="396" on="0"/>
        <pt x="365" y="470" on="0"/>
        <pt x="305" y="470" on="1"/>
        <pt x="260" y="470" on="0"/>
        <pt x="174" y="443" on="0"/>
        <pt x="140" y="420" on="1"/>
        <pt x="105" y="480" on="1"/>
        <pt x="127" y="495" on="0"/>
        <pt x="180" y="517" on="0"/>
        <pt x="236" y="532" on="0"/>
        <pt x="291" y="540" on="0"/>
        <pt x="315" y="540" on="1"/>
        <pt x="387" y="540" on="0"/>
        <pt x="490" y="493" on="0"/>
        <pt x="520" y="455" on="1"/>
        <pt x="554" y="493" on="0"/>
        <pt x="655" y="540" on="0"/>
        <pt x="730" y="540" on="1"/>
        <pt x="794" y="540" on="0"/>
        <pt x="900" y="504" on="0"/>
        <pt x="977" y="438" on="0"/>
        <pt x="1020" y="346" on="0"/>
        <pt x="1020" y="290" on="1"/>
        <pt x="1020" y="220" on="1"/>
        <pt x="592" y="220" on="1"/>
        <pt x="595" y="173" on="0"/>
        <pt x="623" y="108" on="0"/>
        <pt x="669" y="68" on="0"/>
        <pt x="729" y="50" on="0"/>
      </contour>
      <contour>
        <pt x="730" y="475" on="1"/>
        <pt x="702" y="475" on="0"/>
        <pt x="653" y="452" on="0"/>
        <pt x="615" y="406" on="0"/>
        <pt x="592" y="337" on="0"/>
        <pt x="591" y="290" on="1"/>
        <pt x="870" y="290" on="1"/>
        <pt x="870" y="384" on="0"/>
        <pt x="790" y="475" on="0"/>
      </contour>
      <contour>
        <pt x="440" y="240" on="1"/>
        <pt x="300" y="240" on="1"/>
        <pt x="251" y="240" on="0"/>
        <pt x="185" y="194" on="0"/>
        <pt x="185" y="144" on="1"/>
        <pt x="185" y="120" on="0"/>
        <pt x="202" y="85" on="0"/>
        <pt x="231" y="61" on="0"/>
        <pt x="269" y="50" on="0"/>
        <pt x="290" y="50" on="1"/>
        <pt x="322" y="50" on="0"/>
        <pt x="377" y="72" on="0"/>
        <pt x="417" y="113" on="0"/>
        <pt x="440" y="172" on="0"/>
        <pt x="440" y="210" on="1"/>
      </contour>
    </TTGlyph>
    <TTGlyph name="afii10017" xMin="10" yMin="0" xMax="810" yMax="700">
      <contour>
        <pt x="255" y="245" on="1"/>
        <pt x="565" y="245" on="1"/>
        <pt x="415" y="615" on="1"/>
        <pt x="405" y="615" on="1"/>
      </contour>
      <contour>
        <pt x="525" y="700" on="1"/>
        <pt x="810" y="0" on="1"/>
        <pt x="666" y="0" on="1"/>
        <pt x="600" y="170" on="1"/>
        <pt x="220" y="170" on="1"/>
        <pt x="154" y="0" on="1"/>
        <pt x="10" y="0" on="1"/>
        <pt x="295" y="700" on="1"/>
      </contour>
    </TTGlyph>
    <TTGlyph name="afii10018" xMin="70" yMin="0" xMax="750" yMax="700">
      <contour>
        <pt x="440" y="420" on="1"/>
        <pt x="517" y="420" on="0"/>
        <pt x="633" y="390" on="0"/>
        <pt x="711" y="334" on="0"/>
        <pt x="750" y="257" on="0"/>
        <pt x="750" y="210" on="1"/>
        <pt x="750" y="163" on="0"/>
        <pt x="711" y="86" on="0"/>
        <pt x="633" y="30" on="0"/>
        <pt x="517" y="0" on="0"/>
        <pt x="440" y="0" on="1"/>
        <pt x="70" y="0" on="1"/>
        <pt x="70" y="700" on="1"/>
        <pt x="670" y="700" on="1"/>
        <pt x="670" y="625" on="1"/>
        <pt x="215" y="625" on="1"/>
        <pt x="215" y="420" on="1"/>
      </contour>
      <contour>
        <pt x="215" y="345" on="1"/>
        <pt x="215" y="75" on="1"/>
        <pt x="440" y="75" on="1"/>
        <pt x="512" y="75" on="0"/>
        <pt x="595" y="146" on="0"/>
        <pt x="595" y="210" on="1"/>
        <pt x="595" y="274" on="0"/>
        <pt x="512" y="345" on="0"/>
        <pt x="440" y="345" on="1"/>
      </contour>
    </TTGlyph>
    <TTGlyph name="afii10019" xMin="70" yMin="0" xMax="750" yMax="700">
      <contour>
        <pt x="70" y="700" on="1"/>
        <pt x="410" y="700" on="1"/>
        <pt x="487" y="700" on="0"/>
        <pt x="600" y="673" on="0"/>
        <pt x="674" y="624" on="0"/>
        <pt x="710" y="556" on="0"/>
        <pt x="710" y="515" on="1"/>
        <pt x="710" y="462" on="0"/>
        <pt x="650" y="384" on="0"/>
        <pt x="590" y="365" on="1"/>
        <pt x="665" y="350" on="0"/>
        <pt x="750" y="263" on="0"/>
        <pt x="750" y="195" on="1"/>
        <pt x="750" y="105" on="0"/>
        <pt x="601" y="0" on="0"/>
        <pt x="440" y="0" on="1"/>
        <pt x="70" y="0" on="1"/>
      </contour>
      <contour>
        <pt x="215" y="320" on="1"/>
        <pt x="215" y="75" on="1"/>
        <pt x="440" y="75" on="1"/>
        <pt x="515" y="75" on="0"/>
        <pt x="595" y="135" on="0"/>
        <pt x="595" y="195" on="1"/>
        <pt x="595" y="259" on="0"/>
        <pt x="515" y="320" on="0"/>
        <pt x="440" y="320" on="1"/>
      </contour>
      <contour>
        <pt x="410" y="395" on="1"/>
        <pt x="555" y="395" on="0"/>
        <pt x="555" y="515" on="1"/>
        <pt x="555" y="568" on="0"/>
        <pt x="482" y="625" on="0"/>
        <pt x="410" y="625" on="1"/>
        <pt x="215" y="625" on="1"/>
        <pt x="215" y="395" on="1"/>
      </contour>
    </TTGlyph>
    <TTGlyph name="afii10020" xMin="70" yMin="0" xMax="650" yMax="700">
      <contour>
        <pt x="215" y="625" on="1"/>
        <pt x="215" y="0" on="1"/>
        <pt x="70" y="0" on="1"/>
        <pt x="70" y="700" on="1"/>
        <pt x="650" y="700" on="1"/>
        <pt x="650" y="625" on="1"/>
      </contour>
    </TTGlyph>
    <TTGlyph name="afii10021" xMin="10" yMin="-160" xMax="830" yMax="700">
      <contour>
        <pt x="60" y="75" on="1"/>
        <pt x="90" y="75" on="0"/>
        <pt x="141" y="131" on="0"/>
        <pt x="145" y="180" on="1"/>
        <pt x="185" y="700" on="1"/>
        <pt x="745" y="700" on="1"/>
        <pt x="745" y="75" on="1"/>
        <pt x="830" y="75" on="1"/>
        <pt x="830" y="-160" on="1"/>
        <pt x="710" y="-160" on="1"/>
        <pt x="690" y="0" on="1"/>
        <pt x="150" y="0" on="1"/>
        <pt x="130" y="-160" on="1"/>
        <pt x="10" y="-160" on="1"/>
        <pt x="10" y="75" on="1"/>
      </contour>
      <contour>
        <pt x="285" y="180" on="1"/>
        <pt x="283" y="154" on="0"/>
        <pt x="261" y="114" on="0"/>
        <pt x="248" y="101" on="1"/>
        <pt x="233" y="85" on="0"/>
        <pt x="215" y="75" on="1"/>
        <pt x="600" y="75" on="1"/>
        <pt x="600" y="625" on="1"/>
        <pt x="320" y="625" on="1"/>
      </contour>
    </TTGlyph>
    <TTGlyph name="afii10022" xMin="70" yMin="0" xMax="680" yMax="700">
      <contour>
        <pt x="215" y="625" on="1"/>
        <pt x="215" y="395" on="1"/>
        <pt x="580" y="395" on="1"/>
        <pt x="580" y="320" on="1"/>
        <pt x="215" y="320" on="1"/>
        <pt x="215" y="75" on="1"/>
        <pt x="680" y="75" on="1"/>
        <pt x="680" y="0" on="1"/>
        <pt x="70" y="0" on="1"/>
        <pt x="70" y="700" on="1"/>
        <pt x="680" y="700" on="1"/>
        <pt x="680" y="625" on="1"/>
      </contour>
    </TTGlyph>
    <TTGlyph name="afii10023" xMin="70" yMin="0" xMax="680" yMax="920">
      <contour>
        <pt x="215" y="625" on="1"/>
        <pt x="215" y="395" on="1"/>
        <pt x="580" y="395" on="1"/>
        <pt x="580" y="320" on="1"/>
        <pt x="215" y="320" on="1"/>
        <pt x="215" y="75" on="1"/>
        <pt x="680" y="75" on="1"/>
        <pt x="680" y="0" on="1"/>
        <pt x="70" y="0" on="1"/>
        <pt x="70" y="700" on="1"/>
        <pt x="680" y="700" on="1"/>
        <pt x="680" y="625" on="1"/>
      </contour>
      <contour>
        <pt x="335" y="845" on="1"/>
        <pt x="335" y="815" on="0"/>
        <pt x="294" y="770" on="0"/>
        <pt x="260" y="770" on="1"/>
        <pt x="226" y="770" on="0"/>
        <pt x="185" y="815" on="0"/>
        <pt x="185" y="845" on="1"/>
        <pt x="185" y="875" on="0"/>
        <pt x="226" y="920" on="0"/>
        <pt x="260" y="920" on="1"/>
        <pt x="293" y="920" on="0"/>
        <pt x="335" y="875" on="0"/>
      </contour>
      <contour>
        <pt x="565" y="845" on="1"/>
        <pt x="565" y="815" on="0"/>
        <pt x="524" y="770" on="0"/>
        <pt x="490" y="770" on="1"/>
        <pt x="456" y="770" on="0"/>
        <pt x="415" y="815" on="0"/>
        <pt x="415" y="845" on="1"/>
        <pt x="415" y="875" on="0"/>
        <pt x="456" y="920" on="0"/>
        <pt x="490" y="920" on="1"/>
        <pt x="523" y="920" on="0"/>
        <pt x="565" y="875" on="0"/>
      </contour>
    </TTGlyph>
    <TTGlyph name="afii10024" xMin="10" yMin="0" xMax="1135" yMax="700">
      <contour>
        <pt x="500" y="700" on="1"/>
        <pt x="645" y="700" on="1"/>
        <pt x="645" y="385" on="1"/>
        <pt x="780" y="385" on="1"/>
        <pt x="960" y="700" on="1"/>
        <pt x="1120" y="700" on="1"/>
        <pt x="920" y="355" on="1"/>
        <pt x="1135" y="0" on="1"/>
        <pt x="970" y="0" on="1"/>
        <pt x="785" y="310" on="1"/>
        <pt x="645" y="310" on="1"/>
        <pt x="645" y="0" on="1"/>
        <pt x="500" y="0" on="1"/>
        <pt x="500" y="310" on="1"/>
        <pt x="360" y="310" on="1"/>
        <pt x="175" y="0" on="1"/>
        <pt x="10" y="0" on="1"/>
        <pt x="225" y="355" on="1"/>
        <pt x="25" y="700" on="1"/>
        <pt x="185" y="700" on="1"/>
        <pt x="365" y="385" on="1"/>
        <pt x="500" y="385" on="1"/>
      </contour>
    </TTGlyph>
    <TTGlyph name="afii10025" xMin="20" yMin="-20" xMax="700" yMax="720">
      <contour>
        <pt x="350" y="645" on="1"/>
        <pt x="278" y="645" on="0"/>
        <pt x="153" y="604" on="0"/>
        <pt x="96" y="555" on="1"/>
        <pt x="51" y="615" on="1"/>
        <pt x="108" y="664" on="0"/>
        <pt x="266" y="720" on="0"/>
        <pt x="360" y="720" on="1"/>
        <pt x="437" y="720" on="0"/>
        <pt x="553" y="692" on="0"/>
        <pt x="631" y="642" on="0"/>
        <pt x="670" y="574" on="0"/>
        <pt x="670" y="535" on="1"/>
        <pt x="670" y="471" on="0"/>
        <pt x="608" y="388" on="0"/>
        <pt x="540" y="365" on="1"/>
        <pt x="615" y="346" on="0"/>
        <pt x="700" y="257" on="0"/>
        <pt x="700" y="185" on="1"/>
        <pt x="700" y="142" on="0"/>
        <pt x="659" y="67" on="0"/>
        <pt x="572" y="12" on="0"/>
        <pt x="436" y="-20" on="0"/>
        <pt x="340" y="-20" on="1"/>
        <pt x="242" y="-20" on="0"/>
        <pt x="77" y="42" on="0"/>
        <pt x="20" y="95" on="1"/>
        <pt x="70" y="155" on="1"/>
        <pt x="127" y="102" on="0"/>
        <pt x="255" y="55" on="0"/>
        <pt x="330" y="55" on="1"/>
        <pt x="388" y="55" on="0"/>
        <pt x="470" y="76" on="0"/>
        <pt x="521" y="114" on="0"/>
        <pt x="545" y="165" on="0"/>
        <pt x="545" y="195" on="1"/>
        <pt x="545" y="255" on="0"/>
        <pt x="469" y="320" on="0"/>
        <pt x="390" y="320" on="1"/>
        <pt x="180" y="320" on="1"/>
        <pt x="180" y="395" on="1"/>
        <pt x="370" y="395" on="1"/>
        <pt x="515" y="395" on="0"/>
        <pt x="515" y="525" on="1"/>
        <pt x="515" y="578" on="0"/>
        <pt x="429" y="645" on="0"/>
      </contour>
    </TTGlyph>
    <TTGlyph name="afii10026" xMin="70" yMin="0" xMax="790" yMax="700">
      <contour>
        <pt x="645" y="0" on="1"/>
        <pt x="645" y="570" on="1"/>
        <pt x="635" y="570" on="1"/>
        <pt x="260" y="0" on="1"/>
        <pt x="70" y="0" on="1"/>
        <pt x="70" y="700" on="1"/>
        <pt x="215" y="700" on="1"/>
        <pt x="215" y="130" on="1"/>
        <pt x="225" y="130" on="1"/>
        <pt x="600" y="700" on="1"/>
        <pt x="790" y="700" on="1"/>
        <pt x="790" y="0" on="1"/>
      </contour>
    </TTGlyph>
    <TTGlyph name="afii10027" xMin="70" yMin="0" xMax="790" yMax="920">
      <contour>
        <pt x="645" y="0" on="1"/>
        <pt x="645" y="570" on="1"/>
        <pt x="635" y="570" on="1"/>
        <pt x="260" y="0" on="1"/>
        <pt x="70" y="0" on="1"/>
        <pt x="70" y="700" on="1"/>
        <pt x="215" y="700" on="1"/>
        <pt x="215" y="130" on="1"/>
        <pt x="225" y="130" on="1"/>
        <pt x="600" y="700" on="1"/>
        <pt x="790" y="700" on="1"/>
        <pt x="790" y="0" on="1"/>
      </contour>
      <contour>
        <pt x="420" y="755" on="1"/>
        <pt x="315" y="755" on="0"/>
        <pt x="225" y="845" on="0"/>
        <pt x="225" y="920" on="1"/>
        <pt x="340" y="920" on="1"/>
        <pt x="340" y="875" on="0"/>
        <pt x="386" y="835" on="0"/>
        <pt x="420" y="835" on="1"/>
        <pt x="454" y="835" on="0"/>
        <pt x="500" y="875" on="0"/>
        <pt x="500" y="920" on="1"/>
        <pt x="615" y="920" on="1"/>
        <pt x="615" y="845" on="0"/>
        <pt x="525" y="755" on="0"/>
      </contour>
    </TTGlyph>
    <TTGlyph name="afii10028" xMin="70" yMin="0" xMax="785" yMax="700">
      <contour>
        <pt x="520" y="355" on="1"/>
        <pt x="785" y="0" on="1"/>
        <pt x="620" y="0" on="1"/>
        <pt x="390" y="310" on="1"/>
        <pt x="215" y="310" on="1"/>
        <pt x="215" y="0" on="1"/>
        <pt x="70" y="0" on="1"/>
        <pt x="70" y="700" on="1"/>
        <pt x="215" y="700" on="1"/>
        <pt x="215" y="385" on="1"/>
        <pt x="380" y="385" on="1"/>
        <pt x="610" y="700" on="1"/>
        <pt x="770" y="700" on="1"/>
      </contour>
    </TTGlyph>
    <TTGlyph name="afii10029" xMin="20" yMin="-15" xMax="760" yMax="700">
      <contour>
        <pt x="20" y="60" on="1"/>
        <pt x="50" y="60" on="1"/>
        <pt x="80" y="60" on="0"/>
        <pt x="126" y="110" on="0"/>
        <pt x="130" y="170" on="1"/>
        <pt x="165" y="700" on="1"/>
        <pt x="760" y="700" on="1"/>
        <pt x="760" y="0" on="1"/>
        <pt x="615" y="0" on="1"/>
        <pt x="615" y="625" on="1"/>
        <pt x="300" y="625" on="1"/>
        <pt x="270" y="170" on="1"/>
        <pt x="263" y="72" on="0"/>
        <pt x="168" y="-15" on="0"/>
        <pt x="85" y="-15" on="1"/>
        <pt x="59" y="-15" on="0"/>
        <pt x="39" y="-10" on="1"/>
        <pt x="28" y="-8" on="0"/>
        <pt x="20" y="-5" on="1"/>
      </contour>
    </TTGlyph>
    <TTGlyph name="afii10030" xMin="70" yMin="0" xMax="1030" yMax="700">
      <contour>
        <pt x="545" y="100" on="1"/>
        <pt x="555" y="100" on="1"/>
        <pt x="815" y="700" on="1"/>
        <pt x="1030" y="700" on="1"/>
        <pt x="1030" y="0" on="1"/>
        <pt x="885" y="0" on="1"/>
        <pt x="885" y="560" on="1"/>
        <pt x="875" y="560" on="1"/>
        <pt x="635" y="0" on="1"/>
        <pt x="465" y="0" on="1"/>
        <pt x="225" y="560" on="1"/>
        <pt x="215" y="560" on="1"/>
        <pt x="215" y="0" on="1"/>
        <pt x="70" y="0" on="1"/>
        <pt x="70" y="700" on="1"/>
        <pt x="285" y="700" on="1"/>
      </contour>
    </TTGlyph>
    <TTGlyph name="afii10031" xMin="70" yMin="0" xMax="770" yMax="700">
      <contour>
        <pt x="770" y="700" on="1"/>
        <pt x="770" y="0" on="1"/>
        <pt x="625" y="0" on="1"/>
        <pt x="625" y="305" on="1"/>
        <pt x="215" y="305" on="1"/>
        <pt x="215" y="0" on="1"/>
        <pt x="70" y="0" on="1"/>
        <pt x="70" y="700" on="1"/>
        <pt x="215" y="700" on="1"/>
        <pt x="215" y="380" on="1"/>
        <pt x="625" y="380" on="1"/>
        <pt x="625" y="700" on="1"/>
      </contour>
    </TTGlyph>
    <TTGlyph name="afii10032" xMin="50" yMin="-20" xMax="850" yMax="720">
      <contour>
        <pt x="450" y="650" on="1"/>
        <pt x="399" y="650" on="0"/>
        <pt x="310" y="614" on="0"/>
        <pt x="244" y="540" on="0"/>
        <pt x="205" y="427" on="0"/>
        <pt x="205" y="350" on="1"/>
        <pt x="205" y="273" on="0"/>
        <pt x="244" y="160" on="0"/>
        <pt x="310" y="86" on="0"/>
        <pt x="399" y="50" on="0"/>
        <pt x="450" y="50" on="1"/>
        <pt x="501" y="50" on="0"/>
        <pt x="590" y="86" on="0"/>
        <pt x="656" y="160" on="0"/>
        <pt x="695" y="273" on="0"/>
        <pt x="695" y="350" on="1"/>
        <pt x="695" y="427" on="0"/>
        <pt x="656" y="540" on="0"/>
        <pt x="590" y="614" on="0"/>
        <pt x="501" y="650" on="0"/>
      </contour>
      <contour>
        <pt x="450" y="720" on="1"/>
        <pt x="540" y="720" on="0"/>
        <pt x="687" y="672" on="0"/>
        <pt x="792" y="578" on="0"/>
        <pt x="850" y="440" on="0"/>
        <pt x="850" y="350" on="1"/>
        <pt x="850" y="260" on="0"/>
        <pt x="792" y="122" on="0"/>
        <pt x="687" y="28" on="0"/>
        <pt x="540" y="-20" on="0"/>
        <pt x="450" y="-20" on="1"/>
        <pt x="360" y="-20" on="0"/>
        <pt x="212" y="28" on="0"/>
        <pt x="107" y="122" on="0"/>
        <pt x="50" y="260" on="0"/>
        <pt x="50" y="350" on="1"/>
        <pt x="50" y="440" on="0"/>
        <pt x="107" y="578" on="0"/>
        <pt x="212" y="672" on="0"/>
        <pt x="360" y="720" on="0"/>
      </contour>
    </TTGlyph>
    <TTGlyph name="afii10033" xMin="70" yMin="0" xMax="770" yMax="700">
      <contour>
        <pt x="770" y="700" on="1"/>
        <pt x="770" y="0" on="1"/>
        <pt x="625" y="0" on="1"/>
        <pt x="625" y="625" on="1"/>
        <pt x="215" y="625" on="1"/>
        <pt x="215" y="0" on="1"/>
        <pt x="70" y="0" on="1"/>
        <pt x="70" y="700" on="1"/>
      </contour>
    </TTGlyph>
    <TTGlyph name="afii10034" xMin="70" yMin="0" xMax="750" yMax="700">
      <contour>
        <pt x="430" y="700" on="1"/>
        <pt x="505" y="700" on="0"/>
        <pt x="624" y="667" on="0"/>
        <pt x="706" y="604" on="0"/>
        <pt x="750" y="513" on="0"/>
        <pt x="750" y="455" on="1"/>
        <pt x="750" y="397" on="0"/>
        <pt x="706" y="306" on="0"/>
        <pt x="624" y="243" on="0"/>
        <pt x="505" y="210" on="0"/>
        <pt x="430" y="210" on="1"/>
        <pt x="215" y="210" on="1"/>
        <pt x="215" y="0" on="1"/>
        <pt x="70" y="0" on="1"/>
        <pt x="70" y="700" on="1"/>
      </contour>
      <contour>
        <pt x="215" y="625" on="1"/>
        <pt x="215" y="285" on="1"/>
        <pt x="430" y="285" on="1"/>
        <pt x="509" y="285" on="0"/>
        <pt x="596" y="368" on="0"/>
        <pt x="596" y="455" on="1"/>
        <pt x="596" y="542" on="0"/>
        <pt x="509" y="625" on="0"/>
        <pt x="430" y="625" on="1"/>
      </contour>
    </TTGlyph>
    <TTGlyph name="afii10035" xMin="50" yMin="-20" xMax="770" yMax="720">
      <contour>
        <pt x="470" y="55" on="1"/>
        <pt x="538" y="55" on="0"/>
        <pt x="663" y="102" on="0"/>
        <pt x="720" y="155" on="1"/>
        <pt x="770" y="95" on="1"/>
        <pt x="713" y="42" on="0"/>
        <pt x="551" y="-20" on="0"/>
        <pt x="460" y="-20" on="1"/>
        <pt x="366" y="-20" on="0"/>
        <pt x="215" y="28" on="0"/>
        <pt x="108" y="122" on="0"/>
        <pt x="50" y="260" on="0"/>
        <pt x="50" y="350" on="1"/>
        <pt x="50" y="440" on="0"/>
        <pt x="107" y="578" on="0"/>
        <pt x="212" y="672" on="0"/>
        <pt x="360" y="720" on="0"/>
        <pt x="450" y="720" on="1"/>
        <pt x="541" y="720" on="0"/>
        <pt x="703" y="658" on="0"/>
        <pt x="760" y="605" on="1"/>
        <pt x="710" y="545" on="1"/>
        <pt x="653" y="598" on="0"/>
        <pt x="528" y="645" on="0"/>
        <pt x="460" y="645" on="1"/>
        <pt x="406" y="645" on="0"/>
        <pt x="312" y="610" on="0"/>
        <pt x="244" y="538" on="0"/>
        <pt x="205" y="427" on="0"/>
        <pt x="205" y="350" on="1"/>
        <pt x="205" y="273" on="0"/>
        <pt x="244" y="162" on="0"/>
        <pt x="315" y="90" on="0"/>
        <pt x="412" y="55" on="0"/>
      </contour>
    </TTGlyph>
    <TTGlyph name="afii10036" xMin="10" yMin="0" xMax="695" yMax="700">
      <contour>
        <pt x="695" y="625" on="1"/>
        <pt x="425" y="625" on="1"/>
        <pt x="425" y="0" on="1"/>
        <pt x="280" y="0" on="1"/>
        <pt x="280" y="625" on="1"/>
        <pt x="10" y="625" on="1"/>
        <pt x="10" y="700" on="1"/>
        <pt x="695" y="700" on="1"/>
      </contour>
    </TTGlyph>
    <TTGlyph name="afii10037" xMin="0" yMin="0" xMax="785" yMax="700">
      <contour>
        <pt x="785" y="700" on="1"/>
        <pt x="410" y="0" on="1"/>
        <pt x="255" y="0" on="1"/>
        <pt x="365" y="205" on="1"/>
        <pt x="285" y="205" on="1"/>
        <pt x="0" y="700" on="1"/>
        <pt x="165" y="700" on="1"/>
        <pt x="400" y="290" on="1"/>
        <pt x="410" y="290" on="1"/>
        <pt x="630" y="700" on="1"/>
      </contour>
    </TTGlyph>
    <TTGlyph name="afii10038" xMin="40" yMin="-40" xMax="955" yMax="740">
      <contour>
        <pt x="570" y="-40" on="1"/>
        <pt x="425" y="-40" on="1"/>
        <pt x="425" y="40" on="1"/>
        <pt x="395" y="40" on="1"/>
        <pt x="314" y="40" on="0"/>
        <pt x="183" y="81" on="0"/>
        <pt x="90" y="159" on="0"/>
        <pt x="40" y="275" on="0"/>
        <pt x="40" y="350" on="1"/>
        <pt x="40" y="425" on="0"/>
        <pt x="90" y="541" on="0"/>
        <pt x="183" y="619" on="0"/>
        <pt x="314" y="660" on="0"/>
        <pt x="395" y="660" on="1"/>
        <pt x="425" y="660" on="1"/>
        <pt x="425" y="740" on="1"/>
        <pt x="570" y="740" on="1"/>
        <pt x="570" y="660" on="1"/>
        <pt x="600" y="660" on="1"/>
        <pt x="681" y="660" on="0"/>
        <pt x="812" y="619" on="0"/>
        <pt x="905" y="541" on="0"/>
        <pt x="955" y="425" on="0"/>
        <pt x="955" y="350" on="1"/>
        <pt x="955" y="275" on="0"/>
        <pt x="905" y="159" on="0"/>
        <pt x="812" y="81" on="0"/>
        <pt x="681" y="40" on="0"/>
        <pt x="600" y="40" on="1"/>
        <pt x="570" y="40" on="1"/>
      </contour>
      <contour>
        <pt x="570" y="115" on="1"/>
        <pt x="600" y="115" on="1"/>
        <pt x="641" y="115" on="0"/>
        <pt x="714" y="141" on="0"/>
        <pt x="768" y="197" on="0"/>
        <pt x="800" y="286" on="0"/>
        <pt x="800" y="350" on="1"/>
        <pt x="800" y="414" on="0"/>
        <pt x="768" y="503" on="0"/>
        <pt x="714" y="559" on="0"/>
        <pt x="641" y="585" on="0"/>
        <pt x="600" y="585" on="1"/>
        <pt x="570" y="585" on="1"/>
      </contour>
      <contour>
        <pt x="425" y="585" on="1"/>
        <pt x="395" y="585" on="1"/>
        <pt x="354" y="585" on="0"/>
        <pt x="281" y="559" on="0"/>
        <pt x="227" y="503" on="0"/>
        <pt x="195" y="414" on="0"/>
        <pt x="195" y="350" on="1"/>
        <pt x="195" y="286" on="0"/>
        <pt x="227" y="197" on="0"/>
        <pt x="281" y="141" on="0"/>
        <pt x="354" y="115" on="0"/>
        <pt x="395" y="115" on="1"/>
        <pt x="425" y="115" on="1"/>
      </contour>
    </TTGlyph>
    <TTGlyph name="afii10039" xMin="0" yMin="0" xMax="765" yMax="700">
      <contour>
        <pt x="467" y="359" on="1"/>
        <pt x="765" y="0" on="1"/>
        <pt x="595" y="0" on="1"/>
        <pt x="382" y="256" on="1"/>
        <pt x="170" y="0" on="1"/>
        <pt x="0" y="0" on="1"/>
        <pt x="297" y="359" on="1"/>
        <pt x="15" y="700" on="1"/>
        <pt x="185" y="700" on="1"/>
        <pt x="382" y="461" on="1"/>
        <pt x="580" y="700" on="1"/>
        <pt x="750" y="700" on="1"/>
      </contour>
    </TTGlyph>
    <TTGlyph name="afii10040" xMin="70" yMin="-160" xMax="835" yMax="700">
      <contour>
        <pt x="835" y="75" on="1"/>
        <pt x="835" y="-160" on="1"/>
        <pt x="715" y="-160" on="1"/>
        <pt x="695" y="0" on="1"/>
        <pt x="70" y="0" on="1"/>
        <pt x="70" y="700" on="1"/>
        <pt x="215" y="700" on="1"/>
        <pt x="215" y="75" on="1"/>
        <pt x="605" y="75" on="1"/>
        <pt x="605" y="700" on="1"/>
        <pt x="750" y="700" on="1"/>
        <pt x="750" y="75" on="1"/>
      </contour>
    </TTGlyph>
    <TTGlyph name="afii10041" xMin="50" yMin="0" xMax="715" yMax="700">
      <contour>
        <pt x="380" y="230" on="1"/>
        <pt x="292" y="230" on="0"/>
        <pt x="167" y="258" on="0"/>
        <pt x="87" y="312" on="0"/>
        <pt x="50" y="392" on="0"/>
        <pt x="50" y="445" on="1"/>
        <pt x="50" y="700" on="1"/>
        <pt x="195" y="700" on="1"/>
        <pt x="195" y="445" on="1"/>
        <pt x="195" y="374" on="0"/>
        <pt x="279" y="305" on="0"/>
        <pt x="380" y="305" on="1"/>
        <pt x="570" y="305" on="1"/>
        <pt x="570" y="700" on="1"/>
        <pt x="715" y="700" on="1"/>
        <pt x="715" y="0" on="1"/>
        <pt x="570" y="0" on="1"/>
        <pt x="570" y="230" on="1"/>
      </contour>
    </TTGlyph>
    <TTGlyph name="afii10042" xMin="70" yMin="0" xMax="1025" yMax="700">
      <contour>
        <pt x="70" y="0" on="1"/>
        <pt x="70" y="700" on="1"/>
        <pt x="215" y="700" on="1"/>
        <pt x="215" y="75" on="1"/>
        <pt x="475" y="75" on="1"/>
        <pt x="475" y="700" on="1"/>
        <pt x="620" y="700" on="1"/>
        <pt x="620" y="75" on="1"/>
        <pt x="880" y="75" on="1"/>
        <pt x="880" y="700" on="1"/>
        <pt x="1025" y="700" on="1"/>
        <pt x="1025" y="0" on="1"/>
      </contour>
    </TTGlyph>
    <TTGlyph name="afii10043" xMin="70" yMin="-160" xMax="1110" yMax="700">
      <contour>
        <pt x="1110" y="75" on="1"/>
        <pt x="1110" y="-160" on="1"/>
        <pt x="990" y="-160" on="1"/>
        <pt x="970" y="0" on="1"/>
        <pt x="70" y="0" on="1"/>
        <pt x="70" y="700" on="1"/>
        <pt x="215" y="700" on="1"/>
        <pt x="215" y="75" on="1"/>
        <pt x="475" y="75" on="1"/>
        <pt x="475" y="700" on="1"/>
        <pt x="620" y="700" on="1"/>
        <pt x="620" y="75" on="1"/>
        <pt x="880" y="75" on="1"/>
        <pt x="880" y="700" on="1"/>
        <pt x="1025" y="700" on="1"/>
        <pt x="1025" y="75" on="1"/>
      </contour>
    </TTGlyph>
    <TTGlyph name="afii10044" xMin="10" yMin="0" xMax="840" yMax="700">
      <contour>
        <pt x="530" y="440" on="1"/>
        <pt x="684" y="440" on="0"/>
        <pt x="840" y="321" on="0"/>
        <pt x="840" y="220" on="1"/>
        <pt x="840" y="119" on="0"/>
        <pt x="684" y="0" on="0"/>
        <pt x="530" y="0" on="1"/>
        <pt x="160" y="0" on="1"/>
        <pt x="160" y="615" on="1"/>
        <pt x="10" y="615" on="1"/>
        <pt x="10" y="700" on="1"/>
        <pt x="306" y="700" on="1"/>
        <pt x="305" y="699" on="1"/>
        <pt x="305" y="440" on="1"/>
      </contour>
      <contour>
        <pt x="305" y="365" on="1"/>
        <pt x="305" y="75" on="1"/>
        <pt x="530" y="75" on="1"/>
        <pt x="602" y="75" on="0"/>
        <pt x="685" y="148" on="0"/>
        <pt x="685" y="220" on="1"/>
        <pt x="685" y="292" on="0"/>
        <pt x="602" y="365" on="0"/>
        <pt x="530" y="365" on="1"/>
      </contour>
    </TTGlyph>
    <TTGlyph name="afii10045" xMin="70" yMin="0" xMax="975" yMax="700">
      <contour>
        <pt x="975" y="0" on="1"/>
        <pt x="830" y="0" on="1"/>
        <pt x="830" y="700" on="1"/>
        <pt x="975" y="700" on="1"/>
      </contour>
      <contour>
        <pt x="420" y="440" on="1"/>
        <pt x="574" y="440" on="0"/>
        <pt x="730" y="321" on="0"/>
        <pt x="730" y="220" on="1"/>
        <pt x="730" y="119" on="0"/>
        <pt x="574" y="0" on="0"/>
        <pt x="420" y="0" on="1"/>
        <pt x="70" y="0" on="1"/>
        <pt x="70" y="700" on="1"/>
        <pt x="215" y="700" on="1"/>
        <pt x="215" y="440" on="1"/>
      </contour>
      <contour>
        <pt x="215" y="365" on="1"/>
        <pt x="215" y="75" on="1"/>
        <pt x="420" y="75" on="1"/>
        <pt x="492" y="75" on="0"/>
        <pt x="575" y="148" on="0"/>
        <pt x="575" y="220" on="1"/>
        <pt x="575" y="292" on="0"/>
        <pt x="492" y="365" on="0"/>
        <pt x="420" y="365" on="1"/>
      </contour>
    </TTGlyph>
    <TTGlyph name="afii10046" xMin="70" yMin="0" xMax="750" yMax="700">
      <contour>
        <pt x="440" y="440" on="1"/>
        <pt x="594" y="440" on="0"/>
        <pt x="750" y="321" on="0"/>
        <pt x="750" y="220" on="1"/>
        <pt x="750" y="119" on="0"/>
        <pt x="594" y="0" on="0"/>
        <pt x="440" y="0" on="1"/>
        <pt x="70" y="0" on="1"/>
        <pt x="70" y="700" on="1"/>
        <pt x="215" y="700" on="1"/>
        <pt x="215" y="440" on="1"/>
      </contour>
      <contour>
        <pt x="215" y="365" on="1"/>
        <pt x="215" y="75" on="1"/>
        <pt x="440" y="75" on="1"/>
        <pt x="512" y="75" on="0"/>
        <pt x="595" y="148" on="0"/>
        <pt x="595" y="220" on="1"/>
        <pt x="595" y="292" on="0"/>
        <pt x="512" y="365" on="0"/>
        <pt x="440" y="365" on="1"/>
      </contour>
    </TTGlyph>
    <TTGlyph name="afii10047" xMin="20" yMin="-20" xMax="740" yMax="720">
      <contour>
        <pt x="320" y="55" on="1"/>
        <pt x="375" y="55" on="0"/>
        <pt x="467" y="86" on="0"/>
        <pt x="536" y="149" on="0"/>
        <pt x="578" y="247" on="0"/>
        <pt x="583" y="315" on="1"/>
        <pt x="206" y="315" on="1"/>
        <pt x="206" y="390" on="1"/>
        <pt x="583" y="390" on="1"/>
        <pt x="578" y="456" on="0"/>
        <pt x="536" y="552" on="0"/>
        <pt x="469" y="615" on="0"/>
        <pt x="381" y="645" on="0"/>
        <pt x="330" y="645" on="1"/>
        <pt x="262" y="645" on="0"/>
        <pt x="137" y="598" on="0"/>
        <pt x="80" y="545" on="1"/>
        <pt x="30" y="605" on="1"/>
        <pt x="87" y="658" on="0"/>
        <pt x="249" y="720" on="0"/>
        <pt x="340" y="720" on="1"/>
        <pt x="430" y="720" on="0"/>
        <pt x="577" y="672" on="0"/>
        <pt x="682" y="578" on="0"/>
        <pt x="740" y="440" on="0"/>
        <pt x="740" y="350" on="1"/>
        <pt x="740" y="260" on="0"/>
        <pt x="682" y="122" on="0"/>
        <pt x="575" y="28" on="0"/>
        <pt x="424" y="-20" on="0"/>
        <pt x="330" y="-20" on="1"/>
        <pt x="239" y="-20" on="0"/>
        <pt x="77" y="42" on="0"/>
        <pt x="20" y="95" on="1"/>
        <pt x="70" y="155" on="1"/>
        <pt x="127" y="102" on="0"/>
        <pt x="252" y="55" on="0"/>
      </contour>
    </TTGlyph>
    <TTGlyph name="afii10048" xMin="70" yMin="-20" xMax="1105" yMax="720">
      <contour>
        <pt x="720" y="-20" on="1"/>
        <pt x="641" y="-20" on="0"/>
        <pt x="507" y="22" on="0"/>
        <pt x="406" y="105" on="0"/>
        <pt x="344" y="226" on="0"/>
        <pt x="337" y="305" on="1"/>
        <pt x="215" y="305" on="1"/>
        <pt x="215" y="0" on="1"/>
        <pt x="70" y="0" on="1"/>
        <pt x="70" y="700" on="1"/>
        <pt x="215" y="700" on="1"/>
        <pt x="215" y="380" on="1"/>
        <pt x="336" y="380" on="1"/>
        <pt x="341" y="462" on="0"/>
        <pt x="401" y="589" on="0"/>
        <pt x="502" y="676" on="0"/>
        <pt x="639" y="720" on="0"/>
        <pt x="720" y="720" on="1"/>
        <pt x="804" y="720" on="0"/>
        <pt x="946" y="672" on="0"/>
        <pt x="1048" y="578" on="0"/>
        <pt x="1105" y="440" on="0"/>
        <pt x="1105" y="350" on="1"/>
        <pt x="1105" y="260" on="0"/>
        <pt x="1048" y="122" on="0"/>
        <pt x="946" y="28" on="0"/>
        <pt x="804" y="-20" on="0"/>
      </contour>
      <contour>
        <pt x="720" y="650" on="1"/>
        <pt x="675" y="650" on="0"/>
        <pt x="592" y="614" on="0"/>
        <pt x="528" y="540" on="0"/>
        <pt x="490" y="427" on="0"/>
        <pt x="490" y="350" on="1"/>
        <pt x="490" y="273" on="0"/>
        <pt x="528" y="160" on="0"/>
        <pt x="592" y="86" on="0"/>
        <pt x="675" y="50" on="0"/>
        <pt x="720" y="50" on="1"/>
        <pt x="765" y="50" on="0"/>
        <pt x="848" y="86" on="0"/>
        <pt x="912" y="160" on="0"/>
        <pt x="950" y="273" on="0"/>
        <pt x="950" y="350" on="1"/>
        <pt x="950" y="427" on="0"/>
        <pt x="912" y="540" on="0"/>
        <pt x="848" y="614" on="0"/>
        <pt x="765" y="650" on="0"/>
      </contour>
    </TTGlyph>
    <TTGlyph name="afii10049" xMin="40" yMin="0" xMax="730" yMax="700">
      <contour>
        <pt x="40" y="0" on="1"/>
        <pt x="205" y="236" on="1"/>
        <pt x="130" y="265" on="0"/>
        <pt x="50" y="375" on="0"/>
        <pt x="50" y="455" on="1"/>
        <pt x="50" y="513" on="0"/>
        <pt x="94" y="604" on="0"/>
        <pt x="176" y="667" on="0"/>
        <pt x="295" y="700" on="0"/>
        <pt x="370" y="700" on="1"/>
        <pt x="730" y="700" on="1"/>
        <pt x="730" y="0" on="1"/>
        <pt x="585" y="0" on="1"/>
        <pt x="585" y="210" on="1"/>
        <pt x="370" y="210" on="1"/>
        <pt x="352" y="210" on="1"/>
        <pt x="205" y="0" on="1"/>
      </contour>
      <contour>
        <pt x="370" y="625" on="1"/>
        <pt x="291" y="625" on="0"/>
        <pt x="205" y="542" on="0"/>
        <pt x="205" y="455" on="1"/>
        <pt x="205" y="368" on="0"/>
        <pt x="291" y="285" on="0"/>
        <pt x="370" y="285" on="1"/>
        <pt x="585" y="285" on="1"/>
        <pt x="585" y="625" on="1"/>
      </contour>
    </TTGlyph>
    <TTGlyph name="afii10050" xMin="70" yMin="0" xMax="650" yMax="820">
      <contour>
        <pt x="215" y="625" on="1"/>
        <pt x="215" y="0" on="1"/>
        <pt x="70" y="0" on="1"/>
        <pt x="70" y="700" on="1"/>
        <pt x="520" y="700" on="1"/>
        <pt x="540" y="820" on="1"/>
        <pt x="650" y="820" on="1"/>
        <pt x="650" y="625" on="1"/>
      </contour>
    </TTGlyph>
    <TTGlyph name="afii10051" xMin="10" yMin="-15" xMax="825" yMax="700">
      <contour>
        <pt x="495" y="625" on="1"/>
        <pt x="305" y="625" on="1"/>
        <pt x="305" y="460" on="1"/>
        <pt x="495" y="460" on="1"/>
        <pt x="583" y="460" on="0"/>
        <pt x="708" y="432" on="0"/>
        <pt x="788" y="378" on="0"/>
        <pt x="825" y="297" on="0"/>
        <pt x="825" y="245" on="1"/>
        <pt x="825" y="170" on="1"/>
        <pt x="825" y="72" on="0"/>
        <pt x="729" y="-15" on="0"/>
        <pt x="635" y="-15" on="1"/>
        <pt x="607" y="-15" on="0"/>
        <pt x="584" y="-10" on="1"/>
        <pt x="572" y="-8" on="0"/>
        <pt x="560" y="-5" on="1"/>
        <pt x="560" y="60" on="1"/>
        <pt x="600" y="60" on="1"/>
        <pt x="634" y="60" on="0"/>
        <pt x="680" y="110" on="0"/>
        <pt x="680" y="170" on="1"/>
        <pt x="680" y="245" on="1"/>
        <pt x="680" y="316" on="0"/>
        <pt x="596" y="385" on="0"/>
        <pt x="495" y="385" on="1"/>
        <pt x="305" y="385" on="1"/>
        <pt x="305" y="0" on="1"/>
        <pt x="160" y="0" on="1"/>
        <pt x="160" y="625" on="1"/>
        <pt x="10" y="625" on="1"/>
        <pt x="10" y="700" on="1"/>
        <pt x="495" y="700" on="1"/>
      </contour>
    </TTGlyph>
    <TTGlyph name="afii10052" xMin="70" yMin="0" xMax="650" yMax="910">
      <contour>
        <pt x="215" y="625" on="1"/>
        <pt x="215" y="0" on="1"/>
        <pt x="70" y="0" on="1"/>
        <pt x="70" y="700" on="1"/>
        <pt x="650" y="700" on="1"/>
        <pt x="650" y="625" on="1"/>
      </contour>
      <contour>
        <pt x="501" y="910" on="1"/>
        <pt x="395" y="760" on="1"/>
        <pt x="300" y="760" on="1"/>
        <pt x="360" y="910" on="1"/>
      </contour>
    </TTGlyph>
    <TTGlyph name="afii10053" xMin="50" yMin="-20" xMax="770" yMax="720">
      <contour>
        <pt x="470" y="55" on="1"/>
        <pt x="538" y="55" on="0"/>
        <pt x="663" y="102" on="0"/>
        <pt x="720" y="155" on="1"/>
        <pt x="770" y="95" on="1"/>
        <pt x="713" y="42" on="0"/>
        <pt x="551" y="-20" on="0"/>
        <pt x="460" y="-20" on="1"/>
        <pt x="366" y="-20" on="0"/>
        <pt x="215" y="28" on="0"/>
        <pt x="108" y="122" on="0"/>
        <pt x="50" y="260" on="0"/>
        <pt x="50" y="350" on="1"/>
        <pt x="50" y="440" on="0"/>
        <pt x="107" y="578" on="0"/>
        <pt x="212" y="672" on="0"/>
        <pt x="360" y="720" on="0"/>
        <pt x="450" y="720" on="1"/>
        <pt x="541" y="720" on="0"/>
        <pt x="703" y="658" on="0"/>
        <pt x="760" y="605" on="1"/>
        <pt x="710" y="545" on="1"/>
        <pt x="653" y="598" on="0"/>
        <pt x="528" y="645" on="0"/>
        <pt x="460" y="645" on="1"/>
        <pt x="409" y="645" on="0"/>
        <pt x="321" y="615" on="0"/>
        <pt x="254" y="552" on="0"/>
        <pt x="211" y="456" on="0"/>
        <pt x="206" y="390" on="1"/>
        <pt x="584" y="390" on="1"/>
        <pt x="584" y="315" on="1"/>
        <pt x="206" y="315" on="1"/>
        <pt x="210" y="247" on="0"/>
        <pt x="253" y="149" on="0"/>
        <pt x="322" y="86" on="0"/>
        <pt x="415" y="55" on="0"/>
      </contour>
    </TTGlyph>
    <TTGlyph name="afii10054" xMin="30" yMin="-20" xMax="720" yMax="720">
      <contour>
        <pt x="720" y="185" on="1"/>
        <pt x="720" y="142" on="0"/>
        <pt x="684" y="67" on="0"/>
        <pt x="603" y="12" on="0"/>
        <pt x="474" y="-20" on="0"/>
        <pt x="380" y="-20" on="1"/>
        <pt x="327" y="-20" on="0"/>
        <pt x="226" y="-4" on="0"/>
        <pt x="135" y="26" on="0"/>
        <pt x="58" y="69" on="0"/>
        <pt x="30" y="95" on="1"/>
        <pt x="80" y="155" on="1"/>
        <pt x="137" y="106" on="0"/>
        <pt x="289" y="55" on="0"/>
        <pt x="380" y="55" on="1"/>
        <pt x="481" y="55" on="0"/>
        <pt x="565" y="111" on="0"/>
        <pt x="565" y="160" on="1"/>
        <pt x="565" y="198" on="0"/>
        <pt x="499" y="250" on="0"/>
        <pt x="420" y="275" on="1"/>
        <pt x="230" y="335" on="1"/>
        <pt x="136" y="365" on="0"/>
        <pt x="40" y="458" on="0"/>
        <pt x="40" y="530" on="1"/>
        <pt x="40" y="567" on="0"/>
        <pt x="75" y="636" on="0"/>
        <pt x="149" y="689" on="0"/>
        <pt x="264" y="720" on="0"/>
        <pt x="345" y="720" on="1"/>
        <pt x="394" y="720" on="0"/>
        <pt x="491" y="704" on="0"/>
        <pt x="580" y="674" on="0"/>
        <pt x="657" y="631" on="0"/>
        <pt x="685" y="605" on="1"/>
        <pt x="635" y="545" on="1"/>
        <pt x="578" y="594" on="0"/>
        <pt x="436" y="645" on="0"/>
        <pt x="345" y="645" on="1"/>
        <pt x="270" y="645" on="0"/>
        <pt x="195" y="593" on="0"/>
        <pt x="195" y="555" on="1"/>
        <pt x="195" y="534" on="0"/>
        <pt x="209" y="503" on="0"/>
        <pt x="242" y="476" on="0"/>
        <pt x="296" y="453" on="0"/>
        <pt x="336" y="440" on="1"/>
        <pt x="525" y="380" on="1"/>
        <pt x="616" y="351" on="0"/>
        <pt x="720" y="257" on="0"/>
      </contour>
    </TTGlyph>
    <TTGlyph name="afii10055" xMin="70" yMin="0" xMax="215" yMax="700">
      <contour>
        <pt x="215" y="0" on="1"/>
        <pt x="70" y="0" on="1"/>
        <pt x="70" y="700" on="1"/>
        <pt x="215" y="700" on="1"/>
      </contour>
    </TTGlyph>
    <TTGlyph name="afii10056" xMin="-30" yMin="0" xMax="330" yMax="920">
      <contour>
        <pt x="225" y="0" on="1"/>
        <pt x="80" y="0" on="1"/>
        <pt x="80" y="700" on="1"/>
        <pt x="225" y="700" on="1"/>
      </contour>
      <contour>
        <pt x="120" y="845" on="1"/>
        <pt x="120" y="815" on="0"/>
        <pt x="79" y="770" on="0"/>
        <pt x="45" y="770" on="1"/>
        <pt x="11" y="770" on="0"/>
        <pt x="-30" y="815" on="0"/>
        <pt x="-30" y="845" on="1"/>
        <pt x="-30" y="875" on="0"/>
        <pt x="11" y="920" on="0"/>
        <pt x="45" y="920" on="1"/>
        <pt x="78" y="920" on="0"/>
        <pt x="120" y="875" on="0"/>
      </contour>
      <contour>
        <pt x="330" y="845" on="1"/>
        <pt x="330" y="815" on="0"/>
        <pt x="289" y="770" on="0"/>
        <pt x="255" y="770" on="1"/>
        <pt x="221" y="770" on="0"/>
        <pt x="180" y="815" on="0"/>
        <pt x="180" y="845" on="1"/>
        <pt x="180" y="875" on="0"/>
        <pt x="221" y="920" on="0"/>
        <pt x="255" y="920" on="1"/>
        <pt x="288" y="920" on="0"/>
        <pt x="330" y="875" on="0"/>
      </contour>
    </TTGlyph>
    <TTGlyph name="afii10057" xMin="10" yMin="-20" xMax="590" yMax="700">
      <contour>
        <pt x="260" y="-20" on="1"/>
        <pt x="224" y="-20" on="0"/>
        <pt x="153" y="-8" on="0"/>
        <pt x="87" y="14" on="0"/>
        <pt x="31" y="43" on="0"/>
        <pt x="10" y="60" on="1"/>
        <pt x="55" y="120" on="1"/>
        <pt x="100" y="86" on="0"/>
        <pt x="193" y="55" on="0"/>
        <pt x="250" y="55" on="1"/>
        <pt x="291" y="55" on="0"/>
        <pt x="362" y="80" on="0"/>
        <pt x="415" y="136" on="0"/>
        <pt x="445" y="223" on="0"/>
        <pt x="445" y="285" on="1"/>
        <pt x="445" y="625" on="1"/>
        <pt x="210" y="625" on="1"/>
        <pt x="210" y="700" on="1"/>
        <pt x="590" y="700" on="1"/>
        <pt x="590" y="285" on="1"/>
        <pt x="590" y="208" on="0"/>
        <pt x="543" y="94" on="0"/>
        <pt x="457" y="18" on="0"/>
        <pt x="335" y="-20" on="0"/>
      </contour>
    </TTGlyph>
    <TTGlyph name="afii10058" xMin="20" yMin="-15" xMax="1285" yMax="700">
      <contour>
        <pt x="975" y="440" on="1"/>
        <pt x="1129" y="440" on="0"/>
        <pt x="1285" y="321" on="0"/>
        <pt x="1285" y="220" on="1"/>
        <pt x="1285" y="119" on="0"/>
        <pt x="1129" y="0" on="0"/>
        <pt x="975" y="0" on="1"/>
        <pt x="605" y="0" on="1"/>
        <pt x="605" y="625" on="1"/>
        <pt x="300" y="625" on="1"/>
        <pt x="270" y="170" on="1"/>
        <pt x="263" y="72" on="0"/>
        <pt x="168" y="-15" on="0"/>
        <pt x="85" y="-15" on="1"/>
        <pt x="59" y="-15" on="0"/>
        <pt x="39" y="-10" on="1"/>
        <pt x="28" y="-8" on="0"/>
        <pt x="20" y="-5" on="1"/>
        <pt x="20" y="60" on="1"/>
        <pt x="50" y="60" on="1"/>
        <pt x="80" y="60" on="0"/>
        <pt x="126" y="110" on="0"/>
        <pt x="130" y="170" on="1"/>
        <pt x="165" y="700" on="1"/>
        <pt x="750" y="700" on="1"/>
        <pt x="750" y="440" on="1"/>
      </contour>
      <contour>
        <pt x="750" y="365" on="1"/>
        <pt x="750" y="75" on="1"/>
        <pt x="975" y="75" on="1"/>
        <pt x="1047" y="75" on="0"/>
        <pt x="1130" y="148" on="0"/>
        <pt x="1130" y="220" on="1"/>
        <pt x="1130" y="292" on="0"/>
        <pt x="1047" y="365" on="0"/>
        <pt x="975" y="365" on="1"/>
      </contour>
    </TTGlyph>
    <TTGlyph name="afii10059" xMin="70" yMin="0" xMax="1285" yMax="700">
      <contour>
        <pt x="975" y="420" on="1"/>
        <pt x="1052" y="420" on="0"/>
        <pt x="1168" y="390" on="0"/>
        <pt x="1246" y="334" on="0"/>
        <pt x="1285" y="257" on="0"/>
        <pt x="1285" y="210" on="1"/>
        <pt x="1285" y="163" on="0"/>
        <pt x="1246" y="86" on="0"/>
        <pt x="1168" y="30" on="0"/>
        <pt x="1052" y="0" on="0"/>
        <pt x="975" y="0" on="1"/>
        <pt x="605" y="0" on="1"/>
        <pt x="605" y="335" on="1"/>
        <pt x="215" y="335" on="1"/>
        <pt x="215" y="0" on="1"/>
        <pt x="70" y="0" on="1"/>
        <pt x="70" y="700" on="1"/>
        <pt x="215" y="700" on="1"/>
        <pt x="215" y="410" on="1"/>
        <pt x="605" y="410" on="1"/>
        <pt x="605" y="700" on="1"/>
        <pt x="750" y="700" on="1"/>
        <pt x="750" y="420" on="1"/>
      </contour>
      <contour>
        <pt x="750" y="345" on="1"/>
        <pt x="750" y="75" on="1"/>
        <pt x="975" y="75" on="1"/>
        <pt x="1047" y="75" on="0"/>
        <pt x="1130" y="146" on="0"/>
        <pt x="1130" y="210" on="1"/>
        <pt x="1130" y="274" on="0"/>
        <pt x="1047" y="345" on="0"/>
        <pt x="975" y="345" on="1"/>
      </contour>
    </TTGlyph>
    <TTGlyph name="afii10060" xMin="10" yMin="0" xMax="825" yMax="700">
      <contour>
        <pt x="495" y="625" on="1"/>
        <pt x="305" y="625" on="1"/>
        <pt x="305" y="460" on="1"/>
        <pt x="495" y="460" on="1"/>
        <pt x="583" y="460" on="0"/>
        <pt x="708" y="432" on="0"/>
        <pt x="788" y="378" on="0"/>
        <pt x="825" y="297" on="0"/>
        <pt x="825" y="245" on="1"/>
        <pt x="825" y="0" on="1"/>
        <pt x="680" y="0" on="1"/>
        <pt x="680" y="245" on="1"/>
        <pt x="680" y="316" on="0"/>
        <pt x="596" y="385" on="0"/>
        <pt x="495" y="385" on="1"/>
        <pt x="305" y="385" on="1"/>
        <pt x="305" y="0" on="1"/>
        <pt x="160" y="0" on="1"/>
        <pt x="160" y="625" on="1"/>
        <pt x="10" y="625" on="1"/>
        <pt x="10" y="700" on="1"/>
        <pt x="495" y="700" on="1"/>
      </contour>
    </TTGlyph>
    <TTGlyph name="afii10061" xMin="70" yMin="0" xMax="785" yMax="890">
      <contour>
        <pt x="520" y="355" on="1"/>
        <pt x="785" y="0" on="1"/>
        <pt x="620" y="0" on="1"/>
        <pt x="390" y="310" on="1"/>
        <pt x="215" y="310" on="1"/>
        <pt x="215" y="0" on="1"/>
        <pt x="70" y="0" on="1"/>
        <pt x="70" y="700" on="1"/>
        <pt x="215" y="700" on="1"/>
        <pt x="215" y="385" on="1"/>
        <pt x="380" y="385" on="1"/>
        <pt x="610" y="700" on="1"/>
        <pt x="770" y="700" on="1"/>
      </contour>
      <contour>
        <pt x="531" y="890" on="1"/>
        <pt x="425" y="740" on="1"/>
        <pt x="330" y="740" on="1"/>
        <pt x="390" y="890" on="1"/>
      </contour>
    </TTGlyph>
    <TTGlyph name="afii10062" xMin="0" yMin="0" xMax="785" yMax="900">
      <contour>
        <pt x="785" y="700" on="1"/>
        <pt x="410" y="0" on="1"/>
        <pt x="255" y="0" on="1"/>
        <pt x="365" y="205" on="1"/>
        <pt x="285" y="205" on="1"/>
        <pt x="0" y="700" on="1"/>
        <pt x="165" y="700" on="1"/>
        <pt x="400" y="290" on="1"/>
        <pt x="410" y="290" on="1"/>
        <pt x="630" y="700" on="1"/>
      </contour>
      <contour>
        <pt x="400" y="735" on="1"/>
        <pt x="295" y="735" on="0"/>
        <pt x="205" y="825" on="0"/>
        <pt x="205" y="900" on="1"/>
        <pt x="320" y="900" on="1"/>
        <pt x="320" y="855" on="0"/>
        <pt x="366" y="815" on="0"/>
        <pt x="400" y="815" on="1"/>
        <pt x="434" y="815" on="0"/>
        <pt x="480" y="855" on="0"/>
        <pt x="480" y="900" on="1"/>
        <pt x="595" y="900" on="1"/>
        <pt x="595" y="825" on="0"/>
        <pt x="505" y="735" on="0"/>
      </contour>
    </TTGlyph>
    <TTGlyph name="afii10065" xMin="35" yMin="0" xMax="580" yMax="540">
      <contour>
        <pt x="185" y="165" on="1"/>
        <pt x="185" y="70" on="0"/>
        <pt x="300" y="70" on="1"/>
        <pt x="440" y="70" on="1"/>
        <pt x="440" y="260" on="1"/>
        <pt x="300" y="260" on="1"/>
        <pt x="185" y="260" on="0"/>
      </contour>
      <contour>
        <pt x="440" y="330" on="1"/>
        <pt x="440" y="402" on="0"/>
        <pt x="365" y="470" on="0"/>
        <pt x="305" y="470" on="1"/>
        <pt x="260" y="470" on="0"/>
        <pt x="174" y="443" on="0"/>
        <pt x="140" y="420" on="1"/>
        <pt x="105" y="480" on="1"/>
        <pt x="127" y="495" on="0"/>
        <pt x="180" y="517" on="0"/>
        <pt x="236" y="532" on="0"/>
        <pt x="291" y="540" on="0"/>
        <pt x="315" y="540" on="1"/>
        <pt x="379" y="540" on="0"/>
        <pt x="477" y="510" on="0"/>
        <pt x="545" y="454" on="0"/>
        <pt x="580" y="377" on="0"/>
        <pt x="580" y="330" on="1"/>
        <pt x="580" y="0" on="1"/>
        <pt x="300" y="0" on="1"/>
        <pt x="164" y="0" on="0"/>
        <pt x="35" y="82" on="0"/>
        <pt x="35" y="165" on="1"/>
        <pt x="35" y="248" on="0"/>
        <pt x="164" y="330" on="0"/>
        <pt x="300" y="330" on="1"/>
      </contour>
    </TTGlyph>
    <TTGlyph name="afii10066" xMin="45" yMin="-20" xMax="645" yMax="720">
      <contour>
        <pt x="345" y="410" on="1"/>
        <pt x="315" y="410" on="0"/>
        <pt x="261" y="387" on="0"/>
        <pt x="219" y="342" on="0"/>
        <pt x="195" y="275" on="0"/>
        <pt x="195" y="230" on="1"/>
        <pt x="195" y="183" on="0"/>
        <pt x="219" y="114" on="0"/>
        <pt x="261" y="68" on="0"/>
        <pt x="315" y="45" on="0"/>
        <pt x="345" y="45" on="1"/>
        <pt x="375" y="45" on="0"/>
        <pt x="429" y="68" on="0"/>
        <pt x="471" y="114" on="0"/>
        <pt x="495" y="183" on="0"/>
        <pt x="495" y="230" on="1"/>
        <pt x="495" y="275" on="0"/>
        <pt x="471" y="342" on="0"/>
        <pt x="429" y="387" on="0"/>
        <pt x="375" y="410" on="0"/>
      </contour>
      <contour>
        <pt x="355" y="480" on="1"/>
        <pt x="417" y="480" on="0"/>
        <pt x="523" y="444" on="0"/>
        <pt x="601" y="378" on="0"/>
        <pt x="645" y="286" on="0"/>
        <pt x="645" y="230" on="1"/>
        <pt x="645" y="174" on="0"/>
        <pt x="600" y="82" on="0"/>
        <pt x="521" y="16" on="0"/>
        <pt x="411" y="-20" on="0"/>
        <pt x="345" y="-20" on="1"/>
        <pt x="279" y="-20" on="0"/>
        <pt x="169" y="17" on="0"/>
        <pt x="90" y="86" on="0"/>
        <pt x="45" y="186" on="0"/>
        <pt x="45" y="250" on="1"/>
        <pt x="45" y="365" on="1"/>
        <pt x="45" y="522" on="0"/>
        <pt x="195" y="682" on="0"/>
        <pt x="330" y="695" on="1"/>
        <pt x="590" y="720" on="1"/>
        <pt x="590" y="605" on="1"/>
        <pt x="340" y="580" on="1"/>
        <pt x="130" y="559" on="0"/>
        <pt x="130" y="365" on="1"/>
        <pt x="140" y="365" on="1"/>
        <pt x="170" y="422" on="0"/>
        <pt x="276" y="480" on="0"/>
      </contour>
    </TTGlyph>
    <TTGlyph name="afii10067" xMin="70" yMin="0" xMax="610" yMax="520">
      <contour>
        <pt x="580" y="375" on="1"/>
        <pt x="580" y="337" on="0"/>
        <pt x="525" y="283" on="0"/>
        <pt x="465" y="275" on="1"/>
        <pt x="537" y="264" on="0"/>
        <pt x="610" y="195" on="0"/>
        <pt x="610" y="150" on="1"/>
        <pt x="610" y="118" on="0"/>
        <pt x="581" y="63" on="0"/>
        <pt x="521" y="23" on="0"/>
        <pt x="429" y="0" on="0"/>
        <pt x="365" y="0" on="1"/>
        <pt x="70" y="0" on="1"/>
        <pt x="70" y="520" on="1"/>
        <pt x="335" y="520" on="1"/>
        <pt x="399" y="520" on="0"/>
        <pt x="491" y="497" on="0"/>
        <pt x="551" y="458" on="0"/>
        <pt x="580" y="405" on="0"/>
      </contour>
      <contour>
        <pt x="365" y="70" on="1"/>
        <pt x="410" y="70" on="0"/>
        <pt x="460" y="116" on="0"/>
        <pt x="460" y="150" on="1"/>
        <pt x="460" y="184" on="0"/>
        <pt x="410" y="230" on="0"/>
        <pt x="365" y="230" on="1"/>
        <pt x="210" y="230" on="1"/>
        <pt x="210" y="70" on="1"/>
      </contour>
      <contour>
        <pt x="335" y="300" on="1"/>
        <pt x="380" y="300" on="0"/>
        <pt x="430" y="345" on="0"/>
        <pt x="430" y="375" on="1"/>
        <pt x="430" y="405" on="0"/>
        <pt x="380" y="450" on="0"/>
        <pt x="335" y="450" on="1"/>
        <pt x="210" y="450" on="1"/>
        <pt x="210" y="300" on="1"/>
      </contour>
    </TTGlyph>
    <TTGlyph name="afii10068" xMin="70" yMin="0" xMax="490" yMax="520">
      <contour>
        <pt x="490" y="450" on="1"/>
        <pt x="210" y="450" on="1"/>
        <pt x="210" y="0" on="1"/>
        <pt x="70" y="0" on="1"/>
        <pt x="70" y="520" on="1"/>
        <pt x="490" y="520" on="1"/>
      </contour>
    </TTGlyph>
    <TTGlyph name="afii10069" xMin="10" yMin="-150" xMax="695" yMax="520">
      <contour>
        <pt x="10" y="70" on="1"/>
        <pt x="50" y="70" on="1"/>
        <pt x="84" y="70" on="0"/>
        <pt x="126" y="117" on="0"/>
        <pt x="130" y="170" on="1"/>
        <pt x="155" y="520" on="1"/>
        <pt x="615" y="520" on="1"/>
        <pt x="615" y="70" on="1"/>
        <pt x="695" y="70" on="1"/>
        <pt x="695" y="-150" on="1"/>
        <pt x="580" y="-150" on="1"/>
        <pt x="560" y="0" on="1"/>
        <pt x="145" y="0" on="1"/>
        <pt x="125" y="-150" on="1"/>
        <pt x="10" y="-150" on="1"/>
      </contour>
      <contour>
        <pt x="265" y="170" on="1"/>
        <pt x="263" y="145" on="0"/>
        <pt x="244" y="108" on="0"/>
        <pt x="222" y="84" on="0"/>
        <pt x="202" y="71" on="0"/>
        <pt x="200" y="70" on="1"/>
        <pt x="475" y="70" on="1"/>
        <pt x="475" y="450" on="1"/>
        <pt x="285" y="450" on="1"/>
      </contour>
    </TTGlyph>
    <TTGlyph name="afii10070" xMin="45" yMin="-20" xMax="625" yMax="540">
      <contour>
        <pt x="370" y="50" on="1"/>
        <pt x="419" y="50" on="0"/>
        <pt x="504" y="84" on="0"/>
        <pt x="545" y="115" on="1"/>
        <pt x="585" y="55" on="1"/>
        <pt x="566" y="38" on="0"/>
        <pt x="515" y="10" on="0"/>
        <pt x="456" y="-9" on="0"/>
        <pt x="392" y="-20" on="0"/>
        <pt x="360" y="-20" on="1"/>
        <pt x="289" y="-20" on="0"/>
        <pt x="172" y="17" on="0"/>
        <pt x="90" y="88" on="0"/>
        <pt x="45" y="192" on="0"/>
        <pt x="45" y="260" on="1"/>
        <pt x="45" y="327" on="0"/>
        <pt x="88" y="432" on="0"/>
        <pt x="165" y="503" on="0"/>
        <pt x="271" y="540" on="0"/>
        <pt x="335" y="540" on="1"/>
        <pt x="395" y="540" on="0"/>
        <pt x="501" y="504" on="0"/>
        <pt x="579" y="435" on="0"/>
        <pt x="625" y="337" on="0"/>
        <pt x="625" y="275" on="1"/>
        <pt x="625" y="205" on="1"/>
        <pt x="198" y="205" on="1"/>
        <pt x="210" y="122" on="0"/>
        <pt x="301" y="50" on="0"/>
      </contour>
      <contour>
        <pt x="335" y="475" on="1"/>
        <pt x="306" y="475" on="0"/>
        <pt x="256" y="453" on="0"/>
        <pt x="219" y="405" on="0"/>
        <pt x="196" y="329" on="0"/>
        <pt x="195" y="275" on="1"/>
        <pt x="475" y="275" on="1"/>
        <pt x="475" y="327" on="0"/>
        <pt x="451" y="403" on="0"/>
        <pt x="412" y="452" on="0"/>
        <pt x="361" y="475" on="0"/>
      </contour>
    </TTGlyph>
    <TTGlyph name="afii10071" xMin="45" yMin="-20" xMax="625" yMax="730">
      <contour>
        <pt x="370" y="50" on="1"/>
        <pt x="419" y="50" on="0"/>
        <pt x="504" y="84" on="0"/>
        <pt x="545" y="115" on="1"/>
        <pt x="585" y="55" on="1"/>
        <pt x="566" y="38" on="0"/>
        <pt x="515" y="10" on="0"/>
        <pt x="456" y="-9" on="0"/>
        <pt x="392" y="-20" on="0"/>
        <pt x="360" y="-20" on="1"/>
        <pt x="289" y="-20" on="0"/>
        <pt x="172" y="17" on="0"/>
        <pt x="90" y="88" on="0"/>
        <pt x="45" y="192" on="0"/>
        <pt x="45" y="260" on="1"/>
        <pt x="45" y="327" on="0"/>
        <pt x="88" y="432" on="0"/>
        <pt x="165" y="503" on="0"/>
        <pt x="271" y="540" on="0"/>
        <pt x="335" y="540" on="1"/>
        <pt x="395" y="540" on="0"/>
        <pt x="501" y="504" on="0"/>
        <pt x="579" y="435" on="0"/>
        <pt x="625" y="337" on="0"/>
        <pt x="625" y="275" on="1"/>
        <pt x="625" y="205" on="1"/>
        <pt x="198" y="205" on="1"/>
        <pt x="210" y="122" on="0"/>
        <pt x="301" y="50" on="0"/>
      </contour>
      <contour>
        <pt x="335" y="475" on="1"/>
        <pt x="306" y="475" on="0"/>
        <pt x="256" y="453" on="0"/>
        <pt x="219" y="405" on="0"/>
        <pt x="196" y="329" on="0"/>
        <pt x="195" y="275" on="1"/>
        <pt x="475" y="275" on="1"/>
        <pt x="475" y="327" on="0"/>
        <pt x="451" y="403" on="0"/>
        <pt x="412" y="452" on="0"/>
        <pt x="361" y="475" on="0"/>
      </contour>
      <contour>
        <pt x="295" y="655" on="1"/>
        <pt x="295" y="625" on="0"/>
        <pt x="254" y="580" on="0"/>
        <pt x="220" y="580" on="1"/>
        <pt x="186" y="580" on="0"/>
        <pt x="145" y="625" on="0"/>
        <pt x="145" y="655" on="1"/>
        <pt x="145" y="685" on="0"/>
        <pt x="186" y="730" on="0"/>
        <pt x="220" y="730" on="1"/>
        <pt x="253" y="730" on="0"/>
        <pt x="295" y="685" on="0"/>
      </contour>
      <contour>
        <pt x="525" y="655" on="1"/>
        <pt x="525" y="625" on="0"/>
        <pt x="484" y="580" on="0"/>
        <pt x="450" y="580" on="1"/>
        <pt x="416" y="580" on="0"/>
        <pt x="375" y="625" on="0"/>
        <pt x="375" y="655" on="1"/>
        <pt x="375" y="685" on="0"/>
        <pt x="416" y="730" on="0"/>
        <pt x="450" y="730" on="1"/>
        <pt x="483" y="730" on="0"/>
        <pt x="525" y="685" on="0"/>
      </contour>
    </TTGlyph>
    <TTGlyph name="afii10072" xMin="20" yMin="0" xMax="960" yMax="520">
      <contour>
        <pt x="180" y="0" on="1"/>
        <pt x="20" y="0" on="1"/>
        <pt x="205" y="265" on="1"/>
        <pt x="30" y="520" on="1"/>
        <pt x="180" y="520" on="1"/>
        <pt x="335" y="295" on="1"/>
        <pt x="420" y="295" on="1"/>
        <pt x="420" y="520" on="1"/>
        <pt x="560" y="520" on="1"/>
        <pt x="560" y="295" on="1"/>
        <pt x="645" y="295" on="1"/>
        <pt x="800" y="520" on="1"/>
        <pt x="950" y="520" on="1"/>
        <pt x="775" y="265" on="1"/>
        <pt x="960" y="0" on="1"/>
        <pt x="800" y="0" on="1"/>
        <pt x="645" y="225" on="1"/>
        <pt x="560" y="225" on="1"/>
        <pt x="560" y="0" on="1"/>
        <pt x="420" y="0" on="1"/>
        <pt x="420" y="225" on="1"/>
        <pt x="335" y="225" on="1"/>
      </contour>
    </TTGlyph>
    <TTGlyph name="afii10073" xMin="15" yMin="-20" xMax="555" yMax="540">
      <contour>
        <pt x="535" y="395" on="1"/>
        <pt x="535" y="297" on="0"/>
        <pt x="410" y="275" on="1"/>
        <pt x="482" y="264" on="0"/>
        <pt x="555" y="193" on="0"/>
        <pt x="555" y="140" on="1"/>
        <pt x="555" y="106" on="0"/>
        <pt x="524" y="48" on="0"/>
        <pt x="456" y="5" on="0"/>
        <pt x="350" y="-20" on="0"/>
        <pt x="275" y="-20" on="1"/>
        <pt x="192" y="-20" on="0"/>
        <pt x="57" y="25" on="0"/>
        <pt x="15" y="55" on="1"/>
        <pt x="55" y="115" on="1"/>
        <pt x="97" y="89" on="0"/>
        <pt x="197" y="50" on="0"/>
        <pt x="265" y="50" on="1"/>
        <pt x="344" y="50" on="0"/>
        <pt x="405" y="101" on="0"/>
        <pt x="405" y="150" on="1"/>
        <pt x="405" y="184" on="0"/>
        <pt x="355" y="230" on="0"/>
        <pt x="310" y="230" on="1"/>
        <pt x="135" y="230" on="1"/>
        <pt x="135" y="300" on="1"/>
        <pt x="290" y="300" on="1"/>
        <pt x="335" y="300" on="0"/>
        <pt x="385" y="347" on="0"/>
        <pt x="385" y="385" on="1"/>
        <pt x="385" y="423" on="0"/>
        <pt x="332" y="470" on="0"/>
        <pt x="275" y="470" on="1"/>
        <pt x="211" y="470" on="0"/>
        <pt x="112" y="431" on="0"/>
        <pt x="70" y="405" on="1"/>
        <pt x="30" y="465" on="1"/>
        <pt x="72" y="495" on="0"/>
        <pt x="206" y="540" on="0"/>
        <pt x="285" y="540" on="1"/>
        <pt x="349" y="540" on="0"/>
        <pt x="443" y="516" on="0"/>
        <pt x="505" y="475" on="0"/>
        <pt x="535" y="423" on="0"/>
      </contour>
    </TTGlyph>
    <TTGlyph name="afii10074" xMin="70" yMin="0" xMax="630" yMax="520">
      <contour>
        <pt x="630" y="520" on="1"/>
        <pt x="630" y="0" on="1"/>
        <pt x="490" y="0" on="1"/>
        <pt x="490" y="390" on="1"/>
        <pt x="480" y="390" on="1"/>
        <pt x="250" y="0" on="1"/>
        <pt x="70" y="0" on="1"/>
        <pt x="70" y="520" on="1"/>
        <pt x="210" y="520" on="1"/>
        <pt x="210" y="130" on="1"/>
        <pt x="220" y="130" on="1"/>
        <pt x="450" y="520" on="1"/>
      </contour>
    </TTGlyph>
    <TTGlyph name="afii10075" xMin="70" yMin="0" xMax="630" yMax="735">
      <contour>
        <pt x="340" y="580" on="1"/>
        <pt x="246" y="580" on="0"/>
        <pt x="150" y="667" on="0"/>
        <pt x="150" y="735" on="1"/>
        <pt x="265" y="735" on="1"/>
        <pt x="265" y="697" on="0"/>
        <pt x="310" y="650" on="0"/>
        <pt x="340" y="650" on="1"/>
        <pt x="370" y="650" on="0"/>
        <pt x="415" y="697" on="0"/>
        <pt x="415" y="735" on="1"/>
        <pt x="530" y="735" on="1"/>
        <pt x="530" y="667" on="0"/>
        <pt x="434" y="580" on="0"/>
      </contour>
      <contour>
        <pt x="630" y="520" on="1"/>
        <pt x="630" y="0" on="1"/>
        <pt x="490" y="0" on="1"/>
        <pt x="490" y="390" on="1"/>
        <pt x="480" y="390" on="1"/>
        <pt x="250" y="0" on="1"/>
        <pt x="70" y="0" on="1"/>
        <pt x="70" y="520" on="1"/>
        <pt x="210" y="520" on="1"/>
        <pt x="210" y="130" on="1"/>
        <pt x="220" y="130" on="1"/>
        <pt x="450" y="520" on="1"/>
      </contour>
    </TTGlyph>
    <TTGlyph name="afii10076" xMin="70" yMin="0" xMax="630" yMax="520">
      <contour>
        <pt x="315" y="225" on="1"/>
        <pt x="210" y="225" on="1"/>
        <pt x="210" y="0" on="1"/>
        <pt x="70" y="0" on="1"/>
        <pt x="70" y="520" on="1"/>
        <pt x="210" y="520" on="1"/>
        <pt x="210" y="295" on="1"/>
        <pt x="315" y="295" on="1"/>
        <pt x="470" y="520" on="1"/>
        <pt x="620" y="520" on="1"/>
        <pt x="445" y="265" on="1"/>
        <pt x="630" y="0" on="1"/>
        <pt x="470" y="0" on="1"/>
      </contour>
    </TTGlyph>
    <TTGlyph name="afii10077" xMin="15" yMin="-15" xMax="610" yMax="520">
      <contour>
        <pt x="15" y="55" on="1"/>
        <pt x="45" y="55" on="1"/>
        <pt x="58" y="55" on="0"/>
        <pt x="80" y="66" on="0"/>
        <pt x="97" y="92" on="0"/>
        <pt x="108" y="136" on="0"/>
        <pt x="110" y="170" on="1"/>
        <pt x="130" y="520" on="1"/>
        <pt x="610" y="520" on="1"/>
        <pt x="610" y="0" on="1"/>
        <pt x="470" y="0" on="1"/>
        <pt x="470" y="450" on="1"/>
        <pt x="260" y="450" on="1"/>
        <pt x="245" y="170" on="1"/>
        <pt x="240" y="69" on="0"/>
        <pt x="155" y="-15" on="0"/>
        <pt x="80" y="-15" on="1"/>
        <pt x="56" y="-15" on="0"/>
        <pt x="36" y="-10" on="1"/>
        <pt x="25" y="-8" on="0"/>
        <pt x="15" y="-5" on="1"/>
      </contour>
    </TTGlyph>
    <TTGlyph name="afii10078" xMin="70" yMin="0" xMax="820" yMax="520">
      <contour>
        <pt x="450" y="90" on="1"/>
        <pt x="615" y="520" on="1"/>
        <pt x="820" y="520" on="1"/>
        <pt x="820" y="0" on="1"/>
        <pt x="680" y="0" on="1"/>
        <pt x="680" y="380" on="1"/>
        <pt x="670" y="380" on="1"/>
        <pt x="525" y="0" on="1"/>
        <pt x="366" y="0" on="1"/>
        <pt x="220" y="380" on="1"/>
        <pt x="210" y="380" on="1"/>
        <pt x="210" y="0" on="1"/>
        <pt x="70" y="0" on="1"/>
        <pt x="70" y="520" on="1"/>
        <pt x="275" y="520" on="1"/>
        <pt x="440" y="90" on="1"/>
      </contour>
    </TTGlyph>
    <TTGlyph name="afii10079" xMin="70" yMin="0" xMax="620" yMax="520">
      <contour>
        <pt x="620" y="520" on="1"/>
        <pt x="620" y="0" on="1"/>
        <pt x="480" y="0" on="1"/>
        <pt x="480" y="230" on="1"/>
        <pt x="210" y="230" on="1"/>
        <pt x="210" y="0" on="1"/>
        <pt x="70" y="0" on="1"/>
        <pt x="70" y="520" on="1"/>
        <pt x="210" y="520" on="1"/>
        <pt x="210" y="300" on="1"/>
        <pt x="480" y="300" on="1"/>
        <pt x="480" y="520" on="1"/>
      </contour>
    </TTGlyph>
    <TTGlyph name="afii10080" xMin="45" yMin="-20" xMax="655" yMax="540">
      <contour>
        <pt x="350" y="45" on="1"/>
        <pt x="382" y="45" on="0"/>
        <pt x="438" y="69" on="0"/>
        <pt x="480" y="120" on="0"/>
        <pt x="505" y="202" on="0"/>
        <pt x="505" y="260" on="1"/>
        <pt x="505" y="318" on="0"/>
        <pt x="480" y="400" on="0"/>
        <pt x="438" y="451" on="0"/>
        <pt x="382" y="475" on="0"/>
        <pt x="350" y="475" on="1"/>
        <pt x="318" y="475" on="0"/>
        <pt x="262" y="451" on="0"/>
        <pt x="220" y="400" on="0"/>
        <pt x="195" y="318" on="0"/>
        <pt x="195" y="260" on="1"/>
        <pt x="195" y="202" on="0"/>
        <pt x="220" y="120" on="0"/>
        <pt x="262" y="69" on="0"/>
        <pt x="318" y="45" on="0"/>
      </contour>
      <contour>
        <pt x="350" y="540" on="1"/>
        <pt x="417" y="540" on="0"/>
        <pt x="530" y="503" on="0"/>
        <pt x="610" y="432" on="0"/>
        <pt x="655" y="327" on="0"/>
        <pt x="655" y="260" on="1"/>
        <pt x="655" y="192" on="0"/>
        <pt x="610" y="88" on="0"/>
        <pt x="530" y="17" on="0"/>
        <pt x="417" y="-20" on="0"/>
        <pt x="350" y="-20" on="1"/>
        <pt x="282" y="-20" on="0"/>
        <pt x="170" y="17" on="0"/>
        <pt x="90" y="88" on="0"/>
        <pt x="45" y="192" on="0"/>
        <pt x="45" y="260" on="1"/>
        <pt x="45" y="327" on="0"/>
        <pt x="90" y="432" on="0"/>
        <pt x="170" y="503" on="0"/>
        <pt x="282" y="540" on="0"/>
      </contour>
    </TTGlyph>
    <TTGlyph name="afii10081" xMin="70" yMin="0" xMax="620" yMax="520">
      <contour>
        <pt x="620" y="520" on="1"/>
        <pt x="620" y="0" on="1"/>
        <pt x="480" y="0" on="1"/>
        <pt x="480" y="450" on="1"/>
        <pt x="210" y="450" on="1"/>
        <pt x="210" y="0" on="1"/>
        <pt x="70" y="0" on="1"/>
        <pt x="70" y="520" on="1"/>
      </contour>
    </TTGlyph>
    <TTGlyph name="afii10082" xMin="70" yMin="-180" xMax="640" yMax="520">
      <contour>
        <pt x="210" y="450" on="1"/>
        <pt x="210" y="70" on="1"/>
        <pt x="335" y="70" on="1"/>
        <pt x="369" y="70" on="0"/>
        <pt x="426" y="91" on="0"/>
        <pt x="467" y="137" on="0"/>
        <pt x="490" y="209" on="0"/>
        <pt x="490" y="260" on="1"/>
        <pt x="490" y="311" on="0"/>
        <pt x="467" y="383" on="0"/>
        <pt x="426" y="429" on="0"/>
        <pt x="369" y="450" on="0"/>
        <pt x="335" y="450" on="1"/>
      </contour>
      <contour>
        <pt x="335" y="520" on="1"/>
        <pt x="404" y="520" on="0"/>
        <pt x="517" y="484" on="0"/>
        <pt x="597" y="416" on="0"/>
        <pt x="640" y="320" on="0"/>
        <pt x="640" y="260" on="1"/>
        <pt x="640" y="200" on="0"/>
        <pt x="597" y="104" on="0"/>
        <pt x="517" y="36" on="0"/>
        <pt x="404" y="0" on="0"/>
        <pt x="335" y="0" on="1"/>
        <pt x="210" y="0" on="1"/>
        <pt x="210" y="-180" on="1"/>
        <pt x="70" y="-180" on="1"/>
        <pt x="70" y="520" on="1"/>
      </contour>
    </TTGlyph>
    <TTGlyph name="afii10083" xMin="45" yMin="-20" xMax="585" yMax="540">
      <contour>
        <pt x="350" y="540" on="1"/>
        <pt x="382" y="540" on="0"/>
        <pt x="446" y="529" on="0"/>
        <pt x="505" y="510" on="0"/>
        <pt x="556" y="482" on="0"/>
        <pt x="575" y="465" on="1"/>
        <pt x="535" y="405" on="1"/>
        <pt x="494" y="436" on="0"/>
        <pt x="409" y="470" on="0"/>
        <pt x="360" y="470" on="1"/>
        <pt x="324" y="470" on="0"/>
        <pt x="264" y="447" on="0"/>
        <pt x="220" y="396" on="0"/>
        <pt x="195" y="316" on="0"/>
        <pt x="195" y="260" on="1"/>
        <pt x="195" y="204" on="0"/>
        <pt x="220" y="124" on="0"/>
        <pt x="266" y="73" on="0"/>
        <pt x="331" y="50" on="0"/>
        <pt x="370" y="50" on="1"/>
        <pt x="419" y="50" on="0"/>
        <pt x="504" y="84" on="0"/>
        <pt x="545" y="115" on="1"/>
        <pt x="585" y="55" on="1"/>
        <pt x="566" y="38" on="0"/>
        <pt x="515" y="10" on="0"/>
        <pt x="456" y="-9" on="0"/>
        <pt x="392" y="-20" on="0"/>
        <pt x="360" y="-20" on="1"/>
        <pt x="289" y="-20" on="0"/>
        <pt x="172" y="17" on="0"/>
        <pt x="90" y="88" on="0"/>
        <pt x="45" y="192" on="0"/>
        <pt x="45" y="260" on="1"/>
        <pt x="45" y="327" on="0"/>
        <pt x="90" y="432" on="0"/>
        <pt x="170" y="503" on="0"/>
        <pt x="282" y="540" on="0"/>
      </contour>
    </TTGlyph>
    <TTGlyph name="afii10084" xMin="10" yMin="0" xMax="570" yMax="520">
      <contour>
        <pt x="570" y="450" on="1"/>
        <pt x="360" y="450" on="1"/>
        <pt x="360" y="0" on="1"/>
        <pt x="220" y="0" on="1"/>
        <pt x="220" y="450" on="1"/>
        <pt x="10" y="450" on="1"/>
        <pt x="10" y="520" on="1"/>
        <pt x="570" y="520" on="1"/>
      </contour>
    </TTGlyph>
    <TTGlyph name="afii10085" xMin="10" yMin="-180" xMax="640" yMax="520">
      <contour>
        <pt x="375" y="-180" on="1"/>
        <pt x="235" y="-180" on="1"/>
        <pt x="305" y="0" on="1"/>
        <pt x="220" y="0" on="1"/>
        <pt x="10" y="520" on="1"/>
        <pt x="150" y="520" on="1"/>
        <pt x="325" y="85" on="1"/>
        <pt x="335" y="85" on="1"/>
        <pt x="500" y="520" on="1"/>
        <pt x="640" y="520" on="1"/>
      </contour>
    </TTGlyph>
    <TTGlyph name="afii10086" xMin="45" yMin="-180" xMax="805" yMax="700">
      <contour>
        <pt x="355" y="-180" on="1"/>
        <pt x="355" y="0" on="1"/>
        <pt x="340" y="0" on="1"/>
        <pt x="274" y="0" on="0"/>
        <pt x="166" y="36" on="0"/>
        <pt x="88" y="104" on="0"/>
        <pt x="45" y="200" on="0"/>
        <pt x="45" y="260" on="1"/>
        <pt x="45" y="320" on="0"/>
        <pt x="88" y="416" on="0"/>
        <pt x="166" y="484" on="0"/>
        <pt x="274" y="520" on="0"/>
        <pt x="340" y="520" on="1"/>
        <pt x="355" y="520" on="1"/>
        <pt x="355" y="700" on="1"/>
        <pt x="495" y="700" on="1"/>
        <pt x="495" y="520" on="1"/>
        <pt x="510" y="520" on="1"/>
        <pt x="576" y="520" on="0"/>
        <pt x="684" y="484" on="0"/>
        <pt x="762" y="416" on="0"/>
        <pt x="805" y="320" on="0"/>
        <pt x="805" y="260" on="1"/>
        <pt x="805" y="200" on="0"/>
        <pt x="762" y="104" on="0"/>
        <pt x="684" y="36" on="0"/>
        <pt x="576" y="0" on="0"/>
        <pt x="510" y="0" on="1"/>
        <pt x="495" y="0" on="1"/>
        <pt x="495" y="-180" on="1"/>
      </contour>
      <contour>
        <pt x="355" y="70" on="1"/>
        <pt x="355" y="450" on="1"/>
        <pt x="340" y="450" on="1"/>
        <pt x="310" y="450" on="0"/>
        <pt x="257" y="429" on="0"/>
        <pt x="218" y="383" on="0"/>
        <pt x="195" y="311" on="0"/>
        <pt x="195" y="260" on="1"/>
        <pt x="195" y="209" on="0"/>
        <pt x="218" y="137" on="0"/>
        <pt x="257" y="91" on="0"/>
        <pt x="310" y="70" on="0"/>
        <pt x="340" y="70" on="1"/>
      </contour>
      <contour>
        <pt x="495" y="450" on="1"/>
        <pt x="495" y="70" on="1"/>
        <pt x="510" y="70" on="1"/>
        <pt x="540" y="70" on="0"/>
        <pt x="593" y="91" on="0"/>
        <pt x="632" y="137" on="0"/>
        <pt x="655" y="209" on="0"/>
        <pt x="655" y="260" on="1"/>
        <pt x="655" y="311" on="0"/>
        <pt x="632" y="383" on="0"/>
        <pt x="593" y="429" on="0"/>
        <pt x="540" y="450" on="0"/>
        <pt x="510" y="450" on="1"/>
      </contour>
    </TTGlyph>
    <TTGlyph name="afii10087" xMin="10" yMin="0" xMax="610" yMax="520">
      <contour>
        <pt x="390" y="263" on="1"/>
        <pt x="610" y="0" on="1"/>
        <pt x="450" y="0" on="1"/>
        <pt x="310" y="167" on="1"/>
        <pt x="170" y="0" on="1"/>
        <pt x="10" y="0" on="1"/>
        <pt x="230" y="263" on="1"/>
        <pt x="15" y="520" on="1"/>
        <pt x="175" y="520" on="1"/>
        <pt x="310" y="358" on="1"/>
        <pt x="445" y="520" on="1"/>
        <pt x="605" y="520" on="1"/>
      </contour>
    </TTGlyph>
    <TTGlyph name="afii10088" xMin="70" yMin="-150" xMax="685" yMax="520">
      <contour>
        <pt x="70" y="0" on="1"/>
        <pt x="70" y="520" on="1"/>
        <pt x="210" y="520" on="1"/>
        <pt x="210" y="70" on="1"/>
        <pt x="460" y="70" on="1"/>
        <pt x="460" y="520" on="1"/>
        <pt x="600" y="520" on="1"/>
        <pt x="600" y="70" on="1"/>
        <pt x="685" y="70" on="1"/>
        <pt x="685" y="-150" on="1"/>
        <pt x="570" y="-150" on="1"/>
        <pt x="550" y="0" on="1"/>
      </contour>
    </TTGlyph>
    <TTGlyph name="afii10089" xMin="55" yMin="0" xMax="585" yMax="520">
      <contour>
        <pt x="55" y="520" on="1"/>
        <pt x="195" y="520" on="1"/>
        <pt x="195" y="340" on="1"/>
        <pt x="195" y="291" on="0"/>
        <pt x="251" y="240" on="0"/>
        <pt x="315" y="240" on="1"/>
        <pt x="445" y="240" on="1"/>
        <pt x="445" y="520" on="1"/>
        <pt x="585" y="520" on="1"/>
        <pt x="585" y="0" on="1"/>
        <pt x="445" y="0" on="1"/>
        <pt x="445" y="170" on="1"/>
        <pt x="315" y="170" on="1"/>
        <pt x="246" y="170" on="0"/>
        <pt x="147" y="194" on="0"/>
        <pt x="84" y="238" on="0"/>
        <pt x="55" y="301" on="0"/>
        <pt x="55" y="340" on="1"/>
      </contour>
    </TTGlyph>
    <TTGlyph name="afii10090" xMin="70" yMin="0" xMax="850" yMax="520">
      <contour>
        <pt x="70" y="0" on="1"/>
        <pt x="70" y="520" on="1"/>
        <pt x="210" y="520" on="1"/>
        <pt x="210" y="70" on="1"/>
        <pt x="390" y="70" on="1"/>
        <pt x="390" y="520" on="1"/>
        <pt x="530" y="520" on="1"/>
        <pt x="530" y="70" on="1"/>
        <pt x="710" y="70" on="1"/>
        <pt x="710" y="520" on="1"/>
        <pt x="850" y="520" on="1"/>
        <pt x="850" y="0" on="1"/>
      </contour>
    </TTGlyph>
    <TTGlyph name="afii10091" xMin="70" yMin="-150" xMax="935" yMax="520">
      <contour>
        <pt x="70" y="0" on="1"/>
        <pt x="70" y="520" on="1"/>
        <pt x="210" y="520" on="1"/>
        <pt x="210" y="70" on="1"/>
        <pt x="390" y="70" on="1"/>
        <pt x="390" y="520" on="1"/>
        <pt x="530" y="520" on="1"/>
        <pt x="530" y="70" on="1"/>
        <pt x="710" y="70" on="1"/>
        <pt x="710" y="520" on="1"/>
        <pt x="850" y="520" on="1"/>
        <pt x="850" y="70" on="1"/>
        <pt x="935" y="70" on="1"/>
        <pt x="935" y="-150" on="1"/>
        <pt x="820" y="-150" on="1"/>
        <pt x="800" y="0" on="1"/>
      </contour>
    </TTGlyph>
    <TTGlyph name="afii10092" xMin="10" yMin="0" xMax="685" yMax="520">
      <contour>
        <pt x="440" y="340" on="1"/>
        <pt x="568" y="340" on="0"/>
        <pt x="685" y="249" on="0"/>
        <pt x="685" y="170" on="1"/>
        <pt x="685" y="91" on="0"/>
        <pt x="568" y="0" on="0"/>
        <pt x="440" y="0" on="1"/>
        <pt x="150" y="0" on="1"/>
        <pt x="150" y="440" on="1"/>
        <pt x="10" y="440" on="1"/>
        <pt x="10" y="520" on="1"/>
        <pt x="290" y="520" on="1"/>
        <pt x="290" y="340" on="1"/>
      </contour>
      <contour>
        <pt x="290" y="270" on="1"/>
        <pt x="290" y="70" on="1"/>
        <pt x="440" y="70" on="1"/>
        <pt x="485" y="70" on="0"/>
        <pt x="535" y="121" on="0"/>
        <pt x="535" y="170" on="1"/>
        <pt x="535" y="219" on="0"/>
        <pt x="485" y="270" on="0"/>
        <pt x="440" y="270" on="1"/>
      </contour>
    </TTGlyph>
    <TTGlyph name="afii10093" xMin="70" yMin="0" xMax="800" yMax="520">
      <contour>
        <pt x="660" y="0" on="1"/>
        <pt x="660" y="520" on="1"/>
        <pt x="800" y="520" on="1"/>
        <pt x="800" y="0" on="1"/>
      </contour>
      <contour>
        <pt x="340" y="340" on="1"/>
        <pt x="468" y="340" on="0"/>
        <pt x="585" y="249" on="0"/>
        <pt x="585" y="170" on="1"/>
        <pt x="585" y="91" on="0"/>
        <pt x="468" y="0" on="0"/>
        <pt x="340" y="0" on="1"/>
        <pt x="70" y="0" on="1"/>
        <pt x="70" y="520" on="1"/>
        <pt x="210" y="520" on="1"/>
        <pt x="210" y="340" on="1"/>
      </contour>
      <contour>
        <pt x="210" y="270" on="1"/>
        <pt x="210" y="70" on="1"/>
        <pt x="340" y="70" on="1"/>
        <pt x="385" y="70" on="0"/>
        <pt x="435" y="121" on="0"/>
        <pt x="435" y="170" on="1"/>
        <pt x="435" y="219" on="0"/>
        <pt x="385" y="270" on="0"/>
        <pt x="340" y="270" on="1"/>
      </contour>
    </TTGlyph>
    <TTGlyph name="afii10094" xMin="70" yMin="0" xMax="605" yMax="520">
      <contour>
        <pt x="360" y="340" on="1"/>
        <pt x="488" y="340" on="0"/>
        <pt x="605" y="249" on="0"/>
        <pt x="605" y="170" on="1"/>
        <pt x="605" y="91" on="0"/>
        <pt x="488" y="0" on="0"/>
        <pt x="360" y="0" on="1"/>
        <pt x="70" y="0" on="1"/>
        <pt x="70" y="520" on="1"/>
        <pt x="210" y="520" on="1"/>
        <pt x="210" y="340" on="1"/>
      </contour>
      <contour>
        <pt x="210" y="270" on="1"/>
        <pt x="210" y="70" on="1"/>
        <pt x="360" y="70" on="1"/>
        <pt x="405" y="70" on="0"/>
        <pt x="455" y="121" on="0"/>
        <pt x="455" y="170" on="1"/>
        <pt x="455" y="219" on="0"/>
        <pt x="405" y="270" on="0"/>
        <pt x="360" y="270" on="1"/>
      </contour>
    </TTGlyph>
    <TTGlyph name="afii10095" xMin="35" yMin="-20" xMax="575" yMax="540">
      <contour>
        <pt x="270" y="540" on="1"/>
        <pt x="337" y="540" on="0"/>
        <pt x="450" y="503" on="0"/>
        <pt x="530" y="432" on="0"/>
        <pt x="575" y="327" on="0"/>
        <pt x="575" y="260" on="1"/>
        <pt x="575" y="192" on="0"/>
        <pt x="530" y="88" on="0"/>
        <pt x="447" y="17" on="0"/>
        <pt x="331" y="-20" on="0"/>
        <pt x="260" y="-20" on="1"/>
        <pt x="228" y="-20" on="0"/>
        <pt x="164" y="-9" on="0"/>
        <pt x="105" y="10" on="0"/>
        <pt x="54" y="38" on="0"/>
        <pt x="35" y="55" on="1"/>
        <pt x="75" y="115" on="1"/>
        <pt x="116" y="84" on="0"/>
        <pt x="201" y="50" on="0"/>
        <pt x="250" y="50" on="1"/>
        <pt x="323" y="50" on="0"/>
        <pt x="417" y="134" on="0"/>
        <pt x="424" y="230" on="1"/>
        <pt x="165" y="230" on="1"/>
        <pt x="165" y="300" on="1"/>
        <pt x="423" y="300" on="1"/>
        <pt x="418" y="345" on="0"/>
        <pt x="391" y="410" on="0"/>
        <pt x="348" y="451" on="0"/>
        <pt x="292" y="470" on="0"/>
        <pt x="260" y="470" on="1"/>
        <pt x="211" y="470" on="0"/>
        <pt x="126" y="436" on="0"/>
        <pt x="85" y="405" on="1"/>
        <pt x="45" y="465" on="1"/>
        <pt x="64" y="482" on="0"/>
        <pt x="115" y="510" on="0"/>
        <pt x="174" y="529" on="0"/>
        <pt x="238" y="540" on="0"/>
      </contour>
    </TTGlyph>
    <TTGlyph name="afii10096" xMin="70" yMin="-20" xMax="885" yMax="540">
      <contour>
        <pt x="595" y="540" on="1"/>
        <pt x="657" y="540" on="0"/>
        <pt x="763" y="503" on="0"/>
        <pt x="841" y="432" on="0"/>
        <pt x="885" y="327" on="0"/>
        <pt x="885" y="260" on="1"/>
        <pt x="885" y="192" on="0"/>
        <pt x="841" y="88" on="0"/>
        <pt x="763" y="17" on="0"/>
        <pt x="657" y="-20" on="0"/>
        <pt x="595" y="-20" on="1"/>
        <pt x="536" y="-20" on="0"/>
        <pt x="435" y="13" on="0"/>
        <pt x="359" y="76" on="0"/>
        <pt x="311" y="170" on="0"/>
        <pt x="306" y="230" on="1"/>
        <pt x="210" y="230" on="1"/>
        <pt x="210" y="0" on="1"/>
        <pt x="70" y="0" on="1"/>
        <pt x="70" y="520" on="1"/>
        <pt x="210" y="520" on="1"/>
        <pt x="210" y="300" on="1"/>
        <pt x="307" y="300" on="1"/>
        <pt x="313" y="358" on="0"/>
        <pt x="362" y="447" on="0"/>
        <pt x="438" y="508" on="0"/>
        <pt x="538" y="540" on="0"/>
      </contour>
      <contour>
        <pt x="595" y="45" on="1"/>
        <pt x="621" y="45" on="0"/>
        <pt x="672" y="69" on="0"/>
        <pt x="711" y="120" on="0"/>
        <pt x="735" y="202" on="0"/>
        <pt x="735" y="260" on="1"/>
        <pt x="735" y="318" on="0"/>
        <pt x="711" y="400" on="0"/>
        <pt x="672" y="451" on="0"/>
        <pt x="621" y="475" on="0"/>
        <pt x="595" y="475" on="1"/>
        <pt x="569" y="475" on="0"/>
        <pt x="518" y="451" on="0"/>
        <pt x="479" y="400" on="0"/>
        <pt x="455" y="318" on="0"/>
        <pt x="455" y="260" on="1"/>
        <pt x="455" y="202" on="0"/>
        <pt x="479" y="120" on="0"/>
        <pt x="518" y="69" on="0"/>
        <pt x="569" y="45" on="0"/>
      </contour>
    </TTGlyph>
    <TTGlyph name="afii10097" xMin="40" yMin="0" xMax="580" yMax="520">
      <contour>
        <pt x="40" y="0" on="1"/>
        <pt x="174" y="193" on="1"/>
        <pt x="107" y="211" on="0"/>
        <pt x="45" y="292" on="0"/>
        <pt x="45" y="350" on="1"/>
        <pt x="45" y="429" on="0"/>
        <pt x="162" y="520" on="0"/>
        <pt x="290" y="520" on="1"/>
        <pt x="580" y="520" on="1"/>
        <pt x="580" y="0" on="1"/>
        <pt x="440" y="0" on="1"/>
        <pt x="440" y="180" on="1"/>
        <pt x="326" y="180" on="1"/>
        <pt x="200" y="0" on="1"/>
      </contour>
      <contour>
        <pt x="440" y="250" on="1"/>
        <pt x="440" y="450" on="1"/>
        <pt x="290" y="450" on="1"/>
        <pt x="245" y="450" on="0"/>
        <pt x="195" y="399" on="0"/>
        <pt x="195" y="350" on="1"/>
        <pt x="195" y="301" on="0"/>
        <pt x="245" y="250" on="0"/>
        <pt x="290" y="250" on="1"/>
      </contour>
    </TTGlyph>
    <TTGlyph name="afii10098" xMin="70" yMin="0" xMax="490" yMax="635">
      <contour>
        <pt x="385" y="635" on="1"/>
        <pt x="490" y="635" on="1"/>
        <pt x="490" y="450" on="1"/>
        <pt x="210" y="450" on="1"/>
        <pt x="210" y="0" on="1"/>
        <pt x="70" y="0" on="1"/>
        <pt x="70" y="520" on="1"/>
        <pt x="365" y="520" on="1"/>
      </contour>
    </TTGlyph>
    <TTGlyph name="afii10099" xMin="20" yMin="-15" xMax="660" yMax="700">
      <contour>
        <pt x="520" y="265" on="1"/>
        <pt x="520" y="337" on="0"/>
        <pt x="448" y="400" on="0"/>
        <pt x="380" y="400" on="1"/>
        <pt x="250" y="400" on="1"/>
        <pt x="250" y="0" on="1"/>
        <pt x="110" y="0" on="1"/>
        <pt x="110" y="550" on="1"/>
        <pt x="20" y="550" on="1"/>
        <pt x="20" y="620" on="1"/>
        <pt x="110" y="620" on="1"/>
        <pt x="110" y="700" on="1"/>
        <pt x="250" y="700" on="1"/>
        <pt x="250" y="620" on="1"/>
        <pt x="410" y="620" on="1"/>
        <pt x="410" y="550" on="1"/>
        <pt x="250" y="550" on="1"/>
        <pt x="250" y="470" on="1"/>
        <pt x="380" y="470" on="1"/>
        <pt x="523" y="470" on="0"/>
        <pt x="660" y="367" on="0"/>
        <pt x="660" y="265" on="1"/>
        <pt x="660" y="170" on="1"/>
        <pt x="660" y="69" on="0"/>
        <pt x="572" y="-15" on="0"/>
        <pt x="490" y="-15" on="1"/>
        <pt x="460" y="-15" on="0"/>
        <pt x="437" y="-10" on="1"/>
        <pt x="425" y="-8" on="0"/>
        <pt x="415" y="-5" on="1"/>
        <pt x="415" y="55" on="1"/>
        <pt x="455" y="55" on="1"/>
        <pt x="470" y="55" on="0"/>
        <pt x="494" y="66" on="0"/>
        <pt x="511" y="92" on="0"/>
        <pt x="520" y="136" on="0"/>
        <pt x="520" y="170" on="1"/>
      </contour>
    </TTGlyph>
    <TTGlyph name="afii10100" xMin="70" yMin="0" xMax="490" yMax="730">
      <contour>
        <pt x="490" y="450" on="1"/>
        <pt x="210" y="450" on="1"/>
        <pt x="210" y="0" on="1"/>
        <pt x="70" y="0" on="1"/>
        <pt x="70" y="520" on="1"/>
        <pt x="490" y="520" on="1"/>
      </contour>
      <contour>
        <pt x="426" y="730" on="1"/>
        <pt x="320" y="580" on="1"/>
        <pt x="225" y="580" on="1"/>
        <pt x="285" y="730" on="1"/>
      </contour>
    </TTGlyph>
    <TTGlyph name="afii10101" xMin="45" yMin="-20" xMax="585" yMax="540">
      <contour>
        <pt x="350" y="540" on="1"/>
        <pt x="382" y="540" on="0"/>
        <pt x="446" y="529" on="0"/>
        <pt x="505" y="510" on="0"/>
        <pt x="556" y="482" on="0"/>
        <pt x="575" y="465" on="1"/>
        <pt x="535" y="405" on="1"/>
        <pt x="494" y="436" on="0"/>
        <pt x="409" y="470" on="0"/>
        <pt x="360" y="470" on="1"/>
        <pt x="328" y="470" on="0"/>
        <pt x="272" y="451" on="0"/>
        <pt x="229" y="410" on="0"/>
        <pt x="201" y="345" on="0"/>
        <pt x="197" y="300" on="1"/>
        <pt x="455" y="300" on="1"/>
        <pt x="455" y="230" on="1"/>
        <pt x="196" y="230" on="1"/>
        <pt x="203" y="134" on="0"/>
        <pt x="296" y="50" on="0"/>
        <pt x="370" y="50" on="1"/>
        <pt x="419" y="50" on="0"/>
        <pt x="504" y="84" on="0"/>
        <pt x="545" y="115" on="1"/>
        <pt x="585" y="55" on="1"/>
        <pt x="566" y="38" on="0"/>
        <pt x="515" y="10" on="0"/>
        <pt x="456" y="-9" on="0"/>
        <pt x="392" y="-20" on="0"/>
        <pt x="360" y="-20" on="1"/>
        <pt x="289" y="-20" on="0"/>
        <pt x="172" y="17" on="0"/>
        <pt x="90" y="88" on="0"/>
        <pt x="45" y="192" on="0"/>
        <pt x="45" y="260" on="1"/>
        <pt x="45" y="327" on="0"/>
        <pt x="90" y="432" on="0"/>
        <pt x="170" y="503" on="0"/>
        <pt x="282" y="540" on="0"/>
      </contour>
    </TTGlyph>
    <TTGlyph name="afii10102" xMin="30" yMin="-20" xMax="585" yMax="540">
      <contour>
        <pt x="190" y="410" on="1"/>
        <pt x="190" y="387" on="0"/>
        <pt x="231" y="349" on="0"/>
        <pt x="280" y="335" on="1"/>
        <pt x="435" y="290" on="1"/>
        <pt x="507" y="269" on="0"/>
        <pt x="585" y="197" on="0"/>
        <pt x="585" y="140" on="1"/>
        <pt x="585" y="104" on="0"/>
        <pt x="555" y="45" on="0"/>
        <pt x="487" y="3" on="0"/>
        <pt x="379" y="-20" on="0"/>
        <pt x="300" y="-20" on="1"/>
        <pt x="259" y="-20" on="0"/>
        <pt x="180" y="-8" on="0"/>
        <pt x="109" y="13" on="0"/>
        <pt x="51" y="40" on="0"/>
        <pt x="30" y="55" on="1"/>
        <pt x="70" y="115" on="1"/>
        <pt x="112" y="89" on="0"/>
        <pt x="225" y="50" on="0"/>
        <pt x="300" y="50" on="1"/>
        <pt x="375" y="50" on="0"/>
        <pt x="435" y="90" on="0"/>
        <pt x="435" y="120" on="1"/>
        <pt x="435" y="143" on="0"/>
        <pt x="393" y="180" on="0"/>
        <pt x="340" y="195" on="1"/>
        <pt x="185" y="240" on="1"/>
        <pt x="121" y="259" on="0"/>
        <pt x="40" y="330" on="0"/>
        <pt x="40" y="390" on="1"/>
        <pt x="40" y="422" on="0"/>
        <pt x="69" y="477" on="0"/>
        <pt x="131" y="517" on="0"/>
        <pt x="227" y="540" on="0"/>
        <pt x="295" y="540" on="1"/>
        <pt x="378" y="540" on="0"/>
        <pt x="513" y="495" on="0"/>
        <pt x="555" y="465" on="1"/>
        <pt x="515" y="405" on="1"/>
        <pt x="474" y="431" on="0"/>
        <pt x="370" y="470" on="0"/>
        <pt x="295" y="470" on="1"/>
        <pt x="242" y="470" on="0"/>
        <pt x="190" y="436" on="0"/>
      </contour>
    </TTGlyph>
    <TTGlyph name="afii10103" xMin="65" yMin="0" xMax="215" yMax="720">
      <contour>
        <pt x="210" y="0" on="1"/>
        <pt x="70" y="0" on="1"/>
        <pt x="70" y="510" on="1"/>
        <pt x="210" y="510" on="1"/>
      </contour>
      <contour>
        <pt x="215" y="645" on="1"/>
        <pt x="215" y="615" on="0"/>
        <pt x="174" y="570" on="0"/>
        <pt x="140" y="570" on="1"/>
        <pt x="106" y="570" on="0"/>
        <pt x="65" y="615" on="0"/>
        <pt x="65" y="645" on="1"/>
        <pt x="65" y="675" on="0"/>
        <pt x="106" y="720" on="0"/>
        <pt x="140" y="720" on="1"/>
        <pt x="173" y="720" on="0"/>
        <pt x="215" y="675" on="0"/>
      </contour>
    </TTGlyph>
    <TTGlyph name="afii10104" xMin="-30" yMin="0" xMax="330" yMax="720">
      <contour>
        <pt x="220" y="0" on="1"/>
        <pt x="80" y="0" on="1"/>
        <pt x="80" y="510" on="1"/>
        <pt x="220" y="510" on="1"/>
      </contour>
      <contour>
        <pt x="120" y="645" on="1"/>
        <pt x="120" y="615" on="0"/>
        <pt x="79" y="570" on="0"/>
        <pt x="45" y="570" on="1"/>
        <pt x="11" y="570" on="0"/>
        <pt x="-30" y="615" on="0"/>
        <pt x="-30" y="645" on="1"/>
        <pt x="-30" y="675" on="0"/>
        <pt x="11" y="720" on="0"/>
        <pt x="45" y="720" on="1"/>
        <pt x="78" y="720" on="0"/>
        <pt x="120" y="675" on="0"/>
      </contour>
      <contour>
        <pt x="330" y="645" on="1"/>
        <pt x="330" y="615" on="0"/>
        <pt x="289" y="570" on="0"/>
        <pt x="255" y="570" on="1"/>
        <pt x="221" y="570" on="0"/>
        <pt x="180" y="615" on="0"/>
        <pt x="180" y="645" on="1"/>
        <pt x="180" y="675" on="0"/>
        <pt x="221" y="720" on="0"/>
        <pt x="255" y="720" on="1"/>
        <pt x="288" y="720" on="0"/>
        <pt x="330" y="675" on="0"/>
      </contour>
    </TTGlyph>
    <TTGlyph name="afii10105" xMin="-100" yMin="-200" xMax="230" yMax="720">
      <contour>
        <pt x="225" y="0" on="1"/>
        <pt x="225" y="-43" on="0"/>
        <pt x="197" y="-116" on="0"/>
        <pt x="144" y="-170" on="0"/>
        <pt x="66" y="-200" on="0"/>
        <pt x="15" y="-200" on="1"/>
        <pt x="-11" y="-200" on="0"/>
        <pt x="-70" y="-190" on="0"/>
        <pt x="-100" y="-175" on="1"/>
        <pt x="-80" y="-110" on="1"/>
        <pt x="-65" y="-118" on="0"/>
        <pt x="-24" y="-130" on="0"/>
        <pt x="-5" y="-130" on="1"/>
        <pt x="14" y="-130" on="0"/>
        <pt x="47" y="-116" on="0"/>
        <pt x="71" y="-85" on="0"/>
        <pt x="85" y="-36" on="0"/>
        <pt x="85" y="0" on="1"/>
        <pt x="85" y="510" on="1"/>
        <pt x="225" y="510" on="1"/>
      </contour>
      <contour>
        <pt x="230" y="645" on="1"/>
        <pt x="230" y="615" on="0"/>
        <pt x="189" y="570" on="0"/>
        <pt x="155" y="570" on="1"/>
        <pt x="121" y="570" on="0"/>
        <pt x="80" y="615" on="0"/>
        <pt x="80" y="645" on="1"/>
        <pt x="80" y="675" on="0"/>
        <pt x="121" y="720" on="0"/>
        <pt x="155" y="720" on="1"/>
        <pt x="188" y="720" on="0"/>
        <pt x="230" y="675" on="0"/>
      </contour>
    </TTGlyph>
    <TTGlyph name="afii10106" xMin="15" yMin="-15" xMax="995" yMax="520">
      <contour>
        <pt x="750" y="340" on="1"/>
        <pt x="878" y="340" on="0"/>
        <pt x="995" y="249" on="0"/>
        <pt x="995" y="170" on="1"/>
        <pt x="995" y="91" on="0"/>
        <pt x="878" y="0" on="0"/>
        <pt x="750" y="0" on="1"/>
        <pt x="460" y="0" on="1"/>
        <pt x="460" y="450" on="1"/>
        <pt x="260" y="450" on="1"/>
        <pt x="245" y="170" on="1"/>
        <pt x="240" y="69" on="0"/>
        <pt x="155" y="-15" on="0"/>
        <pt x="80" y="-15" on="1"/>
        <pt x="56" y="-15" on="0"/>
        <pt x="36" y="-10" on="1"/>
        <pt x="25" y="-8" on="0"/>
        <pt x="15" y="-5" on="1"/>
        <pt x="15" y="55" on="1"/>
        <pt x="45" y="55" on="1"/>
        <pt x="58" y="55" on="0"/>
        <pt x="80" y="66" on="0"/>
        <pt x="97" y="92" on="0"/>
        <pt x="108" y="136" on="0"/>
        <pt x="110" y="170" on="1"/>
        <pt x="130" y="520" on="1"/>
        <pt x="600" y="520" on="1"/>
        <pt x="600" y="340" on="1"/>
      </contour>
      <contour>
        <pt x="600" y="270" on="1"/>
        <pt x="600" y="70" on="1"/>
        <pt x="750" y="70" on="1"/>
        <pt x="795" y="70" on="0"/>
        <pt x="845" y="121" on="0"/>
        <pt x="845" y="170" on="1"/>
        <pt x="845" y="219" on="0"/>
        <pt x="795" y="270" on="0"/>
        <pt x="750" y="270" on="1"/>
      </contour>
    </TTGlyph>
    <TTGlyph name="afii10107" xMin="70" yMin="0" xMax="995" yMax="520">
      <contour>
        <pt x="750" y="320" on="1"/>
        <pt x="814" y="320" on="0"/>
        <pt x="906" y="297" on="0"/>
        <pt x="966" y="255" on="0"/>
        <pt x="995" y="196" on="0"/>
        <pt x="995" y="160" on="1"/>
        <pt x="995" y="124" on="0"/>
        <pt x="966" y="65" on="0"/>
        <pt x="906" y="23" on="0"/>
        <pt x="814" y="0" on="0"/>
        <pt x="750" y="0" on="1"/>
        <pt x="460" y="0" on="1"/>
        <pt x="460" y="240" on="1"/>
        <pt x="210" y="240" on="1"/>
        <pt x="210" y="0" on="1"/>
        <pt x="70" y="0" on="1"/>
        <pt x="70" y="520" on="1"/>
        <pt x="210" y="520" on="1"/>
        <pt x="210" y="310" on="1"/>
        <pt x="460" y="310" on="1"/>
        <pt x="460" y="520" on="1"/>
        <pt x="600" y="520" on="1"/>
        <pt x="600" y="320" on="1"/>
      </contour>
      <contour>
        <pt x="600" y="250" on="1"/>
        <pt x="600" y="70" on="1"/>
        <pt x="750" y="70" on="1"/>
        <pt x="795" y="70" on="0"/>
        <pt x="845" y="118" on="0"/>
        <pt x="845" y="160" on="1"/>
        <pt x="845" y="202" on="0"/>
        <pt x="795" y="250" on="0"/>
        <pt x="750" y="250" on="1"/>
      </contour>
    </TTGlyph>
    <TTGlyph name="afii10108" xMin="20" yMin="0" xMax="660" yMax="700">
      <contour>
        <pt x="410" y="550" on="1"/>
        <pt x="250" y="550" on="1"/>
        <pt x="250" y="470" on="1"/>
        <pt x="380" y="470" on="1"/>
        <pt x="523" y="470" on="0"/>
        <pt x="660" y="367" on="0"/>
        <pt x="660" y="265" on="1"/>
        <pt x="660" y="0" on="1"/>
        <pt x="520" y="0" on="1"/>
        <pt x="520" y="265" on="1"/>
        <pt x="520" y="337" on="0"/>
        <pt x="448" y="400" on="0"/>
        <pt x="380" y="400" on="1"/>
        <pt x="250" y="400" on="1"/>
        <pt x="250" y="0" on="1"/>
        <pt x="110" y="0" on="1"/>
        <pt x="110" y="550" on="1"/>
        <pt x="20" y="550" on="1"/>
        <pt x="20" y="620" on="1"/>
        <pt x="110" y="620" on="1"/>
        <pt x="110" y="700" on="1"/>
        <pt x="250" y="700" on="1"/>
        <pt x="250" y="620" on="1"/>
        <pt x="410" y="620" on="1"/>
      </contour>
    </TTGlyph>
    <TTGlyph name="afii10109" xMin="70" yMin="0" xMax="630" yMax="710">
      <contour>
        <pt x="315" y="225" on="1"/>
        <pt x="210" y="225" on="1"/>
        <pt x="210" y="0" on="1"/>
        <pt x="70" y="0" on="1"/>
        <pt x="70" y="520" on="1"/>
        <pt x="210" y="520" on="1"/>
        <pt x="210" y="295" on="1"/>
        <pt x="315" y="295" on="1"/>
        <pt x="470" y="520" on="1"/>
        <pt x="620" y="520" on="1"/>
        <pt x="445" y="265" on="1"/>
        <pt x="630" y="0" on="1"/>
        <pt x="470" y="0" on="1"/>
      </contour>
      <contour>
        <pt x="476" y="710" on="1"/>
        <pt x="370" y="560" on="1"/>
        <pt x="275" y="560" on="1"/>
        <pt x="335" y="710" on="1"/>
      </contour>
    </TTGlyph>
    <TTGlyph name="afii10110" xMin="10" yMin="-180" xMax="640" yMax="715">
      <contour>
        <pt x="375" y="-180" on="1"/>
        <pt x="235" y="-180" on="1"/>
        <pt x="305" y="0" on="1"/>
        <pt x="220" y="0" on="1"/>
        <pt x="10" y="520" on="1"/>
        <pt x="150" y="520" on="1"/>
        <pt x="325" y="85" on="1"/>
        <pt x="335" y="85" on="1"/>
        <pt x="500" y="520" on="1"/>
        <pt x="640" y="520" on="1"/>
      </contour>
      <contour>
        <pt x="325" y="560" on="1"/>
        <pt x="231" y="560" on="0"/>
        <pt x="135" y="647" on="0"/>
        <pt x="135" y="715" on="1"/>
        <pt x="250" y="715" on="1"/>
        <pt x="250" y="677" on="0"/>
        <pt x="295" y="630" on="0"/>
        <pt x="325" y="630" on="1"/>
        <pt x="355" y="630" on="0"/>
        <pt x="400" y="677" on="0"/>
        <pt x="400" y="715" on="1"/>
        <pt x="515" y="715" on="1"/>
        <pt x="515" y="647" on="0"/>
        <pt x="419" y="560" on="0"/>
      </contour>
    </TTGlyph>
    <TTGlyph name="afii10145" xMin="70" yMin="-160" xMax="770" yMax="700">
      <contour>
        <pt x="70" y="0" on="1"/>
        <pt x="70" y="700" on="1"/>
        <pt x="215" y="700" on="1"/>
        <pt x="215" y="75" on="1"/>
        <pt x="625" y="75" on="1"/>
        <pt x="625" y="700" on="1"/>
        <pt x="770" y="700" on="1"/>
        <pt x="770" y="0" on="1"/>
      </contour>
      <contour>
        <pt x="495" y="0" on="1"/>
        <pt x="475" y="-160" on="1"/>
        <pt x="365" y="-160" on="1"/>
        <pt x="345" y="0" on="1"/>
      </contour>
    </TTGlyph>
    <TTGlyph name="afii10193" xMin="70" yMin="-150" xMax="620" yMax="520">
      <contour>
        <pt x="70" y="0" on="1"/>
        <pt x="70" y="520" on="1"/>
        <pt x="210" y="520" on="1"/>
        <pt x="210" y="70" on="1"/>
        <pt x="480" y="70" on="1"/>
        <pt x="480" y="520" on="1"/>
        <pt x="620" y="520" on="1"/>
        <pt x="620" y="0" on="1"/>
        <pt x="415" y="0" on="1"/>
        <pt x="395" y="-150" on="1"/>
        <pt x="295" y="-150" on="1"/>
        <pt x="275" y="0" on="1"/>
      </contour>
    </TTGlyph>
    <TTGlyph name="afii61352" xMin="70" yMin="0" xMax="1190" yMax="720">
      <contour>
        <pt x="790" y="700" on="1"/>
        <pt x="790" y="0" on="1"/>
        <pt x="600" y="0" on="1"/>
        <pt x="225" y="570" on="1"/>
        <pt x="215" y="570" on="1"/>
        <pt x="215" y="0" on="1"/>
        <pt x="70" y="0" on="1"/>
        <pt x="70" y="700" on="1"/>
        <pt x="260" y="700" on="1"/>
        <pt x="635" y="130" on="1"/>
        <pt x="645" y="130" on="1"/>
        <pt x="645" y="700" on="1"/>
      </contour>
      <contour>
        <pt x="1015" y="720" on="1"/>
        <pt x="1052" y="720" on="0"/>
        <pt x="1117" y="699" on="0"/>
        <pt x="1163" y="658" on="0"/>
        <pt x="1190" y="596" on="0"/>
        <pt x="1190" y="555" on="1"/>
        <pt x="1190" y="514" on="0"/>
        <pt x="1163" y="452" on="0"/>
        <pt x="1117" y="411" on="0"/>
        <pt x="1052" y="390" on="0"/>
        <pt x="1015" y="390" on="1"/>
        <pt x="977" y="390" on="0"/>
        <pt x="913" y="411" on="0"/>
        <pt x="867" y="452" on="0"/>
        <pt x="840" y="514" on="0"/>
        <pt x="840" y="555" on="1"/>
        <pt x="840" y="596" on="0"/>
        <pt x="867" y="658" on="0"/>
        <pt x="913" y="699" on="0"/>
        <pt x="977" y="720" on="0"/>
      </contour>
      <contour>
        <pt x="1015" y="445" on="1"/>
        <pt x="1041" y="445" on="0"/>
        <pt x="1080" y="495" on="0"/>
        <pt x="1080" y="555" on="1"/>
        <pt x="1080" y="615" on="0"/>
        <pt x="1041" y="665" on="0"/>
        <pt x="1015" y="665" on="1"/>
        <pt x="989" y="665" on="0"/>
        <pt x="950" y="615" on="0"/>
        <pt x="950" y="555" on="1"/>
        <pt x="950" y="495" on="0"/>
        <pt x="989" y="445" on="0"/>
      </contour>
      <contour>
        <pt x="1170" y="260" on="1"/>
        <pt x="860" y="260" on="1"/>
        <pt x="860" y="340" on="1"/>
        <pt x="1170" y="340" on="1"/>
      </contour>
    </TTGlyph>
    <TTGlyph name="agrave" xMin="35" yMin="0" xMax="580" yMax="730">
      <component glyphName="a" x="0" y="0" flags="0x204"/>
      <component glyphName="acute" x="423" y="0" scalex="-0.999938964844" scaley="1.0" flags="0x4"/>
    </TTGlyph>
    <TTGlyph name="amacron" xMin="35" yMin="0" xMax="580" yMax="680">
      <component glyphName="a" x="0" y="0" flags="0x204"/>
      <component glyphName="macron" x="142" y="0" flags="0x4"/>
    </TTGlyph>
    <TTGlyph name="ampersand" xMin="30" yMin="-20" xMax="745" yMax="720">
      <contour>
        <pt x="80" y="550" on="1"/>
        <pt x="80" y="586" on="0"/>
        <pt x="110" y="648" on="0"/>
        <pt x="172" y="694" on="0"/>
        <pt x="266" y="720" on="0"/>
        <pt x="330" y="720" on="1"/>
        <pt x="394" y="720" on="0"/>
        <pt x="488" y="694" on="0"/>
        <pt x="550" y="648" on="0"/>
        <pt x="580" y="586" on="0"/>
        <pt x="580" y="550" on="1"/>
        <pt x="580" y="514" on="0"/>
        <pt x="552" y="454" on="0"/>
        <pt x="505" y="403" on="0"/>
        <pt x="444" y="362" on="0"/>
        <pt x="410" y="345" on="1"/>
        <pt x="580" y="205" on="1"/>
        <pt x="595" y="235" on="0"/>
        <pt x="615" y="310" on="0"/>
        <pt x="615" y="350" on="1"/>
        <pt x="715" y="350" on="1"/>
        <pt x="715" y="290" on="0"/>
        <pt x="685" y="187" on="0"/>
        <pt x="655" y="145" on="1"/>
        <pt x="745" y="70" on="1"/>
        <pt x="675" y="-20" on="1"/>
        <pt x="575" y="60" on="1"/>
        <pt x="526" y="22" on="0"/>
        <pt x="394" y="-20" on="0"/>
        <pt x="315" y="-20" on="1"/>
        <pt x="242" y="-20" on="0"/>
        <pt x="135" y="11" on="0"/>
        <pt x="64" y="62" on="0"/>
        <pt x="30" y="126" on="0"/>
        <pt x="30" y="160" on="1"/>
        <pt x="30" y="199" on="0"/>
        <pt x="58" y="260" on="0"/>
        <pt x="106" y="308" on="0"/>
        <pt x="169" y="345" on="0"/>
        <pt x="205" y="360" on="1"/>
        <pt x="181" y="379" on="0"/>
        <pt x="135" y="419" on="0"/>
        <pt x="101" y="465" on="0"/>
        <pt x="80" y="518" on="0"/>
      </contour>
      <contour>
        <pt x="335" y="50" on="1"/>
        <pt x="388" y="50" on="0"/>
        <pt x="476" y="85" on="0"/>
        <pt x="510" y="114" on="1"/>
        <pt x="290" y="295" on="1"/>
        <pt x="245" y="272" on="0"/>
        <pt x="185" y="202" on="0"/>
        <pt x="185" y="160" on="1"/>
        <pt x="185" y="139" on="0"/>
        <pt x="205" y="100" on="0"/>
        <pt x="244" y="69" on="0"/>
        <pt x="299" y="50" on="0"/>
      </contour>
      <contour>
        <pt x="330" y="415" on="1"/>
        <pt x="375" y="441" on="0"/>
        <pt x="430" y="512" on="0"/>
        <pt x="430" y="550" on="1"/>
        <pt x="430" y="599" on="0"/>
        <pt x="375" y="655" on="0"/>
        <pt x="330" y="655" on="1"/>
        <pt x="285" y="655" on="0"/>
        <pt x="230" y="599" on="0"/>
        <pt x="230" y="550" on="1"/>
        <pt x="230" y="512" on="0"/>
        <pt x="285" y="441" on="0"/>
      </contour>
    </TTGlyph>
    <TTGlyph name="aogonek" xMin="35" yMin="-225" xMax="606" yMax="540">
      <component glyphName="a" x="0" y="0" flags="0x4"/>
      <component glyphName="ogonek" x="336" y="0" flags="0x4"/>
    </TTGlyph>
    <TTGlyph name="aring" xMin="35" yMin="0" xMax="580" yMax="791">
      <component glyphName="a" x="0" y="0" flags="0x204"/>
      <component glyphName="ring" x="182" y="-9" flags="0x4"/>
    </TTGlyph>
    <TTGlyph name="asciicircum" xMin="10" yMin="450" xMax="500" yMax="720">
      <contour>
        <pt x="135" y="450" on="1"/>
        <pt x="10" y="450" on="1"/>
        <pt x="200" y="720" on="1"/>
        <pt x="310" y="720" on="1"/>
        <pt x="500" y="450" on="1"/>
        <pt x="375" y="450" on="1"/>
        <pt x="255" y="620" on="1"/>
      </contour>
    </TTGlyph>
    <TTGlyph name="asciitilde" xMin="20" yMin="235" xMax="485" yMax="415">
      <contour>
        <pt x="20" y="261" on="1"/>
        <pt x="22" y="292" on="0"/>
        <pt x="42" y="348" on="0"/>
        <pt x="78" y="390" on="0"/>
        <pt x="128" y="415" on="0"/>
        <pt x="160" y="415" on="1"/>
        <pt x="192" y="415" on="0"/>
        <pt x="241" y="393" on="0"/>
        <pt x="282" y="367" on="0"/>
        <pt x="319" y="345" on="0"/>
        <pt x="340" y="345" on="1"/>
        <pt x="374" y="345" on="0"/>
        <pt x="407" y="385" on="0"/>
        <pt x="415" y="415" on="1"/>
        <pt x="485" y="389" on="1"/>
        <pt x="483" y="357" on="0"/>
        <pt x="463" y="301" on="0"/>
        <pt x="427" y="259" on="0"/>
        <pt x="377" y="235" on="0"/>
        <pt x="345" y="235" on="1"/>
        <pt x="313" y="235" on="0"/>
        <pt x="264" y="257" on="0"/>
        <pt x="223" y="283" on="0"/>
        <pt x="186" y="305" on="0"/>
        <pt x="165" y="305" on="1"/>
        <pt x="131" y="305" on="0"/>
        <pt x="98" y="265" on="0"/>
        <pt x="90" y="235" on="1"/>
      </contour>
    </TTGlyph>
    <TTGlyph name="asterisk" xMin="40" yMin="305" xMax="460" yMax="720">
      <contour>
        <pt x="40" y="580" on="1"/>
        <pt x="85" y="660" on="1"/>
        <pt x="205" y="590" on="1"/>
        <pt x="205" y="720" on="1"/>
        <pt x="295" y="720" on="1"/>
        <pt x="295" y="590" on="1"/>
        <pt x="415" y="660" on="1"/>
        <pt x="460" y="580" on="1"/>
        <pt x="342" y="513" on="1"/>
        <pt x="460" y="445" on="1"/>
        <pt x="415" y="365" on="1"/>
        <pt x="295" y="435" on="1"/>
        <pt x="295" y="305" on="1"/>
        <pt x="205" y="305" on="1"/>
        <pt x="205" y="435" on="1"/>
        <pt x="85" y="365" on="1"/>
        <pt x="40" y="445" on="1"/>
        <pt x="155" y="513" on="1"/>
      </contour>
    </TTGlyph>
    <TTGlyph name="at" xMin="50" yMin="-120" xMax="980" yMax="720">
      <contour>
        <pt x="525" y="65" on="1"/>
        <pt x="405" y="65" on="0"/>
        <pt x="265" y="177" on="0"/>
        <pt x="265" y="290" on="1"/>
        <pt x="265" y="402" on="0"/>
        <pt x="405" y="515" on="0"/>
        <pt x="525" y="515" on="1"/>
        <pt x="735" y="515" on="1"/>
        <pt x="735" y="135" on="1"/>
        <pt x="765" y="135" on="0"/>
        <pt x="815" y="155" on="0"/>
        <pt x="850" y="199" on="0"/>
        <pt x="870" y="269" on="0"/>
        <pt x="870" y="320" on="1"/>
        <pt x="870" y="393" on="0"/>
        <pt x="821" y="511" on="0"/>
        <pt x="729" y="595" on="0"/>
        <pt x="597" y="640" on="0"/>
        <pt x="515" y="640" on="1"/>
        <pt x="432" y="640" on="0"/>
        <pt x="301" y="594" on="0"/>
        <pt x="209" y="507" on="0"/>
        <pt x="160" y="381" on="0"/>
        <pt x="160" y="300" on="1"/>
        <pt x="160" y="219" on="0"/>
        <pt x="209" y="93" on="0"/>
        <pt x="301" y="6" on="0"/>
        <pt x="432" y="-40" on="0"/>
        <pt x="515" y="-40" on="1"/>
        <pt x="550" y="-40" on="0"/>
        <pt x="616" y="-31" on="0"/>
        <pt x="641" y="-25" on="1"/>
        <pt x="670" y="-19" on="0"/>
        <pt x="695" y="-10" on="1"/>
        <pt x="715" y="-90" on="1"/>
        <pt x="690" y="-99" on="0"/>
        <pt x="658" y="-105" on="1"/>
        <pt x="631" y="-111" on="0"/>
        <pt x="558" y="-120" on="0"/>
        <pt x="515" y="-120" on="1"/>
        <pt x="410" y="-120" on="0"/>
        <pt x="238" y="-58" on="0"/>
        <pt x="117" y="54" on="0"/>
        <pt x="50" y="208" on="0"/>
        <pt x="50" y="300" on="1"/>
        <pt x="50" y="392" on="0"/>
        <pt x="117" y="546" on="0"/>
        <pt x="238" y="658" on="0"/>
        <pt x="410" y="720" on="0"/>
        <pt x="515" y="720" on="1"/>
        <pt x="620" y="720" on="0"/>
        <pt x="792" y="658" on="0"/>
        <pt x="913" y="550" on="0"/>
        <pt x="980" y="404" on="0"/>
        <pt x="980" y="320" on="1"/>
        <pt x="980" y="256" on="0"/>
        <pt x="943" y="161" on="0"/>
        <pt x="877" y="97" on="0"/>
        <pt x="787" y="65" on="0"/>
        <pt x="735" y="65" on="1"/>
      </contour>
      <contour>
        <pt x="595" y="135" on="1"/>
        <pt x="595" y="445" on="1"/>
        <pt x="525" y="445" on="1"/>
        <pt x="504" y="445" on="0"/>
        <pt x="465" y="427" on="0"/>
        <pt x="434" y="390" on="0"/>
        <pt x="415" y="331" on="0"/>
        <pt x="415" y="290" on="1"/>
        <pt x="415" y="249" on="0"/>
        <pt x="434" y="190" on="0"/>
        <pt x="465" y="152" on="0"/>
        <pt x="504" y="135" on="0"/>
        <pt x="525" y="135" on="1"/>
      </contour>
    </TTGlyph>
    <TTGlyph name="atilde" xMin="35" yMin="0" xMax="580" yMax="731">
      <component glyphName="a" x="0" y="0" flags="0x204"/>
      <component glyphName="tilde" x="127" y="0" flags="0x4"/>
    </TTGlyph>
    <TTGlyph name="b" xMin="70" yMin="0" xMax="640" yMax="700">
      <contour>
        <pt x="335" y="70" on="1"/>
        <pt x="369" y="70" on="0"/>
        <pt x="426" y="91" on="0"/>
        <pt x="467" y="137" on="0"/>
        <pt x="490" y="209" on="0"/>
        <pt x="490" y="260" on="1"/>
        <pt x="490" y="311" on="0"/>
        <pt x="467" y="383" on="0"/>
        <pt x="426" y="429" on="0"/>
        <pt x="369" y="450" on="0"/>
        <pt x="335" y="450" on="1"/>
        <pt x="210" y="450" on="1"/>
        <pt x="210" y="70" on="1"/>
      </contour>
      <contour>
        <pt x="70" y="0" on="1"/>
        <pt x="70" y="700" on="1"/>
        <pt x="210" y="700" on="1"/>
        <pt x="210" y="520" on="1"/>
        <pt x="335" y="520" on="1"/>
        <pt x="404" y="520" on="0"/>
        <pt x="517" y="484" on="0"/>
        <pt x="597" y="416" on="0"/>
        <pt x="640" y="320" on="0"/>
        <pt x="640" y="260" on="1"/>
        <pt x="640" y="200" on="0"/>
        <pt x="597" y="104" on="0"/>
        <pt x="517" y="36" on="0"/>
        <pt x="404" y="0" on="0"/>
        <pt x="335" y="0" on="1"/>
      </contour>
    </TTGlyph>
    <TTGlyph name="backslash" xMin="20" yMin="0" xMax="390" yMax="700">
      <contour>
        <pt x="150" y="700" on="1"/>
        <pt x="390" y="0" on="1"/>
        <pt x="260" y="0" on="1"/>
        <pt x="20" y="700" on="1"/>
      </contour>
    </TTGlyph>
    <TTGlyph name="bar" xMin="70" yMin="-180" xMax="215" yMax="700">
      <contour>
        <pt x="70" y="700" on="1"/>
        <pt x="215" y="700" on="1"/>
        <pt x="215" y="-180" on="1"/>
        <pt x="70" y="-180" on="1"/>
      </contour>
    </TTGlyph>
    <TTGlyph name="braceleft" xMin="20" yMin="-155" xMax="370" yMax="755">
      <contour>
        <pt x="140" y="300" on="1"/>
        <pt x="159" y="296" on="0"/>
        <pt x="201" y="279" on="0"/>
        <pt x="237" y="247" on="0"/>
        <pt x="260" y="199" on="0"/>
        <pt x="260" y="165" on="1"/>
        <pt x="260" y="20" on="1"/>
        <pt x="260" y="-25" on="0"/>
        <pt x="315" y="-80" on="0"/>
        <pt x="360" y="-80" on="1"/>
        <pt x="370" y="-80" on="1"/>
        <pt x="370" y="-155" on="1"/>
        <pt x="360" y="-155" on="1"/>
        <pt x="239" y="-155" on="0"/>
        <pt x="120" y="-63" on="0"/>
        <pt x="120" y="20" on="1"/>
        <pt x="120" y="165" on="1"/>
        <pt x="120" y="210" on="0"/>
        <pt x="65" y="265" on="0"/>
        <pt x="20" y="265" on="1"/>
        <pt x="20" y="335" on="1"/>
        <pt x="65" y="335" on="0"/>
        <pt x="120" y="390" on="0"/>
        <pt x="120" y="435" on="1"/>
        <pt x="120" y="580" on="1"/>
        <pt x="120" y="663" on="0"/>
        <pt x="239" y="755" on="0"/>
        <pt x="360" y="755" on="1"/>
        <pt x="370" y="755" on="1"/>
        <pt x="370" y="680" on="1"/>
        <pt x="360" y="680" on="1"/>
        <pt x="315" y="680" on="0"/>
        <pt x="260" y="625" on="0"/>
        <pt x="260" y="580" on="1"/>
        <pt x="260" y="435" on="1"/>
        <pt x="260" y="401" on="0"/>
        <pt x="237" y="353" on="0"/>
        <pt x="201" y="321" on="0"/>
        <pt x="159" y="304" on="0"/>
      </contour>
    </TTGlyph>
    <TTGlyph name="braceright" xMin="10" yMin="-155" xMax="360" yMax="755">
      <contour>
        <pt x="240" y="300" on="1"/>
        <pt x="221" y="304" on="0"/>
        <pt x="179" y="321" on="0"/>
        <pt x="143" y="353" on="0"/>
        <pt x="120" y="401" on="0"/>
        <pt x="120" y="435" on="1"/>
        <pt x="120" y="580" on="1"/>
        <pt x="120" y="625" on="0"/>
        <pt x="65" y="680" on="0"/>
        <pt x="20" y="680" on="1"/>
        <pt x="10" y="680" on="1"/>
        <pt x="10" y="755" on="1"/>
        <pt x="20" y="755" on="1"/>
        <pt x="141" y="755" on="0"/>
        <pt x="260" y="663" on="0"/>
        <pt x="260" y="580" on="1"/>
        <pt x="260" y="435" on="1"/>
        <pt x="260" y="390" on="0"/>
        <pt x="315" y="335" on="0"/>
        <pt x="360" y="335" on="1"/>
        <pt x="360" y="265" on="1"/>
        <pt x="315" y="265" on="0"/>
        <pt x="260" y="210" on="0"/>
        <pt x="260" y="165" on="1"/>
        <pt x="260" y="20" on="1"/>
        <pt x="260" y="-63" on="0"/>
        <pt x="141" y="-155" on="0"/>
        <pt x="20" y="-155" on="1"/>
        <pt x="10" y="-155" on="1"/>
        <pt x="10" y="-80" on="1"/>
        <pt x="20" y="-80" on="1"/>
        <pt x="65" y="-80" on="0"/>
        <pt x="120" y="-25" on="0"/>
        <pt x="120" y="20" on="1"/>
        <pt x="120" y="165" on="1"/>
        <pt x="120" y="199" on="0"/>
        <pt x="143" y="247" on="0"/>
        <pt x="179" y="279" on="0"/>
        <pt x="221" y="296" on="0"/>
      </contour>
    </TTGlyph>
    <TTGlyph name="bracketleft" xMin="70" yMin="-155" xMax="330" yMax="755">
      <contour>
        <pt x="210" y="680" on="1"/>
        <pt x="210" y="-80" on="1"/>
        <pt x="330" y="-80" on="1"/>
        <pt x="330" y="-155" on="1"/>
        <pt x="70" y="-155" on="1"/>
        <pt x="70" y="755" on="1"/>
        <pt x="330" y="755" on="1"/>
        <pt x="330" y="680" on="1"/>
      </contour>
    </TTGlyph>
    <TTGlyph name="bracketright" xMin="20" yMin="-155" xMax="280" yMax="755">
      <contour>
        <pt x="20" y="680" on="1"/>
        <pt x="20" y="755" on="1"/>
        <pt x="280" y="755" on="1"/>
        <pt x="280" y="-155" on="1"/>
        <pt x="20" y="-155" on="1"/>
        <pt x="20" y="-80" on="1"/>
        <pt x="140" y="-80" on="1"/>
        <pt x="140" y="680" on="1"/>
      </contour>
    </TTGlyph>
    <TTGlyph name="breve" xMin="40" yMin="590" xMax="430" yMax="755">
      <contour>
        <pt x="235" y="590" on="1"/>
        <pt x="130" y="590" on="0"/>
        <pt x="40" y="680" on="0"/>
        <pt x="40" y="755" on="1"/>
        <pt x="155" y="755" on="1"/>
        <pt x="155" y="710" on="0"/>
        <pt x="201" y="670" on="0"/>
        <pt x="235" y="670" on="1"/>
        <pt x="269" y="670" on="0"/>
        <pt x="315" y="710" on="0"/>
        <pt x="315" y="755" on="1"/>
        <pt x="430" y="755" on="1"/>
        <pt x="430" y="680" on="0"/>
        <pt x="340" y="590" on="0"/>
      </contour>
    </TTGlyph>
    <TTGlyph name="brokenbar" xMin="70" yMin="-180" xMax="215" yMax="700">
      <contour>
        <pt x="70" y="160" on="1"/>
        <pt x="215" y="160" on="1"/>
        <pt x="215" y="-180" on="1"/>
        <pt x="70" y="-180" on="1"/>
      </contour>
      <contour>
        <pt x="215" y="360" on="1"/>
        <pt x="70" y="360" on="1"/>
        <pt x="70" y="700" on="1"/>
        <pt x="215" y="700" on="1"/>
      </contour>
    </TTGlyph>
    <TTGlyph name="bullet" xMin="70" yMin="180" xMax="310" yMax="420">
      <contour>
        <pt x="310" y="300" on="1"/>
        <pt x="310" y="247" on="0"/>
        <pt x="243" y="180" on="0"/>
        <pt x="190" y="180" on="1"/>
        <pt x="137" y="180" on="0"/>
        <pt x="70" y="247" on="0"/>
        <pt x="70" y="300" on="1"/>
        <pt x="70" y="353" on="0"/>
        <pt x="137" y="420" on="0"/>
        <pt x="190" y="420" on="1"/>
        <pt x="243" y="420" on="0"/>
        <pt x="310" y="353" on="0"/>
      </contour>
    </TTGlyph>
    <TTGlyph name="c" xMin="45" yMin="-20" xMax="585" yMax="540">
      <contour>
        <pt x="350" y="540" on="1"/>
        <pt x="382" y="540" on="0"/>
        <pt x="446" y="529" on="0"/>
        <pt x="505" y="510" on="0"/>
        <pt x="556" y="482" on="0"/>
        <pt x="575" y="465" on="1"/>
        <pt x="535" y="405" on="1"/>
        <pt x="494" y="436" on="0"/>
        <pt x="409" y="470" on="0"/>
        <pt x="360" y="470" on="1"/>
        <pt x="324" y="470" on="0"/>
        <pt x="264" y="447" on="0"/>
        <pt x="220" y="396" on="0"/>
        <pt x="195" y="316" on="0"/>
        <pt x="195" y="260" on="1"/>
        <pt x="195" y="204" on="0"/>
        <pt x="220" y="124" on="0"/>
        <pt x="266" y="73" on="0"/>
        <pt x="331" y="50" on="0"/>
        <pt x="370" y="50" on="1"/>
        <pt x="419" y="50" on="0"/>
        <pt x="504" y="84" on="0"/>
        <pt x="545" y="115" on="1"/>
        <pt x="585" y="55" on="1"/>
        <pt x="566" y="38" on="0"/>
        <pt x="515" y="10" on="0"/>
        <pt x="456" y="-9" on="0"/>
        <pt x="392" y="-20" on="0"/>
        <pt x="360" y="-20" on="1"/>
        <pt x="289" y="-20" on="0"/>
        <pt x="172" y="17" on="0"/>
        <pt x="90" y="88" on="0"/>
        <pt x="45" y="192" on="0"/>
        <pt x="45" y="260" on="1"/>
        <pt x="45" y="327" on="0"/>
        <pt x="90" y="432" on="0"/>
        <pt x="170" y="503" on="0"/>
        <pt x="282" y="540" on="0"/>
      </contour>
    </TTGlyph>
    <TTGlyph name="cacute" xMin="45" yMin="-20" xMax="585" yMax="730">
      <component glyphName="c" x="0" y="0" flags="0x204"/>
      <component glyphName="acute" x="247" y="0" flags="0x4"/>
    </TTGlyph>
    <TTGlyph name="caron" xMin="40" yMin="580" xMax="401" yMax="740">
      <contour>
        <pt x="165" y="580" on="1"/>
        <pt x="40" y="740" on="1"/>
        <pt x="145" y="740" on="1"/>
        <pt x="220" y="650" on="1"/>
        <pt x="296" y="740" on="1"/>
        <pt x="401" y="740" on="1"/>
        <pt x="275" y="580" on="1"/>
      </contour>
    </TTGlyph>
    <TTGlyph name="ccaron" xMin="45" yMin="-20" xMax="585" yMax="740">
      <component glyphName="c" x="0" y="0" flags="0x204"/>
      <component glyphName="caron" x="107" y="0" flags="0x4"/>
    </TTGlyph>
    <TTGlyph name="ccedilla" xMin="45" yMin="-240" xMax="585" yMax="540">
      <component glyphName="c" x="0" y="0" flags="0x204"/>
      <component glyphName="cedilla" x="200" y="0" flags="0x4"/>
    </TTGlyph>
    <TTGlyph name="cedilla" xMin="44" yMin="-240" xMax="275" yMax="0">
      <contour>
        <pt x="155" y="-240" on="1"/>
        <pt x="130" y="-240" on="0"/>
        <pt x="90" y="-231" on="0"/>
        <pt x="75" y="-225" on="1"/>
        <pt x="57" y="-219" on="0"/>
        <pt x="44" y="-210" on="1"/>
        <pt x="64" y="-160" on="1"/>
        <pt x="75" y="-166" on="0"/>
        <pt x="86" y="-170" on="1"/>
        <pt x="96" y="-174" on="0"/>
        <pt x="121" y="-180" on="0"/>
        <pt x="135" y="-180" on="1"/>
        <pt x="169" y="-180" on="0"/>
        <pt x="195" y="-160" on="0"/>
        <pt x="195" y="-145" on="1"/>
        <pt x="195" y="-130" on="0"/>
        <pt x="169" y="-110" on="0"/>
        <pt x="135" y="-110" on="1"/>
        <pt x="90" y="-110" on="1"/>
        <pt x="90" y="0" on="1"/>
        <pt x="170" y="0" on="1"/>
        <pt x="170" y="-50" on="1"/>
        <pt x="219" y="-54" on="0"/>
        <pt x="275" y="-100" on="0"/>
        <pt x="275" y="-145" on="1"/>
        <pt x="275" y="-190" on="0"/>
        <pt x="212" y="-240" on="0"/>
      </contour>
    </TTGlyph>
    <TTGlyph name="cent" xMin="45" yMin="-100" xMax="585" yMax="620">
      <contour>
        <pt x="390" y="538" on="1"/>
        <pt x="444" y="532" on="0"/>
        <pt x="543" y="494" on="0"/>
        <pt x="575" y="465" on="1"/>
        <pt x="535" y="405" on="1"/>
        <pt x="494" y="436" on="0"/>
        <pt x="409" y="470" on="0"/>
        <pt x="360" y="470" on="1"/>
        <pt x="324" y="470" on="0"/>
        <pt x="264" y="447" on="0"/>
        <pt x="220" y="396" on="0"/>
        <pt x="195" y="316" on="0"/>
        <pt x="195" y="260" on="1"/>
        <pt x="195" y="204" on="0"/>
        <pt x="220" y="124" on="0"/>
        <pt x="266" y="73" on="0"/>
        <pt x="331" y="50" on="0"/>
        <pt x="370" y="50" on="1"/>
        <pt x="419" y="50" on="0"/>
        <pt x="504" y="84" on="0"/>
        <pt x="545" y="115" on="1"/>
        <pt x="585" y="55" on="1"/>
        <pt x="552" y="25" on="0"/>
        <pt x="447" y="-13" on="0"/>
        <pt x="390" y="-18" on="1"/>
        <pt x="390" y="-100" on="1"/>
        <pt x="280" y="-100" on="1"/>
        <pt x="280" y="-13" on="1"/>
        <pt x="171" y="5" on="0"/>
        <pt x="45" y="144" on="0"/>
        <pt x="45" y="260" on="1"/>
        <pt x="45" y="318" on="0"/>
        <pt x="78" y="412" on="0"/>
        <pt x="140" y="481" on="0"/>
        <pt x="227" y="525" on="0"/>
        <pt x="280" y="534" on="1"/>
        <pt x="280" y="620" on="1"/>
        <pt x="390" y="620" on="1"/>
      </contour>
    </TTGlyph>
    <TTGlyph name="circumflex" xMin="40" yMin="580" xMax="401" yMax="740">
      <contour>
        <pt x="275" y="740" on="1"/>
        <pt x="401" y="580" on="1"/>
        <pt x="296" y="580" on="1"/>
        <pt x="220" y="670" on="1"/>
        <pt x="145" y="580" on="1"/>
        <pt x="40" y="580" on="1"/>
        <pt x="165" y="740" on="1"/>
      </contour>
    </TTGlyph>
    <TTGlyph name="colon" xMin="50" yMin="-10" xMax="200" yMax="530">
      <contour>
        <pt x="200" y="65" on="1"/>
        <pt x="200" y="35" on="0"/>
        <pt x="159" y="-10" on="0"/>
        <pt x="125" y="-10" on="1"/>
        <pt x="91" y="-10" on="0"/>
        <pt x="50" y="35" on="0"/>
        <pt x="50" y="65" on="1"/>
        <pt x="50" y="95" on="0"/>
        <pt x="91" y="140" on="0"/>
        <pt x="125" y="140" on="1"/>
        <pt x="158" y="140" on="0"/>
        <pt x="200" y="95" on="0"/>
      </contour>
      <contour>
        <pt x="200" y="455" on="1"/>
        <pt x="200" y="425" on="0"/>
        <pt x="159" y="380" on="0"/>
        <pt x="125" y="380" on="1"/>
        <pt x="91" y="380" on="0"/>
        <pt x="50" y="425" on="0"/>
        <pt x="50" y="455" on="1"/>
        <pt x="50" y="485" on="0"/>
        <pt x="91" y="530" on="0"/>
        <pt x="125" y="530" on="1"/>
        <pt x="158" y="530" on="0"/>
        <pt x="200" y="485" on="0"/>
      </contour>
    </TTGlyph>
    <TTGlyph name="comma" xMin="50" yMin="-105" xMax="205" yMax="140">
      <contour>
        <pt x="205" y="45" on="1"/>
        <pt x="205" y="6" on="0"/>
        <pt x="181" y="-51" on="0"/>
        <pt x="143" y="-88" on="0"/>
        <pt x="94" y="-105" on="0"/>
        <pt x="70" y="-105" on="1"/>
        <pt x="70" y="-70" on="1"/>
        <pt x="96" y="-70" on="0"/>
        <pt x="141" y="-35" on="0"/>
        <pt x="145" y="-5" on="1"/>
        <pt x="142" y="-7" on="0"/>
        <pt x="138" y="-8" on="1"/>
        <pt x="130" y="-10" on="0"/>
        <pt x="120" y="-10" on="1"/>
        <pt x="90" y="-10" on="0"/>
        <pt x="50" y="35" on="0"/>
        <pt x="50" y="65" on="1"/>
        <pt x="50" y="95" on="0"/>
        <pt x="91" y="140" on="0"/>
        <pt x="125" y="140" on="1"/>
        <pt x="163" y="140" on="0"/>
        <pt x="205" y="83" on="0"/>
      </contour>
    </TTGlyph>
    <TTGlyph name="commaaccent" xMin="40" yMin="-295" xMax="195" yMax="-50">
      <contour>
        <pt x="195" y="-145" on="1"/>
        <pt x="195" y="-184" on="0"/>
        <pt x="171" y="-241" on="0"/>
        <pt x="133" y="-278" on="0"/>
        <pt x="84" y="-295" on="0"/>
        <pt x="60" y="-295" on="1"/>
        <pt x="60" y="-260" on="1"/>
        <pt x="86" y="-260" on="0"/>
        <pt x="131" y="-225" on="0"/>
        <pt x="135" y="-195" on="1"/>
        <pt x="132" y="-197" on="0"/>
        <pt x="128" y="-198" on="1"/>
        <pt x="120" y="-200" on="0"/>
        <pt x="110" y="-200" on="1"/>
        <pt x="80" y="-200" on="0"/>
        <pt x="40" y="-155" on="0"/>
        <pt x="40" y="-125" on="1"/>
        <pt x="40" y="-95" on="0"/>
        <pt x="81" y="-50" on="0"/>
        <pt x="115" y="-50" on="1"/>
        <pt x="153" y="-50" on="0"/>
        <pt x="195" y="-107" on="0"/>
      </contour>
    </TTGlyph>
    <TTGlyph name="copyright" xMin="50" yMin="-30" xMax="880" yMax="730">
      <contour>
        <pt x="160" y="350" on="1"/>
        <pt x="160" y="281" on="0"/>
        <pt x="207" y="170" on="0"/>
        <pt x="290" y="92" on="0"/>
        <pt x="401" y="50" on="0"/>
        <pt x="465" y="50" on="1"/>
        <pt x="529" y="50" on="0"/>
        <pt x="640" y="92" on="0"/>
        <pt x="722" y="170" on="0"/>
        <pt x="770" y="281" on="0"/>
        <pt x="770" y="350" on="1"/>
        <pt x="770" y="419" on="0"/>
        <pt x="722" y="530" on="0"/>
        <pt x="640" y="608" on="0"/>
        <pt x="529" y="650" on="0"/>
        <pt x="465" y="650" on="1"/>
        <pt x="401" y="650" on="0"/>
        <pt x="290" y="608" on="0"/>
        <pt x="207" y="530" on="0"/>
        <pt x="160" y="419" on="0"/>
      </contour>
      <contour>
        <pt x="880" y="350" on="1"/>
        <pt x="880" y="266" on="0"/>
        <pt x="818" y="126" on="0"/>
        <pt x="707" y="25" on="0"/>
        <pt x="555" y="-30" on="0"/>
        <pt x="465" y="-30" on="1"/>
        <pt x="375" y="-30" on="0"/>
        <pt x="223" y="25" on="0"/>
        <pt x="112" y="126" on="0"/>
        <pt x="50" y="266" on="0"/>
        <pt x="50" y="350" on="1"/>
        <pt x="50" y="434" on="0"/>
        <pt x="112" y="574" on="0"/>
        <pt x="223" y="675" on="0"/>
        <pt x="375" y="730" on="0"/>
        <pt x="465" y="730" on="1"/>
        <pt x="555" y="730" on="0"/>
        <pt x="707" y="675" on="0"/>
        <pt x="818" y="574" on="0"/>
        <pt x="880" y="434" on="0"/>
      </contour>
      <contour>
        <pt x="480" y="130" on="1"/>
        <pt x="426" y="130" on="0"/>
        <pt x="337" y="159" on="0"/>
        <pt x="274" y="216" on="0"/>
        <pt x="240" y="297" on="0"/>
        <pt x="240" y="350" on="1"/>
        <pt x="240" y="402" on="0"/>
        <pt x="274" y="484" on="0"/>
        <pt x="335" y="541" on="0"/>
        <pt x="419" y="570" on="0"/>
        <pt x="470" y="570" on="1"/>
        <pt x="530" y="570" on="0"/>
        <pt x="620" y="533" on="0"/>
        <pt x="650" y="510" on="1"/>
        <pt x="615" y="460" on="1"/>
        <pt x="585" y="483" on="0"/>
        <pt x="525" y="510" on="0"/>
        <pt x="479" y="510" on="1"/>
        <pt x="455" y="510" on="0"/>
        <pt x="412" y="492" on="0"/>
        <pt x="379" y="454" on="0"/>
        <pt x="360" y="393" on="0"/>
        <pt x="360" y="350" on="1"/>
        <pt x="360" y="264" on="0"/>
        <pt x="433" y="190" on="0"/>
        <pt x="489" y="190" on="1"/>
        <pt x="535" y="190" on="0"/>
        <pt x="595" y="217" on="0"/>
        <pt x="625" y="240" on="1"/>
        <pt x="660" y="190" on="1"/>
        <pt x="630" y="167" on="0"/>
        <pt x="540" y="130" on="0"/>
      </contour>
    </TTGlyph>
    <TTGlyph name="currency" xMin="40" yMin="90" xMax="620" yMax="610">
      <contour>
        <pt x="545" y="455" on="1"/>
        <pt x="558" y="436" on="0"/>
        <pt x="575" y="384" on="0"/>
        <pt x="575" y="350" on="1"/>
        <pt x="575" y="316" on="0"/>
        <pt x="556" y="264" on="0"/>
        <pt x="545" y="245" on="1"/>
        <pt x="620" y="170" on="1"/>
        <pt x="540" y="90" on="1"/>
        <pt x="465" y="165" on="1"/>
        <pt x="439" y="146" on="0"/>
        <pt x="368" y="125" on="0"/>
        <pt x="330" y="125" on="1"/>
        <pt x="292" y="125" on="0"/>
        <pt x="221" y="146" on="0"/>
        <pt x="195" y="165" on="1"/>
        <pt x="120" y="90" on="1"/>
        <pt x="40" y="170" on="1"/>
        <pt x="115" y="245" on="1"/>
        <pt x="104" y="264" on="0"/>
        <pt x="85" y="316" on="0"/>
        <pt x="85" y="350" on="1"/>
        <pt x="85" y="384" on="0"/>
        <pt x="102" y="436" on="0"/>
        <pt x="115" y="455" on="1"/>
        <pt x="40" y="530" on="1"/>
        <pt x="120" y="610" on="1"/>
        <pt x="195" y="535" on="1"/>
        <pt x="221" y="554" on="0"/>
        <pt x="292" y="575" on="0"/>
        <pt x="330" y="575" on="1"/>
        <pt x="368" y="575" on="0"/>
        <pt x="439" y="554" on="0"/>
        <pt x="465" y="535" on="1"/>
        <pt x="540" y="610" on="1"/>
        <pt x="620" y="530" on="1"/>
      </contour>
      <contour>
        <pt x="440" y="350" on="1"/>
        <pt x="440" y="425" on="0"/>
        <pt x="375" y="500" on="0"/>
        <pt x="330" y="500" on="1"/>
        <pt x="285" y="500" on="0"/>
        <pt x="220" y="425" on="0"/>
        <pt x="220" y="350" on="1"/>
        <pt x="220" y="275" on="0"/>
        <pt x="285" y="200" on="0"/>
        <pt x="330" y="200" on="1"/>
        <pt x="375" y="200" on="0"/>
        <pt x="440" y="275" on="0"/>
      </contour>
    </TTGlyph>
    <TTGlyph name="d" xMin="45" yMin="0" xMax="615" yMax="700">
      <contour>
        <pt x="475" y="70" on="1"/>
        <pt x="475" y="450" on="1"/>
        <pt x="350" y="450" on="1"/>
        <pt x="316" y="450" on="0"/>
        <pt x="259" y="429" on="0"/>
        <pt x="218" y="383" on="0"/>
        <pt x="195" y="311" on="0"/>
        <pt x="195" y="260" on="1"/>
        <pt x="195" y="209" on="0"/>
        <pt x="218" y="137" on="0"/>
        <pt x="259" y="91" on="0"/>
        <pt x="316" y="70" on="0"/>
        <pt x="350" y="70" on="1"/>
      </contour>
      <contour>
        <pt x="350" y="0" on="1"/>
        <pt x="281" y="0" on="0"/>
        <pt x="168" y="36" on="0"/>
        <pt x="88" y="104" on="0"/>
        <pt x="45" y="200" on="0"/>
        <pt x="45" y="260" on="1"/>
        <pt x="45" y="320" on="0"/>
        <pt x="88" y="416" on="0"/>
        <pt x="168" y="484" on="0"/>
        <pt x="281" y="520" on="0"/>
        <pt x="350" y="520" on="1"/>
        <pt x="475" y="520" on="1"/>
        <pt x="475" y="700" on="1"/>
        <pt x="615" y="700" on="1"/>
        <pt x="615" y="0" on="1"/>
      </contour>
    </TTGlyph>
    <TTGlyph name="dagger" xMin="30" yMin="-180" xMax="570" yMax="700">
      <contour>
        <pt x="570" y="395" on="1"/>
        <pt x="370" y="395" on="1"/>
        <pt x="370" y="-180" on="1"/>
        <pt x="230" y="-180" on="1"/>
        <pt x="230" y="395" on="1"/>
        <pt x="30" y="395" on="1"/>
        <pt x="30" y="470" on="1"/>
        <pt x="230" y="470" on="1"/>
        <pt x="230" y="700" on="1"/>
        <pt x="370" y="700" on="1"/>
        <pt x="370" y="470" on="1"/>
        <pt x="570" y="470" on="1"/>
      </contour>
    </TTGlyph>
    <TTGlyph name="daggerdbl" xMin="30" yMin="-180" xMax="570" yMax="700">
      <contour>
        <pt x="570" y="50" on="1"/>
        <pt x="370" y="50" on="1"/>
        <pt x="370" y="-180" on="1"/>
        <pt x="230" y="-180" on="1"/>
        <pt x="230" y="50" on="1"/>
        <pt x="30" y="50" on="1"/>
        <pt x="30" y="125" on="1"/>
        <pt x="230" y="125" on="1"/>
        <pt x="230" y="395" on="1"/>
        <pt x="30" y="395" on="1"/>
        <pt x="30" y="470" on="1"/>
        <pt x="230" y="470" on="1"/>
        <pt x="230" y="700" on="1"/>
        <pt x="370" y="700" on="1"/>
        <pt x="370" y="470" on="1"/>
        <pt x="570" y="470" on="1"/>
        <pt x="570" y="395" on="1"/>
        <pt x="370" y="395" on="1"/>
        <pt x="370" y="125" on="1"/>
        <pt x="570" y="125" on="1"/>
      </contour>
    </TTGlyph>
    <TTGlyph name="dcaron" xMin="45" yMin="0" xMax="840" yMax="710">
      <component glyphName="d" x="0" y="0" flags="0x4"/>
      <component glyphName="quoteright" x="635" y="0" flags="0x4"/>
    </TTGlyph>
    <TTGlyph name="dcroat" xMin="45" yMin="0" xMax="705" yMax="700">
      <contour>
        <pt x="475" y="620" on="1"/>
        <pt x="475" y="700" on="1"/>
        <pt x="615" y="700" on="1"/>
        <pt x="615" y="620" on="1"/>
        <pt x="705" y="620" on="1"/>
        <pt x="705" y="550" on="1"/>
        <pt x="615" y="550" on="1"/>
        <pt x="615" y="0" on="1"/>
        <pt x="350" y="0" on="1"/>
        <pt x="277" y="0" on="0"/>
        <pt x="163" y="35" on="0"/>
        <pt x="85" y="98" on="0"/>
        <pt x="45" y="184" on="0"/>
        <pt x="45" y="235" on="1"/>
        <pt x="45" y="286" on="0"/>
        <pt x="85" y="372" on="0"/>
        <pt x="163" y="435" on="0"/>
        <pt x="277" y="470" on="0"/>
        <pt x="350" y="470" on="1"/>
        <pt x="475" y="470" on="1"/>
        <pt x="475" y="550" on="1"/>
        <pt x="345" y="550" on="1"/>
        <pt x="345" y="620" on="1"/>
      </contour>
      <contour>
        <pt x="475" y="70" on="1"/>
        <pt x="475" y="400" on="1"/>
        <pt x="350" y="400" on="1"/>
        <pt x="316" y="400" on="0"/>
        <pt x="259" y="379" on="0"/>
        <pt x="218" y="338" on="0"/>
        <pt x="195" y="276" on="0"/>
        <pt x="195" y="235" on="1"/>
        <pt x="195" y="194" on="0"/>
        <pt x="218" y="132" on="0"/>
        <pt x="259" y="91" on="0"/>
        <pt x="316" y="70" on="0"/>
        <pt x="350" y="70" on="1"/>
      </contour>
    </TTGlyph>
    <TTGlyph name="degree" xMin="30" yMin="390" xMax="380" yMax="720">
      <contour>
        <pt x="205" y="720" on="1"/>
        <pt x="242" y="720" on="0"/>
        <pt x="307" y="699" on="0"/>
        <pt x="353" y="658" on="0"/>
        <pt x="380" y="596" on="0"/>
        <pt x="380" y="555" on="1"/>
        <pt x="380" y="514" on="0"/>
        <pt x="353" y="452" on="0"/>
        <pt x="307" y="411" on="0"/>
        <pt x="242" y="390" on="0"/>
        <pt x="205" y="390" on="1"/>
        <pt x="167" y="390" on="0"/>
        <pt x="103" y="411" on="0"/>
        <pt x="57" y="452" on="0"/>
        <pt x="30" y="514" on="0"/>
        <pt x="30" y="555" on="1"/>
        <pt x="30" y="596" on="0"/>
        <pt x="57" y="658" on="0"/>
        <pt x="103" y="699" on="0"/>
        <pt x="167" y="720" on="0"/>
      </contour>
      <contour>
        <pt x="205" y="445" on="1"/>
        <pt x="231" y="445" on="0"/>
        <pt x="270" y="495" on="0"/>
        <pt x="270" y="555" on="1"/>
        <pt x="270" y="615" on="0"/>
        <pt x="231" y="665" on="0"/>
        <pt x="205" y="665" on="1"/>
        <pt x="179" y="665" on="0"/>
        <pt x="140" y="615" on="0"/>
        <pt x="140" y="555" on="1"/>
        <pt x="140" y="495" on="0"/>
        <pt x="179" y="445" on="0"/>
      </contour>
    </TTGlyph>
    <TTGlyph name="dieresis" xMin="40" yMin="580" xMax="420" yMax="730">
      <contour>
        <pt x="190" y="655" on="1"/>
        <pt x="190" y="625" on="0"/>
        <pt x="149" y="580" on="0"/>
        <pt x="115" y="580" on="1"/>
        <pt x="81" y="580" on="0"/>
        <pt x="40" y="625" on="0"/>
        <pt x="40" y="655" on="1"/>
        <pt x="40" y="685" on="0"/>
        <pt x="81" y="730" on="0"/>
        <pt x="115" y="730" on="1"/>
        <pt x="148" y="730" on="0"/>
        <pt x="190" y="685" on="0"/>
      </contour>
      <contour>
        <pt x="420" y="655" on="1"/>
        <pt x="420" y="625" on="0"/>
        <pt x="379" y="580" on="0"/>
        <pt x="345" y="580" on="1"/>
        <pt x="311" y="580" on="0"/>
        <pt x="270" y="625" on="0"/>
        <pt x="270" y="655" on="1"/>
        <pt x="270" y="685" on="0"/>
        <pt x="311" y="730" on="0"/>
        <pt x="345" y="730" on="1"/>
        <pt x="378" y="730" on="0"/>
        <pt x="420" y="685" on="0"/>
      </contour>
    </TTGlyph>
    <TTGlyph name="divide" xMin="30" yMin="70" xMax="510" yMax="580">
      <contour>
        <pt x="510" y="280" on="1"/>
        <pt x="30" y="280" on="1"/>
        <pt x="30" y="370" on="1"/>
        <pt x="510" y="370" on="1"/>
      </contour>
      <contour>
        <pt x="195" y="505" on="1"/>
        <pt x="195" y="535" on="0"/>
        <pt x="236" y="580" on="0"/>
        <pt x="270" y="580" on="1"/>
        <pt x="304" y="580" on="0"/>
        <pt x="345" y="535" on="0"/>
        <pt x="345" y="505" on="1"/>
        <pt x="345" y="475" on="0"/>
        <pt x="304" y="430" on="0"/>
        <pt x="270" y="430" on="1"/>
        <pt x="237" y="430" on="0"/>
        <pt x="195" y="475" on="0"/>
      </contour>
      <contour>
        <pt x="195" y="145" on="1"/>
        <pt x="195" y="175" on="0"/>
        <pt x="236" y="220" on="0"/>
        <pt x="270" y="220" on="1"/>
        <pt x="304" y="220" on="0"/>
        <pt x="345" y="175" on="0"/>
        <pt x="345" y="145" on="1"/>
        <pt x="345" y="115" on="0"/>
        <pt x="304" y="70" on="0"/>
        <pt x="270" y="70" on="1"/>
        <pt x="237" y="70" on="0"/>
        <pt x="195" y="115" on="0"/>
      </contour>
    </TTGlyph>
    <TTGlyph name="dollar" xMin="30" yMin="-100" xMax="720" yMax="800">
      <contour>
        <pt x="720" y="185" on="1"/>
        <pt x="720" y="145" on="0"/>
        <pt x="689" y="74" on="0"/>
        <pt x="620" y="20" on="0"/>
        <pt x="509" y="-14" on="0"/>
        <pt x="430" y="-18" on="1"/>
        <pt x="430" y="-100" on="1"/>
        <pt x="320" y="-100" on="1"/>
        <pt x="320" y="-17" on="1"/>
        <pt x="231" y="-9" on="0"/>
        <pt x="78" y="50" on="0"/>
        <pt x="30" y="95" on="1"/>
        <pt x="80" y="155" on="1"/>
        <pt x="137" y="106" on="0"/>
        <pt x="289" y="55" on="0"/>
        <pt x="380" y="55" on="1"/>
        <pt x="481" y="55" on="0"/>
        <pt x="565" y="110" on="0"/>
        <pt x="565" y="155" on="1"/>
        <pt x="565" y="196" on="0"/>
        <pt x="499" y="250" on="0"/>
        <pt x="420" y="275" on="1"/>
        <pt x="230" y="335" on="1"/>
        <pt x="136" y="365" on="0"/>
        <pt x="40" y="458" on="0"/>
        <pt x="40" y="530" on="1"/>
        <pt x="40" y="566" on="0"/>
        <pt x="72" y="632" on="0"/>
        <pt x="140" y="684" on="0"/>
        <pt x="246" y="717" on="0"/>
        <pt x="320" y="719" on="1"/>
        <pt x="320" y="800" on="1"/>
        <pt x="430" y="800" on="1"/>
        <pt x="430" y="714" on="1"/>
        <pt x="506" y="703" on="0"/>
        <pt x="640" y="647" on="0"/>
        <pt x="685" y="605" on="1"/>
        <pt x="635" y="545" on="1"/>
        <pt x="578" y="594" on="0"/>
        <pt x="436" y="645" on="0"/>
        <pt x="345" y="645" on="1"/>
        <pt x="270" y="645" on="0"/>
        <pt x="195" y="594" on="0"/>
        <pt x="195" y="560" on="1"/>
        <pt x="195" y="537" on="0"/>
        <pt x="209" y="504" on="0"/>
        <pt x="242" y="477" on="0"/>
        <pt x="296" y="453" on="0"/>
        <pt x="336" y="440" on="1"/>
        <pt x="525" y="380" on="1"/>
        <pt x="616" y="351" on="0"/>
        <pt x="720" y="257" on="0"/>
      </contour>
    </TTGlyph>
    <TTGlyph name="dotaccent" xMin="40" yMin="580" xMax="190" yMax="730">
      <contour>
        <pt x="190" y="655" on="1"/>
        <pt x="190" y="625" on="0"/>
        <pt x="149" y="580" on="0"/>
        <pt x="115" y="580" on="1"/>
        <pt x="81" y="580" on="0"/>
        <pt x="40" y="625" on="0"/>
        <pt x="40" y="655" on="1"/>
        <pt x="40" y="685" on="0"/>
        <pt x="81" y="730" on="0"/>
        <pt x="115" y="730" on="1"/>
        <pt x="148" y="730" on="0"/>
        <pt x="190" y="685" on="0"/>
      </contour>
    </TTGlyph>
    <TTGlyph name="dotlessi" xMin="70" yMin="0" xMax="210" yMax="510">
      <contour>
        <pt x="210" y="0" on="1"/>
        <pt x="70" y="0" on="1"/>
        <pt x="70" y="510" on="1"/>
        <pt x="210" y="510" on="1"/>
      </contour>
    </TTGlyph>
    <TTGlyph name="e" xMin="45" yMin="-20" xMax="625" yMax="540">
      <contour>
        <pt x="370" y="50" on="1"/>
        <pt x="419" y="50" on="0"/>
        <pt x="504" y="84" on="0"/>
        <pt x="545" y="115" on="1"/>
        <pt x="585" y="55" on="1"/>
        <pt x="566" y="38" on="0"/>
        <pt x="515" y="10" on="0"/>
        <pt x="456" y="-9" on="0"/>
        <pt x="392" y="-20" on="0"/>
        <pt x="360" y="-20" on="1"/>
        <pt x="289" y="-20" on="0"/>
        <pt x="172" y="17" on="0"/>
        <pt x="90" y="88" on="0"/>
        <pt x="45" y="192" on="0"/>
        <pt x="45" y="260" on="1"/>
        <pt x="45" y="327" on="0"/>
        <pt x="88" y="432" on="0"/>
        <pt x="165" y="503" on="0"/>
        <pt x="271" y="540" on="0"/>
        <pt x="335" y="540" on="1"/>
        <pt x="395" y="540" on="0"/>
        <pt x="501" y="504" on="0"/>
        <pt x="579" y="435" on="0"/>
        <pt x="625" y="337" on="0"/>
        <pt x="625" y="275" on="1"/>
        <pt x="625" y="205" on="1"/>
        <pt x="198" y="205" on="1"/>
        <pt x="210" y="122" on="0"/>
        <pt x="301" y="50" on="0"/>
      </contour>
      <contour>
        <pt x="335" y="475" on="1"/>
        <pt x="306" y="475" on="0"/>
        <pt x="256" y="453" on="0"/>
        <pt x="219" y="405" on="0"/>
        <pt x="196" y="329" on="0"/>
        <pt x="195" y="275" on="1"/>
        <pt x="475" y="275" on="1"/>
        <pt x="475" y="327" on="0"/>
        <pt x="451" y="403" on="0"/>
        <pt x="412" y="452" on="0"/>
        <pt x="361" y="475" on="0"/>
      </contour>
    </TTGlyph>
    <TTGlyph name="eacute" xMin="45" yMin="-20" xMax="625" yMax="730">
      <component glyphName="e" x="0" y="0" flags="0x204"/>
      <component glyphName="acute" x="234" y="0" flags="0x4"/>
    </TTGlyph>
    <TTGlyph name="ecaron" xMin="45" yMin="-20" xMax="625" yMax="740">
      <component glyphName="e" x="0" y="0" flags="0x204"/>
      <component glyphName="caron" x="114" y="0" flags="0x4"/>
    </TTGlyph>
    <TTGlyph name="ecircumflex" xMin="45" yMin="-20" xMax="625" yMax="740">
      <component glyphName="e" x="0" y="0" flags="0x204"/>
      <component glyphName="circumflex" x="114" y="0" flags="0x4"/>
    </TTGlyph>
    <TTGlyph name="edieresis" xMin="45" yMin="-20" xMax="625" yMax="730">
      <component glyphName="e" x="0" y="0" flags="0x204"/>
      <component glyphName="dieresis" x="105" y="0" flags="0x4"/>
    </TTGlyph>
    <TTGlyph name="edotaccent" xMin="45" yMin="-20" xMax="625" yMax="730">
      <component glyphName="e" x="0" y="0" flags="0x204"/>
      <component glyphName="dotaccent" x="220" y="0" flags="0x4"/>
    </TTGlyph>
    <TTGlyph name="egrave" xMin="45" yMin="-20" xMax="625" yMax="730">
      <component glyphName="e" x="0" y="0" flags="0x204"/>
      <component glyphName="acute" x="435" y="0" scalex="-0.999938964844" scaley="1.0" flags="0x4"/>
    </TTGlyph>
    <TTGlyph name="eight" xMin="40" yMin="-20" xMax="710" yMax="720">
      <contour>
        <pt x="375" y="720" on="1"/>
        <pt x="456" y="720" on="0"/>
        <pt x="571" y="691" on="0"/>
        <pt x="645" y="640" on="0"/>
        <pt x="680" y="568" on="0"/>
        <pt x="680" y="525" on="1"/>
        <pt x="680" y="468" on="0"/>
        <pt x="609" y="390" on="0"/>
        <pt x="545" y="375" on="1"/>
        <pt x="582" y="367" on="0"/>
        <pt x="643" y="335" on="0"/>
        <pt x="687" y="288" on="0"/>
        <pt x="710" y="229" on="0"/>
        <pt x="710" y="195" on="1"/>
        <pt x="710" y="152" on="0"/>
        <pt x="669" y="74" on="0"/>
        <pt x="585" y="15" on="0"/>
        <pt x="459" y="-20" on="0"/>
        <pt x="375" y="-20" on="1"/>
        <pt x="291" y="-20" on="0"/>
        <pt x="165" y="15" on="0"/>
        <pt x="81" y="74" on="0"/>
        <pt x="40" y="152" on="0"/>
        <pt x="40" y="195" on="1"/>
        <pt x="40" y="229" on="0"/>
        <pt x="63" y="288" on="0"/>
        <pt x="107" y="335" on="0"/>
        <pt x="167" y="367" on="0"/>
        <pt x="205" y="375" on="1"/>
        <pt x="141" y="390" on="0"/>
        <pt x="70" y="468" on="0"/>
        <pt x="70" y="525" on="1"/>
        <pt x="70" y="568" on="0"/>
        <pt x="105" y="640" on="0"/>
        <pt x="179" y="691" on="0"/>
        <pt x="294" y="720" on="0"/>
      </contour>
      <contour>
        <pt x="375" y="50" on="1"/>
        <pt x="466" y="50" on="0"/>
        <pt x="555" y="131" on="0"/>
        <pt x="555" y="195" on="1"/>
        <pt x="555" y="255" on="0"/>
        <pt x="465" y="335" on="0"/>
        <pt x="375" y="335" on="1"/>
        <pt x="285" y="335" on="0"/>
        <pt x="195" y="255" on="0"/>
        <pt x="195" y="195" on="1"/>
        <pt x="195" y="131" on="0"/>
        <pt x="284" y="50" on="0"/>
      </contour>
      <contour>
        <pt x="375" y="405" on="1"/>
        <pt x="450" y="405" on="0"/>
        <pt x="525" y="472" on="0"/>
        <pt x="525" y="525" on="1"/>
        <pt x="525" y="582" on="0"/>
        <pt x="450" y="650" on="0"/>
        <pt x="375" y="650" on="1"/>
        <pt x="300" y="650" on="0"/>
        <pt x="225" y="582" on="0"/>
        <pt x="225" y="525" on="1"/>
        <pt x="225" y="472" on="0"/>
        <pt x="300" y="405" on="0"/>
      </contour>
    </TTGlyph>
</ttFont>
